<svg width="289" height="261" viewBox="0 0 289 261" fill="none" xmlns="http://www.w3.org/2000/svg">
<path d="M216.926 231.282L216.5 230.554L229.058 223.172C230.609 222.261 232.534 222.267 234.08 223.194L244.458 229.411L244.026 230.136L233.648 223.918C232.367 223.15 230.769 223.143 229.483 223.899L216.926 231.282Z" fill="#D4ECFF"/>
<path d="M254.294 229.242L253.867 228.516L286.443 209.212C286.754 209.027 286.94 208.701 286.942 208.339C286.944 207.977 286.759 207.65 286.45 207.463L275.634 200.803L276.074 200.084L286.886 206.742C287.448 207.08 287.785 207.679 287.782 208.342C287.78 209.004 287.439 209.601 286.87 209.938L254.294 229.242Z" fill="#D4ECFF"/>
<path d="M218.816 202.653L218.397 201.922L250.146 183.591C250.475 183.401 250.671 183.06 250.671 182.679C250.67 182.299 250.474 181.958 250.145 181.768L233.341 172.091C231.04 170.767 229.61 168.29 229.61 165.63V110.19C229.61 107.893 230.741 105.751 232.635 104.46L235.158 102.739L235.632 103.435L233.108 105.157C231.445 106.292 230.452 108.173 230.452 110.19V165.63C230.452 167.99 231.72 170.185 233.761 171.36L250.564 181.037C251.157 181.379 251.512 181.993 251.513 182.679C251.513 183.365 251.16 183.979 250.567 184.322L218.816 202.653Z" fill="#D4ECFF"/>
<path d="M216.714 220.16C216.425 220.16 216.144 220.011 215.988 219.743C215.754 219.341 215.887 218.825 216.288 218.59L228.845 211.208C230.528 210.216 232.617 210.225 234.295 211.231L244.673 217.448C245.073 217.687 245.202 218.206 244.964 218.605C244.725 219.005 244.208 219.134 243.811 218.897L233.433 212.679C232.282 211.989 230.85 211.986 229.696 212.662L217.139 220.044C217.005 220.123 216.859 220.16 216.714 220.16Z" fill="#F0ECFF"/>
<path d="M198.906 259.631L129.031 219.178C126.602 217.772 126.906 215.315 129.711 213.691C132.517 212.068 136.76 211.891 139.189 213.297L209.064 253.751C211.493 255.157 211.189 257.614 208.384 259.238C205.578 260.862 201.335 261.038 198.906 259.631Z" fill="#D4ECFF"/>
<path d="M265.738 152.596C265.217 152.294 264.655 152.032 264.07 151.797L264.087 151.796L260.878 150.369L261.121 150.931C258.689 150.445 256.05 150.416 253.597 150.851L253.747 150.227L249.973 151.904L249.994 151.905C249.504 152.114 249.027 152.339 248.583 152.596C243.846 155.339 243.846 159.785 248.583 162.527C253.32 165.27 261.001 165.27 265.738 162.527C270.475 159.785 270.475 155.339 265.738 152.596Z" fill="#D4ECFF"/>
<path d="M261.18 155.186C258.961 156.471 255.362 156.471 253.141 155.186C250.922 153.901 250.922 151.817 253.141 150.532C255.361 149.247 258.96 149.247 261.18 150.532C263.4 151.817 263.4 153.901 261.18 155.186Z" fill="#5793CE"/>
<path d="M257.161 153.746C256.093 153.746 255.229 152.878 255.229 151.808V127.313H259.093V151.808C259.093 152.878 258.228 153.746 257.161 153.746Z" fill="#5793CE"/>
<path d="M258.52 128.202C257.749 128.648 256.5 128.648 255.731 128.202C254.96 127.756 254.96 127.033 255.731 126.587C256.501 126.14 257.75 126.14 258.52 126.587C259.29 127.033 259.29 127.756 258.52 128.202Z" fill="#5793CE"/>
<path d="M257.161 128.154C256.295 128.154 255.595 127.45 255.595 126.583V103.557H258.728V126.583C258.727 127.451 258.026 128.154 257.161 128.154Z" fill="#D4ECFF"/>
<path d="M279.685 115.622V114.721L280.955 114.537L282.377 113.47C282.607 113.297 283.047 113.281 283.314 113.435L284.364 114.042L285.403 113.891V114.805L285.399 114.806C285.393 114.909 285.316 115.012 285.16 115.081L281.848 116.56C281.585 116.677 281.215 116.663 280.98 116.528L279.877 115.89C279.75 115.816 279.69 115.719 279.69 115.621L279.685 115.622Z" fill="#396CAA"/>
<path d="M279.822 114.479L282.377 112.562C282.607 112.389 283.047 112.373 283.314 112.528L285.221 113.632C285.487 113.786 285.459 114.041 285.16 114.174L281.848 115.653C281.585 115.77 281.214 115.756 280.98 115.621L279.877 114.983C279.643 114.846 279.62 114.631 279.822 114.479Z" fill="#5793CE"/>
<path d="M275.511 118.828C275.877 118.828 276.242 118.744 276.534 118.575L280.505 116.275C280.724 116.148 280.8 115.867 280.673 115.647C280.545 115.428 280.266 115.352 280.046 115.479L276.076 117.778C275.781 117.949 275.242 117.949 274.946 117.778L268.347 113.945C268.13 113.817 267.848 113.893 267.721 114.114C267.594 114.333 267.669 114.615 267.889 114.741L274.489 118.574C274.779 118.744 275.145 118.828 275.511 118.828Z" fill="#D4ECFF"/>
<path d="M237.328 110.404L243.705 106.687L240.132 105.069L237.076 107.243L237.328 110.404Z" fill="url(#paint0_radial_1_7399)"/>
<path d="M278.275 104.888C277.923 104.703 277.564 104.484 277.202 104.218L263.615 94.2332C261.162 92.4299 258.635 91.9652 256.682 92.9588C256.632 92.9849 256.588 93.0203 256.539 93.0482L256.524 93.0439L237.758 103.961L239.444 104.524L246.016 107.512L254.957 113.872L262.013 117.627L262.333 117.695C263.978 116.306 265.82 115.114 266.83 113.088C268.577 110.022 273.441 109.145 276.302 106.659C276.59 106.843 276.879 107.015 277.167 107.164C277.759 106.582 277.918 105.753 278.275 104.888Z" fill="#5793CE"/>
<path d="M284.236 100.385C283.945 100.385 283.68 100.487 283.466 100.654L283.463 100.65L265.099 111.309L265.77 114.063L266.459 113.733C265.408 115.378 263.795 116.46 262.333 117.694L264.409 118.135L282.395 107.641C282.478 107.605 282.563 107.575 282.644 107.533C282.89 107.409 283.119 107.258 283.336 107.091L283.367 107.073L283.355 107.074C284.724 106.014 285.497 104.17 285.497 101.866V101.65C285.497 100.951 284.932 100.385 284.236 100.385Z" fill="#396CAA"/>
<path d="M259.087 92.4495C260.233 92.4909 261.462 92.8864 262.692 93.6193C261.462 92.8856 260.234 92.4909 259.087 92.4495Z" fill="#EAEAEA"/>
<path d="M267.451 112.167V111.951C267.451 111.252 266.886 110.686 266.189 110.686C265.492 110.686 264.928 111.252 264.928 111.951V112.167C264.928 113.859 264.391 115.102 263.456 115.577C262.398 116.113 260.792 115.718 259.158 114.517L245.57 104.533C243.479 102.996 241.337 102.442 239.541 102.924L250.763 96.3948L237.759 103.959L239.446 104.522L246.017 107.51L254.958 113.87L262.014 117.625L262.335 117.694C263.98 116.305 265.822 115.112 266.832 113.086C267.006 112.781 267.218 112.502 267.448 112.238C267.448 112.213 267.451 112.191 267.451 112.167Z" fill="#5793CE"/>
<path d="M262.006 118.755C260.519 118.756 258.882 118.149 257.277 116.969L243.689 106.984C242.055 105.784 240.449 105.389 239.39 105.925C238.454 106.401 237.918 107.643 237.918 109.335C237.918 110.033 237.353 110.601 236.655 110.601C235.958 110.601 235.394 110.034 235.394 109.335C235.394 106.655 236.434 104.59 238.248 103.668C240.2 102.677 242.727 103.141 245.18 104.943L258.769 114.928C260.403 116.129 262.01 116.522 263.067 115.986C264.002 115.511 264.539 114.268 264.539 112.576V112.36C264.539 111.662 265.104 111.095 265.8 111.095C266.498 111.095 267.062 111.662 267.062 112.36V112.576C267.062 115.256 266.021 117.321 264.207 118.243C263.534 118.586 262.791 118.755 262.006 118.755Z" fill="#D4ECFF"/>
<path d="M251.327 141.078C251.327 141.078 248.767 139.784 247.196 141.711C245.625 143.638 243.377 148.186 243.308 151.261C243.239 154.334 245.734 154.126 247.218 153.399C248.702 152.672 253.034 146.369 253.297 145.134C253.559 143.899 252.987 142.229 252.571 141.902C252.153 141.576 251.327 141.078 251.327 141.078Z" fill="#173D7A"/>
<path d="M251.886 140.46L252.005 143.118C252.03 143.683 251.746 144.222 251.255 144.501C250.809 144.755 250.159 144.951 249.281 144.809C247.353 144.499 247.181 143.946 247.044 141.288C246.906 138.63 251.886 140.46 251.886 140.46Z" fill="#5793CE"/>
<path d="M241.96 135.966C241.96 135.966 239.4 134.673 237.829 136.599C236.258 138.526 234.01 143.075 233.941 146.149C233.872 149.222 236.367 149.015 237.851 148.288C239.335 147.56 243.667 141.257 243.929 140.022C244.192 138.788 243.62 137.118 243.204 136.79C242.786 136.464 241.96 135.966 241.96 135.966Z" fill="#173D7A"/>
<path d="M242.519 135.35L242.637 138.008C242.663 138.573 242.379 139.112 241.888 139.391C241.441 139.645 240.792 139.841 239.914 139.699C237.986 139.389 237.814 138.836 237.677 136.178C237.539 133.52 242.519 135.35 242.519 135.35Z" fill="#5793CE"/>
<path d="M265.353 86.5377C264.596 74.1799 252.007 88.3561 252.007 88.3561L243.391 96.8249L235.631 105.372C234.116 107.041 233.411 109.295 233.704 111.533L236.844 135.499C236.998 136.682 238.008 137.555 239.199 137.546C239.535 137.543 239.92 137.513 240.361 137.444C243.161 137.007 242.954 134.337 242.954 134.337L242.38 111.922L258.675 102.073C258.675 102.073 266.11 98.8954 265.353 86.5377Z" fill="#0EDEFF"/>
<path d="M274.721 91.2456C273.964 78.8879 261.374 93.064 261.374 93.064L252.758 101.533L244.999 110.08C243.484 111.749 242.778 114.003 243.072 116.241L246.211 140.207C246.365 141.39 247.376 142.263 248.566 142.254C248.902 142.251 249.287 142.22 249.728 142.152C252.528 141.715 252.321 139.045 252.321 139.045L251.748 116.63L268.042 106.781C268.042 106.781 275.478 103.603 274.721 91.2456Z" fill="#0EDEFF"/>
<path d="M267.273 51.5763C276.817 55.5446 276.626 61.2014 276.626 61.2014C276.626 61.2014 274.756 81.9418 275.395 95.7941C275.661 101.584 244.714 102.026 249.329 86.5781C254.771 68.3628 252.731 53.6173 255.278 51.3932C257.826 49.1692 264.804 50.5507 267.273 51.5763Z" fill="#F0ECFF"/>
<path d="M270.326 56.5842C270.825 54.6409 269.095 52.5143 266.462 51.8344C263.829 51.1544 261.29 52.1785 260.791 54.1218C260.292 56.0651 262.022 58.1917 264.655 58.8716C267.288 59.5516 269.827 58.5274 270.326 56.5842Z" fill="#FFC2B0"/>
<path d="M266.302 59.5485C265.729 59.5485 265.142 59.4743 264.56 59.3233C263.193 58.9699 262.005 58.2404 261.214 57.2671C260.39 56.255 260.09 55.1003 260.368 54.0157C260.93 51.8312 263.723 50.6606 266.595 51.3994C267.962 51.7528 269.149 52.4824 269.941 53.4557C270.764 54.4678 271.064 55.6224 270.786 56.707C270.508 57.7908 269.688 58.657 268.48 59.1445C267.814 59.4136 267.072 59.5485 266.302 59.5485ZM264.848 52.0902C263.075 52.0902 261.595 52.9167 261.252 54.246C261.048 55.0405 261.285 55.9092 261.921 56.6902C262.59 57.5125 263.607 58.1333 264.787 58.4377C265.967 58.7431 267.157 58.6908 268.138 58.296C269.071 57.9199 269.698 57.2747 269.902 56.4802C270.106 55.6857 269.869 54.8161 269.233 54.0351C268.565 53.2128 267.547 52.592 266.367 52.2875C265.851 52.1534 265.338 52.0902 264.848 52.0902Z" fill="white"/>
<path d="M263.447 51.1449C263.447 51.1449 263.529 51.5286 263.364 54.5616C263.312 55.5146 266.641 56.4053 267.503 55.5424C268.363 54.6796 268.019 53.7822 268.225 50.5376C268.431 47.2921 263.447 51.1449 263.447 51.1449Z" fill="#FFC2B0"/>
<path d="M268.224 50.5373C268.224 50.5373 267.403 53.5458 263.362 54.6996L263.423 51.9652L268.224 50.5373Z" fill="#EA9C92"/>
<path d="M270.784 42.8932C271.799 46.8328 269.438 50.8516 265.51 51.8697C261.581 52.8885 257.573 50.5202 256.558 46.5814C255.543 42.6418 257.904 38.6229 261.832 37.6049C265.761 36.5869 269.768 38.9544 270.784 42.8932Z" fill="#FFC2B0"/>
<path d="M265.359 45.0078C265.359 45.0078 261.314 46.7453 258.513 46.7655C255.712 46.7857 256.33 44.4335 256.33 44.4335L264.644 43.2282L265.359 45.0078Z" fill="#EA9C92"/>
<path d="M257.678 45.4652C257.678 45.4652 261.202 43.9656 264.293 44.5906C265.02 44.7374 265.693 45.127 266.161 45.7039C266.314 45.892 266.507 46.0641 266.726 46.1138C267.275 46.2378 268.172 43.9581 269.237 43.9058C270.303 43.8535 271.013 44.61 270.139 46.0126C269.265 47.4152 269.561 48.9848 269.963 49.21C270.365 49.4352 274.628 46.1611 270.868 38.6901C267.107 31.2199 257.554 35.243 256.069 36.757C256.069 36.757 254.503 38.1241 253.231 36.9071C253.231 36.9071 251.804 47.6261 257.678 45.4652Z" fill="#FDD762"/>
<path d="M271.273 76.3544V81.9589C271.273 82.6008 271.003 83.2139 270.53 83.6466L259.048 94.1429L260.353 96.1435L275.515 85.1167C276.222 84.6022 276.679 83.8102 276.771 82.9381L277.796 73.1646L271.273 76.3544Z" fill="#FFC2B0"/>
<path d="M275.818 58.3998C275.818 58.3998 279.301 63.6526 280.599 77.4788C280.599 77.4788 274.649 79.4085 271.272 78.3129C267.895 77.2182 275.818 58.3998 275.818 58.3998Z" fill="#F0ECFF"/>
<path d="M270.637 65.0417C270.637 65.0417 269.273 72.3601 269.196 75.7995C269.175 76.745 269.75 77.5985 270.637 77.9199V65.0417Z" fill="#D6BCE6"/>
<path d="M267.657 101.43L265.12 101.094L248.739 91.6104C248.214 91.306 247.297 91.3448 246.69 91.6956L235.083 98.4134L233.549 98.2102V99.7418H233.551C233.54 99.9434 233.655 100.137 233.903 100.281L252.468 111.028C252.993 111.332 253.91 111.294 254.517 110.943L267.158 103.627C267.499 103.43 267.669 103.175 267.659 102.937V101.43H267.657Z" fill="#173D7A"/>
<path d="M255.35 95.4379L254.186 94.764H241.391L235.083 98.4135L233.549 98.2102V99.7418H233.55C233.54 99.9434 233.655 100.137 233.903 100.281L252.468 111.028C252.745 111.189 253.132 111.254 253.525 111.227L255.35 95.4379Z" fill="#396CAA"/>
<path d="M234.229 98.3004L233.547 98.2101V99.7418H233.549C233.539 99.9434 233.653 100.137 233.901 100.281L234.229 100.471V98.3004Z" fill="#5793CE"/>
<path d="M252.653 111.116C253.151 111.305 253.862 111.265 254.394 111.008V108.402H252.653V111.116Z" fill="#274F89"/>
<path d="M252.466 109.498L233.902 98.7506C233.377 98.4462 233.442 97.9157 234.049 97.5648L246.69 90.249C247.296 89.8981 248.214 89.8602 248.739 90.1638L267.303 100.911C267.828 101.215 267.763 101.746 267.156 102.097L254.515 109.413C253.909 109.764 252.991 109.803 252.466 109.498Z" fill="white"/>
<path d="M252.153 107.87L236.717 98.9333C236.28 98.6803 236.335 98.2392 236.839 97.9474L243.613 94.1275C244.117 93.8357 244.88 93.8037 245.316 94.0567L260.752 102.994C261.189 103.247 261.134 103.688 260.63 103.98L253.856 107.799C253.352 108.091 252.589 108.122 252.153 107.87Z" fill="#D4ECFF"/>
<path d="M247.407 89.896L247.215 91.1805C247.051 92.2744 247.08 93.3894 247.298 94.4741L247.527 95.6059C247.656 96.2444 248.159 96.7395 248.799 96.8567C249.297 96.9478 249.769 96.5961 249.826 96.0909L250.132 93.3447C250.132 93.3447 250.832 94.2657 251.171 94.2657C251.509 94.2657 250.792 91.5162 250.028 89.9593C249.262 88.4023 247.407 89.896 247.407 89.896Z" fill="#FFC2B0"/>
<path d="M253.7 69.4822L251.709 73.4354C251.238 74.3699 250.96 75.3912 250.894 76.4362L250.029 89.9587L247.408 89.8963L246.219 74.7106C246.182 74.2417 246.204 73.7702 246.287 73.3072L247.645 65.6068L253.7 69.4822Z" fill="#FFC2B0"/>
<path d="M251.836 110.53L250.279 108.492L233.91 98.9888C233.385 98.6843 232.96 97.8679 232.961 97.1661L232.975 83.7271L232.034 82.4949L232.919 81.9812L232.92 81.9821C233.089 81.8724 233.314 81.8758 233.562 82.0192L252.113 92.7896C252.638 93.0941 253.063 93.9105 253.062 94.6123L253.046 109.248C253.045 109.643 252.91 109.918 252.698 110.028L251.836 110.53Z" fill="#173D7A"/>
<path d="M240.518 102.824L239.354 102.149L232.97 91.0294L232.977 83.7271L232.036 82.4949L232.921 81.9812L232.922 81.9821C233.091 81.8724 233.316 81.8758 233.563 82.0192L252.115 92.7896C252.392 92.9507 252.64 93.2552 252.814 93.6094L240.518 102.824Z" fill="#396CAA"/>
<path d="M232.454 83.0431L232.036 82.4965L232.921 81.9829L232.922 81.9837C233.091 81.8741 233.316 81.8775 233.563 82.0209L233.891 82.2106L232.454 83.0431Z" fill="#5793CE"/>
<path d="M252.283 92.9091C252.695 93.2473 253.014 93.8866 253.057 94.4762L251.245 95.5254L250.376 94.0123L252.283 92.9091Z" fill="#274F89"/>
<path d="M251.23 93.3027L232.679 82.5323C232.154 82.2278 231.727 82.55 231.727 83.2517L231.711 97.8875C231.71 98.5901 232.135 99.4057 232.659 99.7101L251.211 110.481C251.736 110.785 252.161 110.463 252.163 109.761L252.179 95.1253C252.18 94.4236 251.755 93.6072 251.23 93.3027Z" fill="#5793CE"/>
<path d="M260.352 96.1443L260.055 96.7617C259.712 97.4727 259.174 98.0707 258.504 98.4857L256.661 99.6251C256.087 99.9794 255.361 100.009 254.78 99.669C254.759 99.6572 254.738 99.6445 254.717 99.631C254.132 99.2633 254.079 98.4199 254.561 97.9231L256.486 95.9377C256.486 95.9377 255.404 96.7693 255.101 96.4345C254.879 96.189 256.149 94.9922 257.126 94.9526C258.102 94.9138 259.046 94.1446 259.046 94.1446L260.352 96.1443Z" fill="#FFC2B0"/>
<path d="M255.47 51.3643C255.47 51.3643 248.41 59.0663 245.562 66.1317C245.562 66.1317 247.976 70.493 253.885 72.2043C259.794 73.9156 255.47 51.3643 255.47 51.3643Z" fill="#F0ECFF"/>
<path d="M252.555 71.7466L253.699 60.6632L251.003 71.0474C251.484 71.2987 252.004 71.5323 252.555 71.7466Z" fill="#D6BCE6"/>
<path d="M260.756 49.8099L258.859 49.287C258.859 49.287 259.765 50.7157 261.087 51.0792C262.409 51.4436 262.615 50.321 262.615 50.321L260.756 49.8099Z" fill="white"/>
<path d="M211.557 45.3212L136.268 1.72497C133.794 0.292849 131.547 0.256582 129.848 1.33194L129.844 1.31423L120.398 6.80066L126.733 7.98566C126.713 8.31122 126.694 8.63762 126.694 8.98174V187.049C126.694 194.119 130.981 202.331 136.269 205.392L210.5 248.376C209.824 250.502 208.385 254.975 208.385 254.975L217.623 249.602L217.621 249.601C219.763 248.494 221.131 245.721 221.131 241.73V63.6647C221.131 56.5952 216.844 48.3828 211.557 45.3212Z" fill="#F0ECFF"/>
<path d="M282.328 198.185L271.02 191.638L259.712 198.185L271.02 204.732L282.328 198.185Z" fill="#D4ECFF"/>
<path d="M271.021 198.659V191.282L284.531 183.461V190.838L271.021 198.659Z" fill="#3E80F1"/>
<path d="M271.02 191.282L257.51 183.461V190.838L271.02 198.659V191.282Z" fill="#3E80F1"/>
<path d="M284.531 183.462L271.02 175.64L257.51 183.462L271.02 191.283L284.531 183.462Z" fill="#13FFE2"/>
<path d="M237.662 98.2862C237.662 99.4451 236.85 99.9157 235.849 99.3354C234.848 98.756 234.037 97.3458 234.037 96.187C234.037 95.0281 234.848 94.5575 235.849 95.1378C236.85 95.7172 237.662 97.1274 237.662 98.2862Z" fill="white"/>
<path d="M218.607 197.457C218.316 197.457 218.032 197.305 217.878 197.034C217.646 196.63 217.784 196.115 218.186 195.883L249.935 177.552C250.22 177.387 250.25 177.114 250.25 177.005C250.25 176.897 250.219 176.624 249.935 176.46L233.131 166.783C230.699 165.384 229.19 162.767 229.19 159.956V104.515C229.19 102.079 230.389 99.8073 232.398 98.4368L234.921 96.7154C235.305 96.4531 235.828 96.5543 236.09 96.9389C236.352 97.3243 236.251 97.8489 235.867 98.1112L233.344 99.8326C231.795 100.888 230.872 102.639 230.872 104.516V159.956C230.872 162.165 232.059 164.222 233.97 165.321L250.773 174.998C251.498 175.415 251.932 176.166 251.933 177.005C251.933 177.844 251.501 178.595 250.776 179.014L219.027 197.345C218.894 197.42 218.749 197.457 218.607 197.457Z" fill="#F0ECFF"/>
<path d="M126.694 187.05C126.694 194.119 130.98 202.332 136.268 205.393L210.499 248.377C209.823 250.504 208.385 254.976 208.385 254.976L217.623 249.603L217.62 249.603C219.762 248.495 221.13 245.723 221.13 241.731V63.6644C221.13 59.9761 219.957 55.9834 218.09 52.5667L126.693 105.48V187.05H126.694Z" fill="#D6BCE6"/>
<path d="M202.06 254.507L126.77 210.911C121.483 207.85 117.196 199.637 117.196 192.568V14.501C117.196 7.43148 121.482 4.18264 126.77 7.2434L202.06 50.8397C207.347 53.9013 211.634 62.1136 211.634 69.1832V247.25C211.634 254.319 207.347 257.569 202.06 254.507Z" fill="#F0ECFF"/>
<path d="M129.646 63.0152L123.818 58.9938L121.541 51.5059L119.264 56.3573L117.189 55.3865V59.51L117.857 60.5566L117.189 63.5314V66.3678L121.541 65.7892L126.55 72.2548L125.225 64.8226L129.646 63.0152Z" fill="#D6BCE6"/>
<path d="M200.657 248.611L128.313 206.72C124.382 204.444 121.196 198.34 121.196 193.086V17.5478C121.196 12.2933 124.382 9.87778 128.313 12.1533L200.657 54.045C204.587 56.3206 207.773 62.4244 207.773 67.6789V243.217C207.773 248.471 204.587 250.886 200.657 248.611Z" fill="#8C75D0"/>
<path d="M171.064 194.699L135.552 174.141V87.5784L152.284 97.2651C163.904 103.993 171.064 116.427 171.064 129.882V194.699Z" fill="#EDEDED"/>
<path d="M122.857 79.2044L122.861 79.2111C119.277 77.0714 114.297 77.3345 108.797 80.5184C97.9089 86.8221 89.0504 102.207 89.0504 114.814V123.912L89.4247 124.132L125.001 145.118L125.54 134.231L125.984 130.003L127.871 123.439L128.087 122.435L132.132 114.26L135.319 110.269L137.902 107.181L144.195 102.212L144.748 101.8L147.842 100.464L152.003 99.3798H155.249L158.879 100.017L122.857 79.2044Z" fill="#D4ECFF"/>
<path d="M127.391 163.345L128.544 162.677V121.228C127.945 122.046 127.665 123.096 127.391 124.162V163.345Z" fill="#D4ECFF"/>
<path d="M163.341 184.115L127.391 163.345L127.762 124.107L129.135 120.144L133.296 112.967L138.219 107.112L142.658 103.551L147.456 100.631L156.163 99.6303L160.768 102.245L163.341 106.195L164.152 112.258L163.875 177.847L163.341 184.115Z" fill="#D4ECFF"/>
<path d="M122.861 79.2105C119.863 77.42 115.885 77.3196 111.445 79.1979L148.074 100.404L152.003 99.38H155.248L158.878 100.018L122.857 79.2046L122.861 79.2105Z" fill="#5793CE"/>
<path d="M112.308 78.856C111.168 79.2777 109.996 79.8251 108.797 80.5184C107.995 80.9823 107.206 81.501 106.429 82.0593L142.943 103.199L144.193 102.212L144.746 101.8L147.841 100.464L149.076 100.142L112.308 78.856Z" fill="#E9F6FF"/>
<path d="M138.209 106.938L143.177 103.015L106.674 81.8821C105.021 83.0444 103.429 84.4082 101.923 85.9297L138.209 106.938Z" fill="white"/>
<path d="M164.494 183.448L163.341 184.115V113.387C163.341 101.516 155 96.687 144.748 102.623C134.495 108.558 126.154 123.046 126.154 134.916V144.451L125.001 145.119V135.583C125.001 122.976 133.859 107.591 144.748 101.287C155.636 94.9833 164.494 100.111 164.494 112.719V183.448Z" fill="#5793CE"/>
<path d="M99.9533 108.051L97.9296 116.347L98.9414 129.748L96.3761 128.235L93.0933 120.95L95.9673 111.743L99.9533 108.051Z" fill="#AEDEED"/>
<path opacity="0.4" d="M158.775 161.138C158.557 161.138 158.329 161.071 158.101 160.94L131.958 145.805C131.189 145.36 130.585 144.221 130.585 143.212V122.585C130.585 121.979 130.808 121.502 131.197 121.277C131.543 121.076 131.963 121.098 132.378 121.339L158.521 136.474C159.291 136.918 159.895 138.058 159.895 139.067V159.693C159.895 160.3 159.671 160.776 159.281 161.002C159.126 161.093 158.954 161.138 158.775 161.138ZM131.708 121.985C131.676 121.985 131.645 121.992 131.619 122.006C131.531 122.058 131.428 122.24 131.428 122.585V143.211C131.428 143.922 131.864 144.776 132.38 145.073L158.524 160.209C158.591 160.247 158.757 160.329 158.864 160.271C158.952 160.22 159.056 160.038 159.056 159.693V139.067C159.056 138.356 158.619 137.502 158.103 137.204L131.96 122.068C131.909 122.039 131.802 121.985 131.708 121.985Z" fill="white"/>
<path d="M140.075 146.645L139.891 146.539C139.21 146.144 138.657 145.085 138.657 144.174V134.345C138.657 133.434 139.21 133.015 139.891 133.41L140.075 133.516C140.757 133.911 141.309 134.969 141.309 135.88V145.709C141.309 146.62 140.757 147.04 140.075 146.645Z" fill="#B2D3EA"/>
<path d="M145.332 149.688L145.148 149.582C144.467 149.187 143.914 148.129 143.914 147.218V141.465C143.914 140.554 144.467 140.135 145.148 140.53L145.332 140.636C146.014 141.031 146.566 142.089 146.566 143V148.753C146.566 149.664 146.014 150.083 145.332 149.688Z" fill="#B2D3EA"/>
<path d="M150.591 152.733L150.407 152.627C149.725 152.232 149.173 151.174 149.173 150.263V136.569C149.173 135.658 149.725 135.239 150.407 135.634L150.591 135.74C151.272 136.135 151.825 137.193 151.825 138.104V151.798C151.826 152.709 151.273 153.128 150.591 152.733Z" fill="#396CAA"/>
<path d="M108.489 258.37C120.912 258.37 130.982 252.54 130.982 245.348C130.982 238.157 120.912 232.327 108.489 232.327C96.0669 232.327 85.9966 238.157 85.9966 245.348C85.9966 252.54 96.0669 258.37 108.489 258.37Z" fill="#D4ECFF"/>
<path d="M94.7075 238.446C93.1405 239.117 92.1547 240.869 92.2851 242.751C92.3465 243.639 92.4533 244.467 92.6384 244.856C93.1371 245.905 94.7714 247.346 97.3796 246.313C99.9879 245.279 105.781 239.821 105.998 236.249C106.4 229.613 98.8331 236.679 94.7075 238.446Z" fill="#173D7A"/>
<path d="M110.033 249.421C110.033 249.421 109.407 253.247 109.711 253.949C110.015 254.649 111.831 256.146 114.512 255.823C117.194 255.499 124.91 252.831 126.629 247.733C129.292 239.828 111.735 248.325 111.735 248.325L110.033 249.421Z" fill="#173D7A"/>
<path d="M117.571 188.258L118.168 247.985C118.106 250.062 116.748 251.817 114.923 252.125C114.698 252.163 114.456 252.195 114.198 252.217C112.35 252.379 111.274 251.585 110.66 250.75C110.162 250.073 109.9 249.216 109.863 248.339L109.103 222.842L105.307 200.045L100.055 240.393C99.9708 241.484 99.4493 242.493 98.6116 243.049C98.0329 243.434 97.2474 243.732 96.217 243.701C94.714 243.655 93.6702 242.849 93.0326 242.128C92.5279 241.557 92.2622 240.773 92.2722 239.968L94.354 215.692L95.1286 184.728L117.571 188.258Z" fill="#0EDEFF"/>
<path d="M109.859 134.793L108.917 140.236C108.917 140.236 108.881 142.093 110.949 142.608C113.016 143.122 113.655 141.784 113.655 141.784L114.591 135.654L109.859 134.793Z" fill="#FFC2B0"/>
<path d="M121.254 131.813C119.786 136.475 115.243 139.181 111.109 137.857C106.973 136.533 104.81 131.679 106.278 127.017C107.746 122.354 112.289 119.648 116.423 120.973C120.559 122.298 122.722 127.151 121.254 131.813Z" fill="#FFC2B0"/>
<path d="M110.103 140.336C109.96 140.278 101.33 134.706 98.1406 140.537C92.9401 150.044 96.7435 160.944 94.8881 184.611C94.5777 188.572 100.203 190.985 102.863 192.508C105.229 193.863 107.877 194.694 110.602 194.716C113.299 194.738 118.47 192.333 118.282 188.799C117.419 172.541 118.852 158.836 120.176 145.539C120.176 145.539 118.522 143.753 110.103 140.336Z" fill="#983BE9"/>
<path d="M105.306 200.045L100.055 240.392C99.9705 241.483 99.449 242.492 98.6113 243.049C98.4742 243.14 98.3236 243.224 98.163 243.303C99.253 242.483 102.437 208.617 103.025 204.85C103.615 201.08 105.306 200.045 105.306 200.045Z" fill="#D8892B"/>
<path d="M138.083 145.261L145.308 130.882L143.042 129.446L135.554 140.4L138.083 145.261Z" fill="#FFC2B0"/>
<path d="M90.4304 129.994L93.9454 113.962L96.7437 113.992L95.6932 127.288L90.4304 129.994Z" fill="#FFC2B0"/>
<path d="M120.178 145.541C120.178 145.541 128.258 148.737 135.202 139.955C135.813 139.182 137.07 139.268 137.431 140.102C138.056 141.541 138.838 143.716 137.89 145.757C133.694 154.787 119.376 154.473 115.927 159.535C112.477 164.597 120.178 145.541 120.178 145.541Z" fill="#983BE9"/>
<path d="M104.631 138.339C104.631 138.339 97.9591 138.853 96.9986 133.062C96.504 130.081 96.3551 128.299 96.3274 127.273C96.3089 126.578 95.7067 126.052 95.0195 126.138C93.4214 126.337 90.9477 126.815 90.6121 127.889C90.1108 129.492 89.1688 137.355 95.7588 149.421C100.076 157.327 104.631 138.339 104.631 138.339Z" fill="#983BE9"/>
<path d="M93.9312 114.001L93.9951 112.173C94.0178 111.528 94.2054 110.899 94.5401 110.347L96.388 107.303L96.87 106.694C97.3149 106.132 98.1106 105.996 98.717 106.378L99.1418 106.646C99.6834 106.988 99.9955 107.6 99.9543 108.24L98.998 110.842L100.207 110.607C100.441 110.561 100.668 110.717 100.71 110.953C100.747 111.154 100.637 111.352 100.449 111.428L98.4748 112.227L96.6815 114.772L93.9312 114.001Z" fill="#FFC2B0"/>
<path d="M145.361 130.974L146.206 129.353C146.505 128.781 146.651 128.141 146.632 127.496L146.525 123.934L146.407 123.166C146.296 122.456 145.672 121.943 144.957 121.976L144.455 121.998C143.816 122.027 143.243 122.404 142.963 122.982L142.512 125.717L141.577 124.914C141.395 124.758 141.121 124.781 140.968 124.965C140.838 125.122 140.835 125.348 140.961 125.509L142.284 127.181L142.626 130.666L145.361 130.974Z" fill="#FFC2B0"/>
<path d="M114.907 157.723C114.205 160.934 118.436 185.157 113.731 194.016C116.084 193.06 118.409 191.19 118.283 188.799C117.665 177.173 118.225 166.855 119.076 157.056C123.099 155.012 129.385 153.793 133.831 150.528C129.064 152.289 115.535 154.856 114.907 157.723Z" fill="#721BD5"/>
<path d="M107.001 138.799L108.199 137.564C108.199 137.564 110.17 139.584 111.753 139.934C111.753 139.934 113.659 140.476 114.59 140.522L115.362 142.655C115.362 142.655 109.086 142.205 107.001 138.799Z" fill="white"/>
<path d="M115.625 131.959C115.956 131.953 116.263 131.802 116.451 131.53C116.779 131.054 116.571 128.868 117.581 128.507C119.158 127.942 122.902 129.922 123.302 124.214C123.509 121.247 122.069 120.459 122.076 118.833C122.076 118.833 122.201 119.647 114.588 119.141C106.975 118.633 104.5 125.412 104.319 128.641C104.139 131.869 105.697 137.179 110.901 137.907C111.763 138.028 115.387 135.106 115.293 134.724C115.199 134.341 113.832 134.362 114.029 133.247C114.194 132.317 114.759 131.975 115.625 131.959Z" fill="#173D7A"/>
<path d="M154.676 63.0118L131.673 49.6942C130.651 49.1021 129.823 47.5148 129.823 46.1485V28.9967C129.823 27.6304 130.651 27.0021 131.673 27.5941L154.676 40.9117C155.698 41.5038 156.527 43.0911 156.527 44.4574V61.6092C156.527 62.9755 155.698 63.6039 154.676 63.0118Z" fill="#EDEDED"/>
<path d="M152.401 35.8029L129.398 22.4853C128.943 22.2213 128.531 22.212 128.208 22.39C128.208 22.3883 128.21 22.3748 128.21 22.3748L125.979 23.6678C125.979 23.6678 126.967 24.0288 127.546 24.2421V41.0397C127.546 42.406 128.375 43.9941 129.397 44.5854L151.383 57.3142V59.2853L153.637 57.9839L153.625 57.9797C154.006 57.7469 154.25 57.2358 154.25 56.5003V39.3494C154.251 37.9823 153.423 36.395 152.401 35.8029Z" fill="#721BD5"/>
<path d="M150.128 59.2164L127.125 45.8989C126.103 45.3068 125.274 43.7195 125.274 42.3531V25.2014C125.274 23.8351 126.102 23.2067 127.125 23.7988L150.128 37.1164C151.15 37.7084 151.979 39.2957 151.979 40.6621V57.8138C151.979 59.1802 151.151 59.8085 150.128 59.2164Z" fill="#983BE9"/>
<path d="M150.128 37.1165L127.125 23.7989C126.544 23.4624 126.031 23.5316 125.693 23.8951C125.94 23.8749 126.215 23.9331 126.509 24.1034L149.512 37.421C150.534 38.0122 151.363 39.6004 151.363 40.9667V58.1176C151.363 58.7072 151.202 59.1483 150.945 59.4249C151.556 59.3743 151.979 58.7856 151.979 57.8131V40.6622C151.979 39.2951 151.151 37.7077 150.128 37.1165Z" fill="white"/>
<path d="M134.861 39.9889C134.861 40.9816 134.167 41.3839 133.31 40.8871C132.452 40.3904 131.758 39.1843 131.758 38.1916C131.758 37.1989 132.452 36.7966 133.31 37.2933C134.167 37.7901 134.861 38.9962 134.861 39.9889Z" fill="white"/>
<path d="M139.563 42.7103C139.563 43.703 138.868 44.1053 138.011 43.6085C137.154 43.1126 136.459 41.9056 136.459 40.9129C136.459 39.9202 137.154 39.5179 138.011 40.0147C138.868 40.5106 139.563 41.7176 139.563 42.7103Z" fill="white"/>
<path d="M144.265 45.4332C144.265 46.4259 143.57 46.8282 142.713 46.3315C141.856 45.8347 141.161 44.6286 141.161 43.6359C141.161 42.6432 141.856 42.2409 142.713 42.7377C143.57 43.2336 144.265 44.4405 144.265 45.4332Z" fill="white"/>
<path d="M200.453 153.548L177.45 140.23C176.428 139.638 175.598 138.051 175.598 136.685V98.0849C175.598 96.7185 176.427 96.0902 177.45 96.6814L200.453 109.999C201.475 110.591 202.303 112.178 202.303 113.545V152.145C202.304 153.512 201.476 154.14 200.453 153.548Z" fill="#EDEDED"/>
<path d="M198.178 104.891L175.175 91.5731C174.72 91.3091 174.309 91.2998 173.986 91.4778C173.986 91.4761 173.987 91.4626 173.987 91.4626L171.756 92.7555C171.756 92.7555 172.744 93.1165 173.324 93.3299V131.576C173.324 132.943 174.152 134.531 175.175 135.122L197.161 147.851V149.822L199.415 148.521L199.404 148.516C199.785 148.284 200.029 147.773 200.029 147.037V108.437C200.029 107.07 199.2 105.483 198.178 104.891Z" fill="#5793CE"/>
<path d="M195.905 149.753L172.902 136.435C171.88 135.843 171.051 134.256 171.051 132.889V94.2895C171.051 92.9232 171.88 92.2948 172.902 92.8861L195.905 106.204C196.927 106.796 197.756 108.383 197.756 109.749V148.349C197.756 149.716 196.928 150.345 195.905 149.753Z" fill="#D4ECFF"/>
<path d="M195.906 106.204L172.902 92.8867C172.321 92.5502 171.809 92.6194 171.47 92.9829C171.717 92.9626 171.992 93.0208 172.287 93.1912L195.29 106.509C196.312 107.101 197.14 108.688 197.14 110.054V148.654C197.14 149.244 196.98 149.685 196.722 149.962C197.333 149.911 197.757 149.322 197.757 148.35V109.75C197.756 108.384 196.928 106.796 195.906 106.204Z" fill="white"/>
<path d="M200.453 205.7L177.45 192.382C176.428 191.79 175.598 190.203 175.598 188.837V150.237C175.598 148.87 176.427 148.242 177.45 148.833L200.453 162.151C201.475 162.743 202.303 164.33 202.303 165.697V204.296C202.304 205.664 201.476 206.291 200.453 205.7Z" fill="#EDEDED"/>
<path d="M198.178 157.042L175.175 143.725C174.72 143.462 174.309 143.451 173.986 143.629C173.986 143.628 173.987 143.614 173.987 143.614L171.756 144.907C171.756 144.907 172.744 145.268 173.324 145.482V183.728C173.324 185.095 174.152 186.683 175.175 187.274L197.161 200.003V201.974L199.415 200.672L199.404 200.668C199.785 200.435 200.029 199.924 200.029 199.189V160.589C200.029 159.222 199.2 157.634 198.178 157.042Z" fill="#D6BCE6"/>
<path d="M195.905 201.904L172.902 188.587C171.88 187.995 171.051 186.408 171.051 185.041V146.441C171.051 145.075 171.88 144.447 172.902 145.038L195.905 158.355C196.927 158.948 197.756 160.535 197.756 161.901V200.501C197.756 201.868 196.928 202.496 195.905 201.904Z" fill="#F0ECFF"/>
<path d="M195.906 158.356L172.902 145.039C172.321 144.702 171.809 144.771 171.47 145.135C171.717 145.115 171.992 145.173 172.287 145.343L195.29 158.661C196.312 159.253 197.14 160.84 197.14 162.206V200.806C197.14 201.396 196.98 201.837 196.722 202.114C197.333 202.063 197.757 201.474 197.757 200.502V161.902C197.756 160.536 196.928 158.947 195.906 158.356Z" fill="white"/>
<path d="M46.088 222.471L66.3046 211.048C67.2029 210.54 68.7623 210.621 69.7868 211.229L82.6489 218.857C83.6742 219.465 83.776 220.369 82.8777 220.877L62.661 232.3C61.7627 232.808 60.2033 232.727 59.1788 232.119L46.3167 224.491C45.2923 223.883 45.1897 222.979 46.088 222.471Z" fill="#D4ECFF"/>
<path d="M62.3696 226.555L85.5108 213.48C85.9683 213.221 86.187 212.871 86.1979 212.502C86.1996 212.503 86.2097 212.511 86.2097 212.511L86.2358 209.927C86.2358 209.927 85.4224 210.596 84.9447 210.988L70.5257 202.438C69.3524 201.742 67.5684 201.649 66.5397 202.23L44.4213 214.728L42.7299 213.724L42.6996 216.332L42.7097 216.324C42.7156 216.771 43.0301 217.242 43.661 217.617L58.3836 226.348C59.5569 227.043 61.3409 227.136 62.3696 226.555Z" fill="#3E80F1"/>
<path d="M43.4279 212.677L66.5691 199.601C67.5977 199.02 69.3817 199.113 70.555 199.808L85.2777 208.54C86.451 209.235 86.5679 210.27 85.5401 210.851L62.3989 223.927C61.3711 224.508 59.5863 224.415 58.4129 223.719L43.6903 214.988C42.517 214.292 42.4001 213.258 43.4279 212.677Z" fill="#13FFE2"/>
<path d="M62.3988 223.925L85.5391 210.85C86.1237 210.519 86.3255 210.042 86.1859 209.564C86.0774 209.789 85.8881 209.995 85.5912 210.163L62.45 223.239C61.4222 223.82 59.6374 223.727 58.4641 223.031L43.7415 214.301C43.2351 214.001 42.9382 213.638 42.8322 213.274C42.5648 213.827 42.8541 214.492 43.6893 214.987L58.4119 223.718C59.5861 224.413 61.3701 224.506 62.3988 223.925Z" fill="white"/>
<path d="M67.7038 209.286C66.8518 208.781 66.8602 207.976 67.7223 207.489C68.5844 207.001 69.9748 207.017 70.826 207.522C71.678 208.027 71.6696 208.832 70.8074 209.319C69.9453 209.807 68.5558 209.791 67.7038 209.286Z" fill="white"/>
<path d="M62.9742 211.959C62.1221 211.453 62.1306 210.649 62.9927 210.161C63.8548 209.674 65.2443 209.688 66.0963 210.193C66.9484 210.699 66.94 211.503 66.0778 211.991C65.2157 212.478 63.8262 212.464 62.9742 211.959Z" fill="white"/>
<path d="M58.2447 214.632C57.3926 214.127 57.4011 213.322 58.2632 212.835C59.1253 212.347 60.5148 212.362 61.3669 212.867C62.2189 213.373 62.2105 214.177 61.3483 214.665C60.4862 215.152 59.0959 215.137 58.2447 214.632Z" fill="white"/>
<path d="M26.7726 204.297C35.7073 204.297 42.9503 200.104 42.9503 194.931C42.9503 189.758 35.7073 185.565 26.7726 185.565C17.8379 185.565 10.5948 189.758 10.5948 194.931C10.5948 200.104 17.8379 204.297 26.7726 204.297Z" fill="#D4ECFF"/>
<path d="M17.6293 81.7108C17.6293 81.7108 18.0456 90.3094 18.6975 96.0877C19.3493 101.866 33.2292 91.6496 33.2292 91.6496V85.0701L17.6293 81.7108Z" fill="#6614CF"/>
<path d="M25.0207 188.691C25.2293 189.214 28.825 193.603 32.4207 194.7C33.9843 195.177 35.0357 195.239 35.7245 195.157C36.4159 195.074 36.8432 194.36 36.6102 193.702C35.9912 191.955 34.2173 188.317 29.7115 186.077C23.6135 183.046 25.0207 188.691 25.0207 188.691Z" fill="#173D7A"/>
<path d="M23.8225 190.377C23.8225 190.377 25.1775 193.565 25.5947 196.23C25.8487 197.856 24.9597 199.967 24.2262 201.367C23.7712 202.236 22.6189 202.431 21.8947 201.772C20.7197 200.703 19.2233 198.845 18.9761 196.178C18.5589 191.683 18.9761 190.9 18.9761 190.9L23.8225 190.377Z" fill="#173D7A"/>
<path d="M15.1601 136.056C15.1601 136.056 14.6908 141.725 15.1601 147.996C15.6295 154.267 17.3083 183.595 17.6212 190.65C17.6212 190.65 17.4648 192.786 21.5887 192.315C25.7126 191.845 25.3803 189.474 25.3803 189.474C25.3803 189.474 31.1713 189.395 31.3538 185.973C31.5364 182.55 37.2853 145.097 37.2853 131.632L15.1601 136.056Z" fill="#0EDEFF"/>
<path d="M39.4266 106.743L42.2645 111.15L52.017 122.963C52.017 122.963 51.6814 124.059 50.4677 124.346C49.5189 124.57 41.3165 116.722 37.7738 113.279C36.8326 112.364 36.6762 110.908 37.3995 109.812L39.4266 106.743Z" fill="#FFC2B0"/>
<path d="M33.8911 88.656C33.8911 88.656 38.3986 88.5387 39.9672 95.071C41.5359 101.603 42.7639 109.782 41.3988 110.462C37.3026 112.502 34.7103 110.114 34.7103 110.114L33.8911 88.656Z" fill="#8A2AE3"/>
<path d="M35.2394 88.934C34.4706 88.6118 33.6076 88.5688 32.8069 88.7999C28.9673 89.9056 14.5289 94.1547 12.1495 96.1941C9.40075 98.5506 16.2725 111.791 16.1733 116.132C16.074 120.474 15.5862 125.591 15.2035 130.311C14.8208 135.031 14.3035 137.619 18.1524 139.624C22.0021 141.631 28.5745 141.723 33.4949 137.964C38.4145 134.205 37.5221 131.633 37.3177 128.904C37.1133 126.174 35.4378 114.371 35.5825 111.021C35.5825 111.021 37.316 109.74 38.6004 107.544C39.8848 105.348 37.6163 101.311 36.6751 98.6864C35.7331 96.0617 37.2067 93.0608 36.9148 90.9194C36.7643 89.8179 36.062 89.2781 35.2394 88.934Z" fill="#983BE9"/>
<path d="M30.6236 93.4474C30.9281 95.8318 28.7462 98.0769 25.7511 98.4624C22.7551 98.847 20.0795 97.2259 19.7751 94.8408C19.4706 92.4556 21.6524 90.2112 24.6476 89.8258C27.6436 89.4412 30.3191 91.0631 30.6236 93.4474Z" fill="white"/>
<path d="M29.0769 93.6469C29.2947 95.3514 27.7354 96.9565 25.5939 97.2314C23.4525 97.5064 21.5406 96.3475 21.3228 94.643C21.105 92.9384 22.6644 91.3334 24.8058 91.0584C26.9472 90.7835 28.8591 91.9423 29.0769 93.6469Z" fill="#FFC2B0"/>
<path d="M26.9484 88.0509C26.9484 88.0509 24.3427 85.9018 23.8305 86.9898C23.3182 88.0787 22.896 92.7504 22.896 92.7504L28.0721 94.1446L27.2865 89.4113C27.2865 89.4113 28.3228 88.5308 26.9484 88.0509Z" fill="#FFC2B0"/>
<path d="M35.0358 82.8826C35.2594 78.6087 31.9856 74.9623 27.7235 74.738C23.4614 74.5137 19.825 77.7966 19.6014 82.0704C19.3777 86.3443 22.6515 89.9907 26.9136 90.215C31.1757 90.4392 34.8121 87.1564 35.0358 82.8826Z" fill="#FFC2B0"/>
<path d="M23.4699 88.3432C23.4237 88.587 23.3799 88.8484 23.3379 89.1158C23.8577 91.8122 27.8815 92.9921 27.8815 92.9921L27.2868 89.4101C27.2868 89.4101 27.7747 88.9952 27.6367 88.5802C26.0471 88.0767 24.0427 87.6305 23.4699 88.3432Z" fill="#EA9C92"/>
<path d="M35.0358 82.8826C35.2594 78.6087 31.9856 74.9623 27.7235 74.738C23.4614 74.5137 19.825 77.7966 19.6014 82.0704C19.3777 86.3443 22.6515 89.9907 26.9136 90.215C31.1757 90.4392 34.8121 87.1564 35.0358 82.8826Z" fill="#FFC2B0"/>
<path d="M8.28186 115.276L9.14651 136.014L12.1703 136.327L14.1376 117.659L8.28186 115.276Z" fill="#FFC2B0"/>
<path d="M18.2191 113.542C18.0559 112.82 16.732 112.226 16.5301 111.285C15.4922 106.454 15.2424 99.3303 15.2424 99.3303L14.3979 109.061C15.3728 111.947 16.2097 114.595 16.1752 116.13C16.1172 118.678 15.9237 121.495 15.6974 124.341V124.349C15.6974 124.349 19.2191 117.971 18.2191 113.542Z" fill="#8A2AE3"/>
<path d="M12.727 95.7689C12.727 95.7689 10.3097 96.6949 8.94119 104.141C7.57272 111.588 6.54994 119.046 8.98913 120.008C11.4283 120.969 13.4663 121.692 14.1838 119.7C14.9012 117.708 15.3453 108.112 15.4353 104.66C15.5253 101.209 15.6565 96.4512 12.727 95.7689Z" fill="#B45EF4"/>
<path d="M51.293 122.1C51.293 122.1 52.6026 122.583 53.5488 123.617C54.3251 124.465 54.7507 125.184 55.0897 125.692C55.8425 126.818 56.4775 129.252 56.0191 129.556C55.5599 129.86 52.9339 125.479 52.51 126.498C52.087 127.517 52.5134 128.458 51.9709 128.474C51.4284 128.489 49.541 124.071 48.0564 122.702C46.5719 121.331 51.293 122.1 51.293 122.1Z" fill="#FFC2B0"/>
<path d="M25.3782 189.474C25.3782 189.474 26.0956 189.464 27.0326 189.302L28.1664 143.714L25.3782 189.474Z" fill="#D8892B"/>
<path d="M21.0027 164.849L19.3936 162.743L2.47658 152.922C1.93407 152.607 1.49502 151.764 1.49586 151.038L1.51016 137.149L0.537842 135.875L1.45212 135.345L1.45297 135.346C1.62792 135.233 1.86005 135.235 2.11659 135.385L21.2895 146.515C21.832 146.83 22.271 147.674 22.2702 148.399L22.2542 163.525C22.2534 163.933 22.1138 164.218 21.8959 164.331L21.0027 164.849Z" fill="#983BE9"/>
<path d="M9.30454 156.885L8.10261 156.187L1.50501 144.696L1.51175 137.149L0.539429 135.875L1.45371 135.345L1.45454 135.346C1.62949 135.233 1.86164 135.235 2.11817 135.385L21.2911 146.515C21.5779 146.681 21.8344 146.996 22.0136 147.363L9.30454 156.885Z" fill="#D29FFF"/>
<path d="M0.969327 136.441L0.537842 135.875L1.45212 135.345L1.45297 135.346C1.62792 135.233 1.86005 135.235 2.11659 135.385L2.45472 135.58L0.969327 136.441Z" fill="#D29FFF"/>
<path d="M21.4629 146.637C21.8885 146.987 22.219 147.647 22.2636 148.257L20.3896 149.341L19.4922 147.778L21.4629 146.637Z" fill="#983BE9"/>
<path d="M20.3765 147.046L1.20441 135.915C0.661902 135.601 0.222008 135.933 0.220325 136.659L0.204347 151.785C0.203506 152.51 0.64256 153.354 1.18507 153.669L20.3579 164.801C20.9005 165.115 21.3403 164.783 21.3412 164.057L21.3572 148.931C21.3572 148.204 20.919 147.36 20.3765 147.046Z" fill="#B45EF4"/>
<path d="M16.4383 157.894L15.5249 157.365V149.499L16.4383 150.027V157.894Z" fill="white"/>
<path d="M14.3043 156.659L13.3909 156.13V148.263L14.3043 148.792V156.659Z" fill="white"/>
<path d="M12.1711 155.425L11.2585 154.896V147.03L12.1711 147.558V155.425Z" fill="white"/>
<path d="M9.17169 135.84C9.17169 135.84 8.37265 140.68 8.49292 142.23C8.6132 143.781 9.44085 146.338 10.0683 146.284C10.6966 146.23 10.0893 140.049 11.192 140.665C12.2947 141.281 12.4108 142.337 12.9104 141.964C13.41 141.591 12.039 136.309 12.4049 134.018C12.7708 131.727 9.17169 135.84 9.17169 135.84Z" fill="#FFC2B0"/>
<path d="M30.2924 83.15C34.169 84.5307 34.9244 83.6881 34.9605 83.6434C34.9959 83.409 35.0245 83.172 35.0387 82.9308C35.0892 82.073 34.9925 81.2414 34.7805 80.4545L24.7227 79.0932C24.7227 79.0932 26.3115 81.7323 30.2924 83.15Z" fill="#EA9C92"/>
<path d="M35.3177 75.2103C34.4043 74.4251 31.1072 70.542 25.201 71.4588C21.5094 72.0315 18.3982 74.5567 17.7085 80.3164C17.2433 84.1978 18.664 88.0202 21.2806 90.8456C21.4228 90.7798 21.5691 90.7191 21.7003 90.6331C23.1798 89.6572 23.3388 89.12 23.3388 89.1149L23.666 86.1756C23.6559 85.7581 23.3447 85.387 22.9292 85.3609C22.6079 85.3406 22.2185 85.1863 21.8467 84.6988C20.998 83.5863 21.39 81.8523 23.0865 81.7865C23.973 81.7519 24.3162 81.2711 24.4415 80.8199C24.5508 80.4269 24.9638 80.2084 25.3465 80.3476C27.2768 81.0485 32.0324 82.5582 35.094 81.6886C39.0102 80.5762 36.2312 75.9956 35.3177 75.2103Z" fill="#6614CF"/>
<path d="M30.9127 86.6498L33.277 85.9987C33.277 85.9987 32.1483 87.7791 30.5006 88.2329C28.8528 88.6866 28.5963 87.2882 28.5963 87.2882L30.9127 86.6498Z" fill="white"/>
<path d="M13.1925 141.814L11.1781 140.658L11.9343 141.896L12.9528 142.273L13.1925 141.814Z" fill="#D29FFF"/>
<path d="M57.6508 145.118L80.7357 131.944C81.1924 131.684 81.4094 131.333 81.4186 130.963C81.4203 130.964 81.4304 130.973 81.4304 130.973L81.4456 128.388C81.4456 128.388 80.6356 129.061 80.1587 129.454L65.7035 120.965C64.5277 120.275 62.7429 120.189 61.7167 120.775L39.6521 133.367L37.9565 132.371L37.9371 134.979L37.9472 134.97C37.9556 135.417 38.2719 135.887 38.9044 136.259L53.664 144.927C54.8399 145.618 56.6247 145.705 57.6508 145.118Z" fill="#D6BCE6"/>
<path d="M38.6502 131.32L61.7351 118.146C62.7612 117.56 64.546 117.646 65.7219 118.336L80.4815 127.004C81.6574 127.695 81.7793 128.729 80.7532 129.315L57.6684 142.489C56.6422 143.075 54.8574 142.99 53.6815 142.299L38.9219 133.631C37.7461 132.94 37.6241 131.906 38.6502 131.32Z" fill="#F0ECFF"/>
<path d="M57.6693 142.488L80.7542 129.314C81.337 128.981 81.5372 128.503 81.3951 128.026C81.2874 128.251 81.099 128.459 80.8029 128.628L57.7181 141.802C56.6928 142.387 54.9071 142.302 53.7313 141.611L38.9716 132.943C38.4645 132.646 38.1659 132.284 38.0582 131.921C37.7933 132.475 38.0851 133.139 38.922 133.631L53.6816 142.298C54.8592 142.989 56.644 143.075 57.6693 142.488Z" fill="white"/>
<path d="M62.9107 127.827C62.0561 127.325 62.062 126.521 62.9216 126.03C63.7821 125.539 65.1716 125.548 66.0253 126.049C66.879 126.551 66.8739 127.356 66.0143 127.847C65.1547 128.338 63.7652 128.328 62.9107 127.827Z" fill="white"/>
<path d="M58.1925 130.521C57.338 130.019 57.3439 129.214 58.2035 128.723C59.0639 128.232 60.4534 128.241 61.308 128.743C62.1617 129.245 62.1566 130.049 61.297 130.54C60.4366 131.03 59.0463 131.022 58.1925 130.521Z" fill="white"/>
<path d="M53.4742 133.213C52.6205 132.711 52.6255 131.906 53.4851 131.415C54.3456 130.924 55.7351 130.933 56.5888 131.435C57.4425 131.936 57.4383 132.741 56.5779 133.232C55.7183 133.723 54.3288 133.714 53.4742 133.213Z" fill="white"/>
<path d="M187.758 163.586C187.758 165.732 186.256 166.602 184.402 165.529C182.549 164.456 181.046 161.846 181.046 159.701C181.046 157.555 182.548 156.686 184.402 157.758C186.256 158.831 187.758 161.441 187.758 163.586Z" fill="#D6BCE6"/>
<path d="M189.157 169.652C189.153 169.619 189.148 169.586 189.143 169.553C189 168.649 188.146 167.855 187.583 168.056C186.713 168.366 185.607 168.214 184.402 167.517C183.197 166.818 182.091 165.69 181.221 164.372C180.658 163.52 179.805 163.325 179.662 164.064C179.657 164.091 179.652 164.119 179.647 164.146L178.056 174.282L190.749 181.63L189.157 169.652Z" fill="#D6BCE6"/>
<path d="M187.758 163.586C187.758 165.732 186.256 166.602 184.402 165.529C182.549 164.456 181.046 161.846 181.046 159.701C181.046 157.555 182.548 156.686 184.402 157.758C186.256 158.831 187.758 161.441 187.758 163.586Z" fill="white"/>
<path d="M189.157 169.652C189.153 169.619 189.148 169.586 189.143 169.553C189 168.649 188.146 167.855 187.583 168.056C186.713 168.366 185.607 168.214 184.402 167.517C183.197 166.818 182.091 165.69 181.221 164.372C180.658 163.52 179.805 163.325 179.662 164.064C179.657 164.091 179.652 164.119 179.647 164.146L178.056 174.282L190.749 181.63L189.157 169.652Z" fill="white"/>
<path d="M191.649 189.343L176.239 180.422V179.308L191.649 188.229V189.343Z" fill="white"/>
<path d="M186.996 191.516L176.239 185.289V184.174L186.996 190.402V191.516Z" fill="white"/>
<path d="M185.545 188.243L176.239 182.856V181.741L185.545 187.129V188.243Z" fill="white"/>
<path d="M191.649 191.776L186.996 189.082V187.968L191.649 190.662V191.776Z" fill="white"/>
<path d="M191.683 114.922L176.274 106.001V104.887L191.683 113.808V114.922Z" fill="#5793CE"/>
<path d="M187.03 117.095L176.274 110.867V109.753L187.03 115.981V117.095Z" fill="#5793CE"/>
<path d="M185.579 113.822L176.274 108.434V107.32L185.579 112.708V113.822Z" fill="#5793CE"/>
<path d="M191.683 117.356L187.03 114.662V113.548L191.683 116.242V117.356Z" fill="#5793CE"/>
<path d="M191.683 124.32L176.274 115.399V114.284L191.683 123.206V124.32Z" fill="#5793CE"/>
<path d="M187.03 126.492L176.274 120.265V119.151L187.03 125.378V126.492Z" fill="#5793CE"/>
<path d="M185.579 123.219L176.274 117.832V116.718L185.579 122.105V123.219Z" fill="#5793CE"/>
<path d="M191.683 126.754L187.03 124.06V122.946L191.683 125.64V126.754Z" fill="#5793CE"/>
<path d="M191.683 133.718L176.274 124.797V123.682L191.683 132.604V133.718Z" fill="#5793CE"/>
<path d="M187.03 135.89L176.274 129.663V128.548L187.03 134.776V135.89Z" fill="#5793CE"/>
<path d="M185.579 132.617L176.274 127.23V126.115L185.579 131.503V132.617Z" fill="#5793CE"/>
<path d="M191.683 136.152L187.03 133.458V132.344L191.683 135.038V136.152Z" fill="#5793CE"/>
<path d="M143.121 160.079L132.129 153.715V152.686L143.121 159.051V160.079Z" fill="white"/>
<path d="M149.934 164.024L145.24 161.306V160.277L149.934 162.995V164.024Z" fill="white"/>
<path d="M143.501 162.539L138.807 159.821V158.793L143.501 161.51V162.539Z" fill="white"/>
<path d="M153.668 168.426L145.24 163.546V162.517L153.668 167.397V168.426Z" fill="white"/>
<path d="M159.436 174.006L146.971 166.79V165.761L159.436 172.977V174.006Z" fill="white"/>
<path d="M156.65 167.911L151.956 165.193V164.165L156.65 166.882V167.911Z" fill="white"/>
<path d="M136.824 158.674L132.129 155.956V154.927L136.824 157.645V158.674Z" fill="white"/>
<path d="M144.959 165.624L132.106 158.183V157.154L144.959 164.595V165.624Z" fill="white"/>
<path d="M140.011 165L132.257 160.51V159.482L140.011 163.971V165Z" fill="white"/>
<path d="M254.081 219.252C253.793 219.252 253.513 219.104 253.356 218.838C253.12 218.437 253.252 217.92 253.652 217.683L286.229 198.378C286.493 198.222 286.522 197.969 286.522 197.868C286.522 197.766 286.495 197.512 286.234 197.355L277.344 192.006C276.945 191.767 276.817 191.249 277.056 190.849C277.294 190.449 277.811 190.32 278.209 190.56L287.099 195.909C287.794 196.326 288.206 197.061 288.204 197.874C288.202 198.686 287.783 199.418 287.086 199.832L254.509 219.136C254.373 219.214 254.226 219.252 254.081 219.252Z" fill="#13FFE2"/>
<path d="M260.449 234.039L249.141 227.494L237.833 234.039L249.141 240.586L260.449 234.039Z" fill="#D4ECFF"/>
<path d="M249.142 234.515V227.138L262.652 219.316V226.693L249.142 234.515Z" fill="#D6BCE6"/>
<path d="M249.142 227.138L235.632 219.316V226.693L249.142 234.515V227.138Z" fill="#D6BCE6"/>
<path d="M262.651 219.316L249.142 211.495L235.632 219.316L249.142 227.138L262.651 219.316Z" fill="#F0ECFF"/>
<path d="M140.116 62.1672L142.393 69.6551L148.221 73.6765L143.8 75.484L145.125 82.9153L140.116 76.4505L135.107 77.116L136.433 71.2188L132.012 64.2926L137.839 67.0194L140.116 62.1672Z" fill="#EDEDED"/>
<path d="M158.691 72.8302L160.968 80.3181L166.796 84.3395L162.375 86.1469L163.7 93.5791L158.691 87.1135L153.682 87.7789L155.008 81.8818L150.587 74.9556L156.415 77.6824L158.691 72.8302Z" fill="#EDEDED"/>
<path d="M129.646 63.0152L123.818 58.9938L121.541 51.5059L121.198 52.238V65.8339L121.541 65.7892L126.55 72.2548L125.225 64.8226L129.646 63.0152Z" fill="#EDEDED"/>
<path d="M80.4812 25.2611L82.7581 32.749L88.5852 36.7704L84.1652 38.5778L85.4899 46.01L80.4812 39.5444L75.4724 40.2098L76.7972 34.3127L72.3763 27.3865L78.2043 30.1133L80.4812 25.2611Z" fill="#E8A200"/>
<path d="M69.6576 28.9515L72.3769 27.3861L76.5773 29.3513C76.5773 29.3513 76.563 32.1835 76.5773 32.2509C76.5916 32.3184 74.8464 32.4028 74.7286 32.4028C74.6109 32.4019 69.6576 28.9515 69.6576 28.9515Z" fill="#F9BF30"/>
<path d="M85.49 46.0094L82.7708 47.5748L81.446 40.1426C81.446 40.1426 82.764 38.7476 82.7582 38.7476C82.7523 38.7476 84.241 38.9997 84.241 38.9997L85.49 46.0094Z" fill="#E8A200"/>
<path d="M77.7624 26.826L80.0393 34.3139L85.8665 38.3353L81.4456 40.1428L82.7712 47.575L77.7624 41.1093L72.7537 41.7748L74.0784 35.8776L69.6576 28.9515L75.4856 31.6782L77.7624 26.826Z" fill="#FDD762"/>
<path d="M82.7712 47.575L81.4465 40.1428L85.8673 38.3353L80.0393 34.3139L77.7625 26.826L75.4856 31.6782L69.6576 28.9523L70.0638 29.5882L75.6799 32.2146L77.6825 27.947L79.6945 34.5669L85.0237 38.2451L80.9914 39.8923L82.2396 46.8893L82.7712 47.575Z" fill="white"/>
<path d="M77.7629 26.8265L80.4822 25.2611L82.7591 32.749L80.0398 34.3144L77.7629 26.8265Z" fill="#E8A200"/>
<path d="M88.5863 36.7712L85.8671 38.3366L80.0399 34.3151L82.7592 32.7498L88.5863 36.7712Z" fill="#F9BF30"/>
<path d="M80.1753 34.5021L79.7606 34.2626L82.6977 32.5488L82.7591 32.7487L82.9518 32.8819L80.1753 34.5021Z" fill="white"/>
<path d="M99.056 35.9224L101.333 43.4103L107.161 47.4325L102.74 49.2391L104.065 56.6713L99.056 50.2057L94.0473 50.8712L95.372 44.974L90.9512 38.0478L96.7791 40.7746L99.056 35.9224Z" fill="#E8A200"/>
<path d="M88.2324 39.6128L90.9517 38.0474L95.1521 40.0126C95.1521 40.0126 95.1378 42.8448 95.1521 42.9123C95.1664 42.9797 93.4212 43.0641 93.3034 43.0641C93.1857 43.0632 88.2324 39.6128 88.2324 39.6128Z" fill="#F9BF30"/>
<path d="M104.065 56.6708L101.346 58.2361L100.021 50.8039C100.021 50.8039 101.339 49.4089 101.333 49.4089C101.327 49.4089 102.816 49.6611 102.816 49.6611L104.065 56.6708Z" fill="#E8A200"/>
<path d="M96.3373 37.4874L98.6141 44.9752L104.441 48.9975L100.021 50.8041L101.346 58.2363L96.3373 51.7706L91.3285 52.4369L92.6533 46.5389L88.2324 39.6128L94.0604 42.3395L96.3373 37.4874Z" fill="#FDD762"/>
<path d="M101.346 58.2363L100.021 50.8041L104.442 48.9966L98.6141 44.9752L96.3373 37.4874L94.0604 42.3395L88.2324 39.6136L88.6387 40.2496L94.2547 42.876L96.2573 38.6083L98.2693 45.2283L103.598 48.9056L99.5663 50.5528L100.814 57.5497L101.346 58.2363Z" fill="white"/>
<path d="M96.3379 37.4878L99.0572 35.9224L101.334 43.4103L98.6147 44.9757L96.3379 37.4878Z" fill="#E8A200"/>
<path d="M107.162 47.4333L104.442 48.9987L98.6147 44.9765L101.334 43.4111L107.162 47.4333Z" fill="#F9BF30"/>
<path d="M98.7501 45.1643L98.3354 44.9239L101.273 43.2101L101.334 43.41L101.527 43.5432L98.7501 45.1643Z" fill="white"/>
<path d="M117.632 46.5838L119.909 54.0717L125.737 58.0939L121.316 59.9005L122.64 67.3327L117.632 60.8671L112.623 61.5334L113.948 55.6354L109.528 48.7101L115.355 51.436L117.632 46.5838Z" fill="#E8A200"/>
<path d="M106.809 50.2758L109.528 48.7104L113.729 50.6756C113.729 50.6756 113.714 53.5078 113.729 53.5753C113.743 53.6428 111.998 53.7271 111.88 53.7271C111.762 53.7254 106.809 50.2758 106.809 50.2758Z" fill="#F9BF30"/>
<path d="M122.64 67.3321L119.92 68.8975L118.596 61.4653C118.596 61.4653 119.914 60.0703 119.908 60.0703C119.902 60.0703 121.391 60.3224 121.391 60.3224L122.64 67.3321Z" fill="#E8A200"/>
<path d="M114.913 48.1487L117.19 55.6366L123.018 59.6589L118.597 61.4655L119.922 68.8977L114.913 62.432L109.904 63.0983L111.229 57.2003L106.809 50.275L112.636 53.0009L114.913 48.1487Z" fill="#FDD762"/>
<path d="M119.921 68.8985L118.596 61.4663L123.017 59.6597L117.189 55.6383L114.912 48.1504L112.635 53.0026L106.807 50.2766L107.213 50.9126L112.829 53.539L114.831 49.2713L116.843 55.8913L122.172 59.5686L118.14 61.2158L119.388 68.2128L119.921 68.8985Z" fill="white"/>
<path d="M114.913 48.1492L117.632 46.5838L119.909 54.0717L117.189 55.637L114.913 48.1492Z" fill="#E8A200"/>
<path d="M125.737 58.0946L123.017 59.66L117.189 55.6378L119.909 54.0724L125.737 58.0946Z" fill="#F9BF30"/>
<path d="M117.324 55.8256L116.91 55.5852L119.847 53.8714L119.908 54.0713L120.101 54.2054L117.324 55.8256Z" fill="white"/>
<path d="M136.207 57.2468L138.483 64.7355L144.311 68.7569L139.891 70.5635L141.215 77.9957L136.207 71.53L131.198 72.1963L132.523 66.2983L128.103 59.373L133.931 62.0989L136.207 57.2468Z" fill="#E8A200"/>
<path d="M125.384 60.9388L128.103 59.3734L132.304 61.3386C132.304 61.3386 132.289 64.1708 132.304 64.2383C132.318 64.3057 130.573 64.3901 130.455 64.3901C130.337 64.3884 125.384 60.9388 125.384 60.9388Z" fill="#F9BF30"/>
<path d="M141.215 77.995L138.495 79.5604L137.171 72.1282C137.171 72.1282 138.489 70.7332 138.483 70.7332C138.477 70.7332 139.966 70.9854 139.966 70.9854L141.215 77.995Z" fill="#E8A200"/>
<path d="M133.488 58.8117L135.765 66.3004L141.593 70.3218L137.172 72.1293L138.497 79.5606L133.488 73.095L128.479 73.7613L129.804 67.8633L125.384 60.938L131.211 63.6639L133.488 58.8117Z" fill="#FDD762"/>
<path d="M138.496 79.5606L137.171 72.1284L141.592 70.321L135.764 66.2996L133.487 58.8117L131.21 63.6639L125.382 60.938L125.788 61.5739L131.404 64.2003L133.407 59.9326L135.419 66.5526L140.748 70.2307L136.716 71.8779L137.964 78.8749L138.496 79.5606Z" fill="white"/>
<path d="M133.488 58.8121L136.207 57.2468L138.484 64.7355L135.764 66.3009L133.488 58.8121Z" fill="#E8A200"/>
<path d="M144.312 68.7568L141.592 70.3222L135.764 66.3008L138.484 64.7354L144.312 68.7568Z" fill="#F9BF30"/>
<path d="M135.899 66.4886L135.485 66.2482L138.422 64.5344L138.483 64.7352L138.676 64.8684L135.899 66.4886Z" fill="white"/>
<path d="M154.781 67.9081L157.058 75.3968L162.886 79.4182L158.465 81.2256L159.791 88.657L154.781 82.1914L149.772 82.8577L151.098 76.9596L146.677 70.0343L152.505 72.7603L154.781 67.9081Z" fill="#E8A200"/>
<path d="M143.958 71.6001L146.678 70.0347L150.878 71.9999C150.878 71.9999 150.864 74.8321 150.878 74.8996C150.893 74.967 149.147 75.0514 149.03 75.0514C148.912 75.0505 143.958 71.6001 143.958 71.6001Z" fill="#F9BF30"/>
<path d="M159.791 88.6564L157.072 90.2217L155.747 82.7895C155.747 82.7895 157.065 81.3945 157.059 81.3945C157.053 81.3945 158.541 81.6467 158.541 81.6467L159.791 88.6564Z" fill="#E8A200"/>
<path d="M152.063 69.473L154.339 76.9617L160.167 80.9831L155.747 82.7906L157.071 90.2219L152.063 83.7563L147.054 84.4226L148.379 78.5246L143.958 71.5993L149.786 74.3252L152.063 69.473Z" fill="#FDD762"/>
<path d="M157.071 90.2219L155.746 82.7897L160.167 80.9823L154.339 76.9609L152.062 69.473L149.785 74.3252L143.957 71.5993L144.363 72.2352L149.978 74.8616L151.981 70.5939L153.993 77.2139L159.322 80.8921L155.29 82.5393L156.538 89.5362L157.071 90.2219Z" fill="white"/>
<path d="M152.062 69.4735L154.782 67.9081L157.059 75.3968L154.339 76.9622L152.062 69.4735Z" fill="#E8A200"/>
<path d="M162.886 79.4181L160.167 80.9835L154.339 76.9621L157.059 75.3967L162.886 79.4181Z" fill="#F9BF30"/>
<path d="M154.475 77.1507L154.06 76.9104L156.997 75.1974L157.058 75.3973L157.251 75.5305L154.475 77.1507Z" fill="white"/>
<defs>
<radialGradient id="paint0_radial_1_7399" cx="0" cy="0" r="1" gradientUnits="userSpaceOnUse" gradientTransform="translate(195.158 105.642) scale(39.3614 39.4699)">
<stop stop-color="#01C8EF"/>
<stop offset="0.0894" stop-color="#03BEE9"/>
<stop offset="0.2388" stop-color="#08A5D7"/>
<stop offset="0.4288" stop-color="#107BBB"/>
<stop offset="0.4457" stop-color="#1177B8"/>
<stop offset="1" stop-color="#112564"/>
</radialGradient>
</defs>
</svg>
