<svg width="288" height="261" viewBox="0 0 288 261" fill="none" xmlns="http://www.w3.org/2000/svg">
<path d="M271.794 176.83C271.794 176.83 267.587 176.384 268.441 180.957L214.685 150.99C211.161 149.29 206.988 149.415 203.58 151.318L87.0252 215.833C82.3059 213.753 77.9691 213.077 76.0226 216.129C72.4985 221.66 74.8684 224.665 76.8558 226.529C77.3202 227.028 77.9281 227.487 78.6793 227.887C78.7408 227.92 78.7818 227.94 78.7818 227.94L134.676 259.049C138.138 260.716 142.25 260.591 145.596 258.715L270.838 189.317C270.838 189.317 279.123 184.481 271.794 176.83Z" fill="url(#paint0_linear_1_879)"/>
<path style="mix-blend-mode:multiply" opacity="0.8" d="M271.794 176.83C271.794 176.83 267.587 176.384 268.441 180.957L214.685 150.99C211.161 149.29 206.988 149.415 203.58 151.318L87.0252 215.833C82.3059 213.753 77.9691 213.077 76.0226 216.129C72.4985 221.66 74.8684 224.665 76.8558 226.529C77.3202 227.028 77.9281 227.487 78.6793 227.887C78.7408 227.92 78.7818 227.94 78.7818 227.94L134.676 259.049C138.138 260.716 142.25 260.591 145.596 258.715L270.838 189.317C270.838 189.317 279.15 184.698 271.794 176.83Z" fill="url(#paint1_linear_1_879)"/>
<path style="mix-blend-mode:multiply" opacity="0.8" d="M271.759 176.811C271.759 176.811 267.552 176.365 268.406 180.938L214.65 150.971C211.126 149.271 206.953 149.396 203.545 151.299L86.9902 215.814C82.2709 213.734 77.934 213.058 75.9876 216.11C72.4635 221.641 74.8334 224.646 76.8208 226.51C77.2852 227.009 77.8931 227.468 78.6443 227.868C78.7058 227.901 78.7468 227.921 78.7468 227.921L134.641 259.03C138.103 260.697 142.215 260.572 145.561 258.696L270.803 189.298C270.803 189.298 278.958 184.547 271.759 176.811Z" fill="url(#paint2_linear_1_879)"/>
<path d="M77.79 214.39L203.51 144.802C206.918 142.899 211.091 142.775 214.615 144.474L270.516 175.643C273.405 177.664 273.965 181.712 270.769 183.497L145.526 252.895C142.18 254.765 138.075 254.889 134.606 253.229L78.712 222.12C74.703 219.823 74.9352 216.234 77.79 214.397V214.39Z" fill="url(#paint3_linear_1_879)"/>
<path d="M101.518 230.217L101.45 230.177C101.088 229.98 101.135 229.633 101.545 229.403C101.955 229.173 102.583 229.147 102.945 229.344L103.014 229.383C103.376 229.58 103.328 229.928 102.918 230.158C102.508 230.387 101.88 230.414 101.518 230.217Z" fill="url(#paint4_linear_1_879)"/>
<path d="M115.977 238.176L103.547 231.338C103.185 231.142 103.233 230.794 103.643 230.564C104.052 230.335 104.681 230.308 105.043 230.505L117.473 237.343C117.835 237.539 117.787 237.887 117.377 238.117C116.967 238.346 116.339 238.373 115.977 238.176Z" fill="url(#paint5_linear_1_879)"/>
<path d="M172.75 239.626C172.559 239.573 172.354 239.6 172.169 239.685L165.988 243.137C165.702 243.294 165.449 243.596 165.333 243.99C165.135 244.652 165.387 245.302 165.9 245.44C166.084 245.492 166.282 245.466 166.467 245.381C166.487 245.374 166.501 245.361 166.521 245.348L172.572 241.962C172.893 241.818 173.18 241.496 173.303 241.07C173.501 240.407 173.248 239.757 172.736 239.619L172.75 239.626Z" fill="url(#paint6_linear_1_879)"/>
<path d="M173.358 240.052C173.167 240 172.962 240.026 172.778 240.111L166.597 243.563C166.31 243.72 166.057 244.022 165.941 244.416C165.743 245.078 165.996 245.728 166.508 245.866C166.693 245.918 166.891 245.892 167.075 245.807C167.096 245.8 167.109 245.787 167.13 245.774L173.181 242.388C173.502 242.244 173.789 241.922 173.912 241.496C174.11 240.833 173.857 240.183 173.345 240.046L173.358 240.052Z" fill="url(#paint7_linear_1_879)"/>
<path d="M182.277 234.416C182.086 234.363 181.881 234.39 181.697 234.475L175.516 237.926C175.229 238.084 174.976 238.386 174.86 238.779C174.662 239.442 174.915 240.092 175.427 240.23C175.612 240.282 175.81 240.256 175.994 240.171C176.015 240.164 176.028 240.151 176.049 240.138L182.1 236.752C182.421 236.607 182.708 236.286 182.831 235.859C183.029 235.197 182.776 234.547 182.264 234.409L182.277 234.416Z" fill="url(#paint8_linear_1_879)"/>
<path d="M182.892 234.842C182.701 234.789 182.496 234.816 182.312 234.901L176.131 238.353C175.844 238.51 175.591 238.812 175.475 239.206C175.277 239.868 175.53 240.518 176.042 240.656C176.227 240.708 176.425 240.682 176.609 240.597C176.629 240.59 176.643 240.577 176.664 240.564L182.715 237.178C183.036 237.034 183.323 236.712 183.445 236.286C183.644 235.623 183.391 234.973 182.879 234.835L182.892 234.842Z" fill="url(#paint9_linear_1_879)"/>
<path d="M163.202 244.974C163.011 244.921 162.806 244.948 162.621 245.033L161.112 245.833C160.825 245.991 160.572 246.293 160.456 246.686C160.258 247.349 160.511 247.999 161.023 248.137C161.208 248.189 161.406 248.163 161.59 248.078C161.61 248.071 161.624 248.058 161.645 248.045L163.031 247.31C163.352 247.165 163.639 246.844 163.762 246.417C163.96 245.755 163.707 245.105 163.195 244.967L163.202 244.974Z" fill="url(#paint10_linear_1_879)"/>
<path d="M163.817 245.4C163.625 245.347 163.421 245.374 163.236 245.459L161.727 246.259C161.44 246.417 161.187 246.719 161.071 247.113C160.873 247.775 161.126 248.425 161.638 248.563C161.822 248.615 162.02 248.589 162.205 248.504C162.225 248.497 162.239 248.484 162.26 248.471L163.646 247.736C163.967 247.592 164.254 247.27 164.377 246.843C164.575 246.181 164.322 245.531 163.81 245.393L163.817 245.4Z" fill="url(#paint11_linear_1_879)"/>
<path d="M266.623 176.81L212.491 146.869C210.026 145.681 207.096 145.767 204.712 147.099L81.5124 215.361C79.5113 216.647 79.3542 219.167 82.1612 220.768L93.1979 226.864L94.8712 225.932C96.8313 224.836 99.8022 224.718 101.51 225.656L125.953 239.161C127.654 240.099 127.442 241.752 125.482 242.842L123.808 243.773L136.293 250.67C138.724 251.838 141.6 251.746 143.942 250.434L266.814 182.309C269.055 181.056 268.952 177.919 266.637 176.804L266.623 176.81Z" fill="url(#paint12_linear_1_879)"/>
<path style="mix-blend-mode:overlay" d="M266.706 166.528L212.574 136.586C210.109 135.399 207.179 135.484 204.795 136.816L81.5951 205.078C79.594 206.365 79.4369 208.884 82.2439 210.492L93.2806 216.588L94.9538 215.656C96.914 214.56 99.8849 214.442 101.592 215.38L126.036 228.885C127.736 229.823 127.524 231.477 125.564 232.566L123.891 233.498L136.376 240.394C138.807 241.562 141.682 241.47 144.025 240.158L266.897 172.033C269.137 170.78 269.035 167.643 266.719 166.528H266.706Z" fill="url(#paint13_linear_1_879)"/>
<path style="mix-blend-mode:overlay" d="M266.706 166.528L212.574 136.586C210.109 135.399 207.179 135.484 204.795 136.816L81.5951 205.078C79.594 206.365 79.4369 208.884 82.2439 210.492L93.2806 216.588L94.9538 215.656C96.914 214.56 99.8849 214.442 101.592 215.38L126.036 228.885C127.736 229.823 127.524 231.477 125.564 232.566L123.891 233.498L136.376 240.394C138.807 241.562 141.682 241.47 144.025 240.158L266.897 172.033C269.137 170.78 269.035 167.643 266.719 166.528H266.706Z" fill="url(#paint14_linear_1_879)"/>
<g style="mix-blend-mode:overlay">
<path d="M140.555 233.17C139.161 233.17 137.761 232.861 136.47 232.238L122.319 224.423L125.686 222.546C126.451 222.119 126.725 221.68 126.725 221.431C126.725 221.142 126.328 220.892 126.158 220.794L101.912 207.395C100.587 206.66 98.0468 206.785 96.4692 207.664L94.2359 208.904L82.7143 202.539C81.0205 201.568 80.0712 200.216 80.0302 198.733C79.9961 197.388 80.7132 196.141 82.0108 195.315L204.296 127.558C207 126.048 210.292 125.95 213.092 127.302L266.828 157.02C268.269 157.729 269.157 159.074 269.205 160.629C269.252 162.197 268.447 163.601 267.033 164.389L145.137 231.975C143.717 232.769 142.139 233.17 140.555 233.17ZM126.882 224.416L137.55 230.309C139.564 231.273 141.996 231.201 143.997 230.079L265.892 162.493C266.562 162.118 266.951 161.443 266.924 160.695C266.896 159.947 266.466 159.297 265.769 158.962L265.715 158.929L212.013 129.231C209.957 128.247 207.478 128.319 205.436 129.454L83.2128 197.172C82.646 197.539 82.2977 198.097 82.3113 198.674C82.3318 199.383 82.885 200.085 83.8685 200.649L94.2291 206.371L95.3218 205.761C97.6166 204.481 101.011 204.363 103.046 205.485L127.291 218.878C128.398 219.488 129.006 220.387 129.006 221.411C129.006 222.546 128.234 223.629 126.882 224.403V224.416Z" fill="url(#paint15_linear_1_879)"/>
</g>
<g style="mix-blend-mode:overlay">
<path d="M140.555 233.17C139.161 233.17 137.761 232.861 136.47 232.238L122.319 224.423L125.686 222.546C126.451 222.119 126.725 221.68 126.725 221.431C126.725 221.142 126.328 220.892 126.158 220.794L101.912 207.395C100.587 206.66 98.0468 206.785 96.4692 207.664L94.2359 208.904L82.7143 202.539C81.0205 201.568 80.0712 200.216 80.0302 198.733C79.9961 197.388 80.7132 196.141 82.0108 195.315L204.296 127.558C207 126.048 210.292 125.95 213.092 127.302L266.828 157.02C268.269 157.729 269.157 159.074 269.205 160.629C269.252 162.197 268.447 163.601 267.033 164.389L145.137 231.975C143.717 232.769 142.139 233.17 140.555 233.17ZM126.882 224.416L137.55 230.309C139.564 231.273 141.996 231.201 143.997 230.079L265.892 162.493C266.562 162.118 266.951 161.443 266.924 160.695C266.896 159.947 266.466 159.297 265.769 158.962L265.715 158.929L212.013 129.231C209.957 128.247 207.478 128.319 205.436 129.454L83.2128 197.172C82.646 197.539 82.2977 198.097 82.3113 198.674C82.3318 199.383 82.885 200.085 83.8685 200.649L94.2291 206.371L95.3218 205.761C97.6166 204.481 101.011 204.363 103.046 205.485L127.291 218.878C128.398 219.488 129.006 220.387 129.006 221.411C129.006 222.546 128.234 223.629 126.882 224.403V224.416Z" fill="url(#paint16_linear_1_879)"/>
</g>
<g style="mix-blend-mode:overlay">
<path d="M140.426 233.17C139.033 233.17 137.633 232.861 136.342 232.238L122.191 224.423L125.558 222.546C126.323 222.119 126.596 221.68 126.596 221.431C126.596 221.142 126.2 220.892 126.029 220.794L101.784 207.395C100.459 206.66 97.9182 206.785 96.3405 207.664L94.1072 208.904L82.5856 202.539C80.8919 201.568 79.9425 200.216 79.9016 198.733C79.8674 197.388 80.5845 196.141 81.8822 195.315L204.167 127.558C206.872 126.048 210.163 125.95 212.964 127.302L266.699 157.02C268.14 157.729 269.028 159.074 269.076 160.629C269.124 162.197 268.318 163.601 266.904 164.389L145.009 231.975C143.588 232.769 142.01 233.17 140.426 233.17ZM126.746 224.416L137.414 230.309C139.429 231.273 141.86 231.201 143.861 230.079L265.757 162.493C266.426 162.118 266.815 161.443 266.788 160.695C266.761 159.947 266.331 159.297 265.634 158.962L265.579 158.929L211.878 129.231C209.822 128.247 207.343 128.319 205.301 129.454L83.0773 197.172C82.5105 197.539 82.1622 198.097 82.1758 198.674C82.1963 199.383 82.7495 200.085 83.733 200.649L94.0936 206.371L95.1863 205.761C97.4811 204.481 100.875 204.363 102.911 205.485L127.156 218.878C128.262 219.488 128.87 220.387 128.87 221.411C128.87 222.546 128.098 223.629 126.746 224.403V224.416Z" fill="url(#paint17_linear_1_879)"/>
</g>
<g style="mix-blend-mode:overlay">
<path d="M140.426 233.17C139.033 233.17 137.633 232.861 136.342 232.238L122.191 224.423L125.558 222.546C126.323 222.119 126.596 221.68 126.596 221.431C126.596 221.142 126.2 220.892 126.029 220.794L101.784 207.395C100.459 206.66 97.9182 206.785 96.3405 207.664L94.1072 208.904L82.5856 202.539C80.8919 201.568 79.9425 200.216 79.9016 198.733C79.8674 197.388 80.5845 196.141 81.8822 195.315L204.167 127.558C206.872 126.048 210.163 125.95 212.964 127.302L266.699 157.02C268.14 157.729 269.028 159.074 269.076 160.629C269.124 162.197 268.318 163.601 266.904 164.389L145.009 231.975C143.588 232.769 142.01 233.17 140.426 233.17ZM126.746 224.416L137.414 230.309C139.429 231.273 141.86 231.201 143.861 230.079L265.757 162.493C266.426 162.118 266.815 161.443 266.788 160.695C266.761 159.947 266.331 159.297 265.634 158.962L265.579 158.929L211.878 129.231C209.822 128.247 207.343 128.319 205.301 129.454L83.0773 197.172C82.5105 197.539 82.1622 198.097 82.1758 198.674C82.1963 199.383 82.7495 200.085 83.733 200.649L94.0936 206.371L95.1863 205.761C97.4811 204.481 100.875 204.363 102.911 205.485L127.156 218.878C128.262 219.488 128.87 220.387 128.87 221.411C128.87 222.546 128.098 223.629 126.746 224.403V224.416Z" fill="url(#paint18_linear_1_879)"/>
</g>
<path d="M231.825 168.806V165.643L225.699 164.121L212.121 156.588C209.833 155.321 206.378 155.184 204.397 156.279L190.485 163.996L183.99 165.472V168.596C183.99 168.668 183.99 168.734 183.99 168.806V168.852C184.051 169.652 184.687 170.486 185.868 171.142L203.687 181.024C205.975 182.29 209.43 182.428 211.411 181.332L230.486 170.748C231.422 170.23 231.852 169.528 231.811 168.799L231.825 168.806Z" fill="url(#paint19_linear_1_879)"/>
<path d="M230.493 167.422L211.418 178.006C209.437 179.102 205.981 178.964 203.694 177.697L185.875 167.815C183.587 166.549 183.341 164.626 185.322 163.531L204.397 152.946C206.378 151.851 209.833 151.988 212.121 153.255L229.94 163.137C232.228 164.403 232.474 166.326 230.493 167.422Z" fill="white"/>
<path d="M208.174 165.052L203.926 157.775C201.912 158.136 200.02 158.753 198.422 159.639C193.033 162.624 193.033 167.473 198.422 170.459C203.81 173.445 212.545 173.445 217.934 170.459C223.323 167.473 223.323 162.624 217.934 159.639C217.77 159.547 217.593 159.468 217.422 159.383L208.174 165.052Z" fill="#C0F0FF"/>
<path d="M198.422 161.955C200.02 161.069 201.919 160.452 203.927 160.091L208.175 167.368L217.422 161.699C217.593 161.784 217.771 161.863 217.935 161.955C220.1 163.155 221.377 164.652 221.8 166.213C222.435 163.89 221.158 161.436 217.935 159.645C217.771 159.553 217.593 159.474 217.422 159.389L208.175 165.058L203.927 157.781C201.912 158.142 200.02 158.759 198.422 159.645C195.199 161.436 193.915 163.89 194.557 166.213C194.98 164.658 196.264 163.155 198.422 161.955Z" fill="url(#paint20_linear_1_879)"/>
<path d="M81.4775 168.898V166.09L76.0479 164.738L64.014 158.065C61.9856 156.943 58.926 156.818 57.1707 157.789L44.8432 164.627L39.0858 165.939V168.708C39.0858 168.767 39.0858 168.833 39.0858 168.892V168.938C39.1405 169.646 39.7005 170.381 40.7523 170.965L56.5424 179.725C58.5708 180.847 61.6305 180.972 63.3857 180.001L80.2891 170.624C81.1155 170.165 81.4979 169.542 81.4638 168.898H81.4775Z" fill="url(#paint21_linear_1_879)"/>
<path d="M80.303 167.67L63.3996 177.047C61.6444 178.018 58.5779 177.9 56.5563 176.772L40.7662 168.012C38.7378 166.89 38.5192 165.19 40.2745 164.212L57.1778 154.836C58.9331 153.864 61.9996 153.983 64.0211 155.111L79.8113 163.871C81.8397 164.993 82.0582 166.693 80.303 167.67Z" fill="white"/>
<path d="M69.8394 171.24C64.5737 174.16 56.0025 174.16 50.7368 171.24C45.4712 168.32 45.4712 163.563 50.7368 160.643C56.0025 157.723 64.5737 157.723 69.8394 160.643C75.105 163.563 75.105 168.32 69.8394 171.24ZM52.8267 161.804C48.7153 164.088 48.7153 167.795 52.8267 170.079C56.9382 172.362 63.6312 172.362 67.7427 170.079C71.8541 167.795 71.8541 164.088 67.7427 161.804C63.6312 159.521 56.9382 159.521 52.8267 161.804Z" fill="url(#paint22_linear_1_879)"/>
<path d="M64.4308 167.395L58.5573 166.43L58.7621 161.187L61.7262 161.227L61.5691 165.209L65.2708 165.82L64.4308 167.395Z" fill="url(#paint23_linear_1_879)"/>
<path d="M135.126 199.161L134.231 199.424C133.931 199.135 133.555 198.853 133.098 198.604C130.646 197.226 126.93 197.075 124.806 198.269L116.14 203.105L113.517 203.873V205.874C113.551 206.767 114.234 207.698 115.539 208.427C117.99 209.805 121.706 209.956 123.83 208.761L133.685 203.256C134.627 202.725 135.099 202.016 135.119 201.274V199.161H135.126Z" fill="url(#paint24_linear_1_879)"/>
<path d="M133.692 201.254L123.836 206.759C121.712 207.953 117.997 207.802 115.545 206.424C113.093 205.046 112.827 202.966 114.951 201.772L124.806 196.267C126.93 195.073 130.646 195.223 133.097 196.601C135.549 197.979 135.816 200.059 133.692 201.254Z" fill="url(#paint25_linear_1_879)"/>
<path d="M132.004 197.146C133.958 198.228 133.958 199.987 132.004 201.07C130.051 202.152 126.882 202.152 124.929 201.07C122.976 199.987 122.976 198.228 124.929 197.146C126.882 196.063 130.051 196.063 132.004 197.146Z" fill="url(#paint26_linear_1_879)"/>
<path d="M106.734 167.218L105.84 167.48C105.539 167.192 105.164 166.91 104.706 166.66C102.254 165.282 98.5389 165.131 96.4149 166.326L81.9224 174.462L79.2998 175.23V177.231C79.334 178.124 80.0169 179.055 81.3214 179.784C83.7732 181.162 87.4886 181.313 89.6126 180.118L105.3 171.312C106.243 170.781 106.714 170.072 106.734 169.331V167.218Z" fill="url(#paint27_linear_1_879)"/>
<path d="M105.301 169.31L89.6128 178.116C87.4888 179.31 83.7735 179.159 81.3216 177.781C78.8698 176.403 78.6034 174.323 80.7275 173.129L96.4152 164.323C98.5392 163.129 102.255 163.28 104.706 164.658C107.158 166.036 107.425 168.116 105.301 169.31Z" fill="url(#paint28_linear_1_879)"/>
<path d="M173.561 195.282L181.334 190.984L189.099 195.381L181.334 199.672L173.561 195.282Z" fill="url(#paint29_linear_1_879)"/>
<path d="M181.335 206.942V199.672L189.1 195.38V202.651L181.335 206.942Z" fill="#A887F9"/>
<path d="M173.561 195.284V202.547L181.334 206.944V199.673L173.561 195.284Z" fill="#C2AEFF"/>
<path d="M162.238 193.066L170.011 188.774L177.776 193.171L170.011 197.462L162.238 193.066Z" fill="url(#paint30_linear_1_879)"/>
<path d="M170.012 213.19V197.462L177.777 193.17V208.899L170.012 213.19Z" fill="#A887F9"/>
<path d="M162.238 193.066V208.794L170.011 213.191V197.462L162.238 193.066Z" fill="#C2AEFF"/>
<path d="M150.588 185.749L158.353 181.457L166.125 185.847L158.353 190.139L150.588 185.749Z" fill="url(#paint31_linear_1_879)"/>
<path d="M158.353 219.47V190.138L166.125 185.847V215.178L158.353 219.47Z" fill="#A887F9"/>
<path d="M150.588 185.749V215.08L158.353 219.47V190.139L150.588 185.749Z" fill="#C2AEFF"/>
<path d="M138.936 198.965L146.701 194.674L154.473 199.07L146.701 203.361L138.936 198.965Z" fill="url(#paint32_linear_1_879)"/>
<path d="M146.701 225.664V203.361L154.473 199.07V221.373L146.701 225.664Z" fill="#A887F9"/>
<path d="M138.936 198.965V221.269L146.701 225.665V203.361L138.936 198.965Z" fill="#C2AEFF"/>
<g style="mix-blend-mode:overlay">
<path d="M173.561 195.307L181.334 191.016L189.099 195.406L181.334 199.697L173.561 195.307Z" fill="url(#paint33_linear_1_879)"/>
<path d="M181.335 206.967V199.697L189.1 195.405V202.676L181.335 206.967Z" fill="#A887F9"/>
<path d="M173.561 195.307V202.571L181.334 206.968V199.697L173.561 195.307Z" fill="#C2AEFF"/>
<path d="M162.238 193.091L170.011 188.8L177.776 193.196L170.011 197.488L162.238 193.091Z" fill="url(#paint34_linear_1_879)"/>
<path d="M170.012 213.216V197.487L177.777 193.196V208.924L170.012 213.216Z" fill="#A887F9"/>
<path d="M162.238 193.091V208.82L170.011 213.216V197.488L162.238 193.091Z" fill="#C2AEFF"/>
<path d="M150.588 185.774L158.353 181.483L166.125 185.873L158.353 190.171L150.588 185.774Z" fill="url(#paint35_linear_1_879)"/>
<path d="M158.353 219.501V190.17L166.125 185.872V215.204L158.353 219.501Z" fill="#A887F9"/>
<path d="M150.588 185.774V215.105L158.353 219.502V190.17L150.588 185.774Z" fill="#C2AEFF"/>
<path d="M138.936 198.99L146.701 194.699L154.473 199.095L146.701 203.387L138.936 198.99Z" fill="url(#paint36_linear_1_879)"/>
<path d="M146.701 225.69V203.386L154.473 199.095V221.398L146.701 225.69Z" fill="#A887F9"/>
<path d="M138.936 198.99V221.3L146.701 225.69V203.387L138.936 198.99Z" fill="#C2AEFF"/>
</g>
<path d="M20.927 137.986L27.9001 134.127L34.8732 138.077L27.9001 141.929L20.927 137.986Z" fill="url(#paint37_linear_1_879)"/>
<path d="M27.901 161.961V141.928L34.8741 138.076V158.103L27.901 161.961Z" fill="#A887F9"/>
<path d="M20.927 137.986V158.013L27.9001 161.963V141.93L20.927 137.986Z" fill="#C2AEFF"/>
<path d="M10.4635 151.561L17.4366 147.703L24.4097 151.653L17.4366 155.505L10.4635 151.561Z" fill="url(#paint38_linear_1_879)"/>
<path d="M17.4375 167.532V155.504L24.4106 151.652V163.673L17.4375 167.532Z" fill="#A887F9"/>
<path d="M10.4635 151.562V163.583L17.4366 167.533V155.506L10.4635 151.562Z" fill="#C2AEFF"/>
<path d="M0 162.633L6.97307 158.774L13.9461 162.725L6.97307 166.576L0 162.633Z" fill="url(#paint39_linear_1_879)"/>
<path d="M6.974 173.098V166.575L13.9471 162.724V169.246L6.974 173.098Z" fill="#A887F9"/>
<path d="M0 162.633V169.156L6.97307 173.099V166.577L0 162.633Z" fill="#C2AEFF"/>
<g style="mix-blend-mode:overlay">
<path d="M20.927 138.011L27.9001 134.153L34.8732 138.103L27.9001 141.955L20.927 138.011Z" fill="url(#paint40_linear_1_879)"/>
<path d="M27.901 161.98V141.954L34.8741 138.102V158.128L27.901 161.98Z" fill="#A887F9"/>
<path d="M20.927 138.011V158.038L27.9001 161.982V141.955L20.927 138.011Z" fill="#C2AEFF"/>
<path d="M10.4635 151.58L17.4366 147.728L24.4097 151.672L17.4366 155.53L10.4635 151.58Z" fill="url(#paint41_linear_1_879)"/>
<path d="M17.4375 167.551V155.53L24.4106 151.671V163.699L17.4375 167.551Z" fill="#A887F9"/>
<path d="M10.4635 151.579V163.607L17.4366 167.551V155.53L10.4635 151.579Z" fill="#C2AEFF"/>
<path d="M0 162.651L6.97307 158.8L13.9461 162.743L6.97307 166.602L0 162.651Z" fill="url(#paint42_linear_1_879)"/>
<path d="M6.974 173.123V166.601L13.9471 162.743V169.272L6.974 173.123Z" fill="#A887F9"/>
<path d="M0 162.651V169.18L6.97307 173.123V166.601L0 162.651Z" fill="#C2AEFF"/>
</g>
<path d="M207.738 188.688L198.184 194.036L189.1 189.042L198.655 183.694L207.738 188.688ZM198.293 191.601L203.34 188.773L198.539 186.135L193.492 188.963L198.293 191.601Z" fill="url(#paint43_linear_1_879)"/>
<path d="M189.1 189.042V191.595L198.184 196.588V194.036L189.1 189.042Z" fill="#C2AEFF"/>
<path d="M207.739 188.687V191.24L198.184 196.588V194.035L207.739 188.687Z" fill="#9F84F4"/>
<path d="M198.545 186.135V188.681L201.045 190.059L203.346 188.773L198.545 186.135Z" fill="#C2AEFF"/>
<path d="M193.492 188.957L198.546 186.135V188.681L195.794 190.223L193.492 188.957Z" fill="#9F84F4"/>
<g style="mix-blend-mode:overlay">
<path d="M267.969 197.384L271.493 195.442L275.017 197.43L271.493 199.379L267.969 197.384Z" fill="url(#paint44_linear_1_879)"/>
<path d="M271.494 216.544V199.379L275.018 197.43V214.602L271.494 216.544Z" fill="url(#paint45_linear_1_879)"/>
<path d="M267.969 197.384V214.556L271.493 216.544V199.379L267.969 197.384Z" fill="url(#paint46_linear_1_879)"/>
</g>
<g style="mix-blend-mode:overlay">
<path d="M267.969 192.757L271.493 190.808L275.017 192.803L271.493 194.745L267.969 192.757Z" fill="url(#paint47_linear_1_879)"/>
<path d="M271.494 211.917V194.745L275.018 192.803V209.968L271.494 211.917Z" fill="url(#paint48_linear_1_879)"/>
<path d="M267.969 192.758V209.924L271.493 211.919V194.747L267.969 192.758Z" fill="url(#paint49_linear_1_879)"/>
</g>
<g style="mix-blend-mode:overlay">
<path d="M277.982 155.86L282.749 153.222L287.516 155.919L282.749 158.557L277.982 155.86Z" fill="url(#paint50_linear_1_879)"/>
<path d="M282.749 199.41V158.556L287.516 155.918V196.772L282.749 199.41Z" fill="url(#paint51_linear_1_879)"/>
<path d="M277.982 155.86V196.714L282.749 199.41V158.557L277.982 155.86Z" fill="url(#paint52_linear_1_879)"/>
</g>
<g style="mix-blend-mode:overlay">
<path d="M277.982 149.593L282.749 146.956L287.516 149.652L282.749 152.29L277.982 149.593Z" fill="url(#paint53_linear_1_879)"/>
<path d="M282.749 193.143V152.29L287.516 149.652V190.505L282.749 193.143Z" fill="url(#paint54_linear_1_879)"/>
<path d="M277.982 149.593V190.447L282.749 193.144V152.29L277.982 149.593Z" fill="url(#paint55_linear_1_879)"/>
</g>
<path d="M253.175 72.7216C248.75 68.417 248.606 72.2753 249.474 76.9473L168.365 31.776C164.766 30.0437 160.504 30.1683 157.028 32.1106L38.0142 97.9845C33.1924 95.865 28.7668 95.176 26.7794 98.2863C23.1802 103.936 25.5979 107.007 27.6331 108.903C28.1112 109.409 28.7258 109.881 29.4908 110.294C29.5591 110.334 29.5932 110.353 29.5932 110.353L112.881 156.693C116.419 158.392 120.612 158.268 124.034 156.352L251.919 85.4908C251.919 85.4908 261.644 80.9697 253.169 72.7281L253.175 72.7216Z" fill="url(#paint56_linear_1_879)"/>
<path style="mix-blend-mode:multiply" opacity="0.8" d="M253.175 72.7216C248.75 68.417 248.606 72.2753 249.474 76.9473L168.365 31.776C164.766 30.0437 160.504 30.1683 157.028 32.1106L38.0142 97.9845C33.1924 95.865 28.7668 95.176 26.7794 98.2863C23.1802 103.936 25.5979 107.007 27.6331 108.903C28.1112 109.409 28.7258 109.881 29.4908 110.294C29.5591 110.334 29.5932 110.353 29.5932 110.353L112.881 156.693C116.419 158.392 120.612 158.268 124.034 156.352L251.919 85.4908C251.919 85.4908 261.644 80.9697 253.169 72.7281L253.175 72.7216Z" fill="url(#paint57_linear_1_879)"/>
<path style="mix-blend-mode:multiply" opacity="0.8" d="M253.175 72.7216C248.75 68.417 248.606 72.2753 249.474 76.9473L168.365 31.776C164.766 30.0437 160.504 30.1683 157.028 32.1106L38.0142 97.9845C33.1924 95.865 28.7668 95.176 26.7794 98.2863C23.1802 103.936 25.5979 107.007 27.6331 108.903C28.1112 109.409 28.7258 109.881 29.4908 110.294C29.5591 110.334 29.5932 110.353 29.5932 110.353L112.881 156.693C116.419 158.392 120.612 158.268 124.034 156.352L251.919 85.4908C251.919 85.4908 261.644 80.9697 253.169 72.7281L253.175 72.7216Z" fill="url(#paint58_linear_1_879)"/>
<path d="M28.596 96.5134L156.973 25.4558C160.449 23.5135 164.718 23.3888 168.31 25.1211L251.604 71.513C254.978 73.1403 255.122 77.7073 251.864 79.5315L123.979 150.392C120.557 152.302 116.371 152.433 112.826 150.733L29.5385 104.394C25.4475 102.052 25.6797 98.3835 28.596 96.5069V96.5134Z" fill="url(#paint59_linear_1_879)"/>
<path d="M34.388 97.891L122.723 146.205C123.371 146.514 124.13 146.488 124.751 146.14L246.298 79.1964C246.783 78.9274 246.763 78.245 246.264 78.0022L158.046 29.2678C157.458 28.9856 156.762 29.0053 156.195 29.3203L34.347 96.7952C33.9031 97.0445 33.9236 97.6745 34.388 97.891Z" fill="url(#paint60_linear_1_879)"/>
<path d="M34.2589 97.6806L156.107 30.2057C156.673 29.8907 157.37 29.871 157.957 30.1532L246.176 78.8876C246.258 78.927 246.326 78.986 246.381 79.0451C246.695 78.7301 246.627 78.1789 246.19 77.9689L157.971 29.2345C157.384 28.9524 156.687 28.972 156.12 29.287L34.2725 96.7619C33.8832 96.9785 33.8491 97.4837 34.1564 97.7593C34.1906 97.7331 34.2179 97.7068 34.2589 97.6806Z" fill="url(#paint61_linear_1_879)"/>
<path d="M69.5057 122.164L69.451 122.132C69.1574 121.974 69.1983 121.692 69.533 121.502C69.8677 121.318 70.373 121.292 70.6667 121.456L70.7214 121.488C71.015 121.646 70.9741 121.928 70.6394 122.118C70.3047 122.302 69.7993 122.328 69.5057 122.164Z" fill="url(#paint62_linear_1_879)"/>
<path d="M81.2251 128.607L71.1514 123.069C70.8577 122.912 70.8987 122.63 71.2333 122.439C71.568 122.256 72.0734 122.229 72.367 122.393L82.4408 127.932C82.7344 128.089 82.6935 128.371 82.3588 128.562C82.0242 128.745 81.5188 128.772 81.2251 128.607Z" fill="url(#paint63_linear_1_879)"/>
<path d="M207.088 54.1112L200.894 50.7384C199.665 50.0494 199.828 48.8552 201.256 48.0743C202.683 47.2935 204.835 47.2147 206.064 47.9037L212.258 51.2765C213.488 51.9655 213.324 53.1597 211.896 53.9406C210.469 54.7214 208.318 54.8002 207.088 54.1112Z" fill="url(#paint64_linear_1_879)"/>
<path d="M201.037 49.0642C202.465 48.2834 204.616 48.2046 205.846 48.8936L212.04 52.2664C212.477 52.5092 212.737 52.8241 212.825 53.1522C213.29 52.4895 213.112 51.7546 212.252 51.2755L206.057 47.9028C204.828 47.2138 202.677 47.286 201.249 48.0734C200.334 48.5786 199.938 49.2479 200.102 49.8516C200.3 49.5695 200.607 49.3004 201.031 49.0642H201.037Z" fill="url(#paint65_linear_1_879)"/>
<path d="M147.781 139.283C147.617 139.237 147.446 139.263 147.289 139.335L142.071 142.249C141.825 142.386 141.62 142.636 141.518 142.971C141.354 143.528 141.566 144.079 141.996 144.198C142.153 144.243 142.317 144.217 142.474 144.152C142.488 144.145 142.501 144.132 142.522 144.125L147.637 141.264C147.91 141.146 148.149 140.871 148.259 140.51C148.423 139.952 148.211 139.401 147.781 139.283Z" fill="url(#paint66_linear_1_879)"/>
<path d="M148.3 139.644C148.136 139.598 147.966 139.624 147.809 139.696L142.591 142.61C142.345 142.748 142.14 142.997 142.037 143.332C141.874 143.889 142.085 144.441 142.516 144.559C142.673 144.605 142.837 144.578 142.994 144.513C143.007 144.506 143.021 144.493 143.041 144.487L148.157 141.626C148.43 141.507 148.669 141.232 148.778 140.871C148.942 140.313 148.731 139.762 148.3 139.644Z" fill="url(#paint67_linear_1_879)"/>
<path d="M155.827 134.887C155.663 134.841 155.493 134.867 155.335 134.939L150.118 137.853C149.872 137.991 149.667 138.24 149.564 138.575C149.401 139.132 149.612 139.684 150.043 139.802C150.2 139.848 150.364 139.821 150.521 139.756C150.534 139.749 150.548 139.736 150.568 139.729L155.684 136.869C155.957 136.75 156.196 136.475 156.305 136.114C156.469 135.556 156.257 135.005 155.827 134.887Z" fill="url(#paint68_linear_1_879)"/>
<path d="M156.347 135.248C156.183 135.202 156.012 135.228 155.855 135.301L150.637 138.214C150.391 138.352 150.186 138.601 150.084 138.936C149.92 139.493 150.132 140.045 150.562 140.163C150.719 140.209 150.883 140.182 151.04 140.117C151.054 140.11 151.067 140.097 151.088 140.091L156.203 137.23C156.476 137.112 156.716 136.836 156.825 136.475C156.989 135.917 156.777 135.366 156.347 135.248Z" fill="url(#paint69_linear_1_879)"/>
<path d="M139.722 143.797C139.558 143.752 139.388 143.778 139.231 143.85L137.96 144.526C137.714 144.664 137.51 144.913 137.407 145.248C137.243 145.805 137.455 146.357 137.885 146.475C138.042 146.521 138.206 146.494 138.363 146.429C138.377 146.422 138.391 146.409 138.411 146.402L139.579 145.779C139.852 145.661 140.091 145.385 140.2 145.024C140.364 144.467 140.153 143.916 139.722 143.797Z" fill="url(#paint70_linear_1_879)"/>
<path d="M140.234 144.159C140.07 144.113 139.899 144.139 139.742 144.211L138.472 144.887C138.226 145.025 138.021 145.274 137.919 145.609C137.755 146.167 137.967 146.718 138.397 146.836C138.554 146.882 138.718 146.856 138.875 146.79C138.889 146.783 138.902 146.77 138.923 146.764L140.091 146.14C140.364 146.022 140.603 145.747 140.712 145.386C140.876 144.828 140.664 144.277 140.234 144.159Z" fill="url(#paint71_linear_1_879)"/>
<path d="M106.946 150.392C107.048 151.409 106.447 151.934 105.614 151.567C104.774 151.199 104.016 150.077 103.92 149.06C103.824 148.043 104.419 147.518 105.252 147.885C106.085 148.253 106.85 149.375 106.946 150.392Z" fill="url(#paint72_linear_1_879)"/>
<path d="M106.208 152.012C105.976 152.032 105.723 151.979 105.47 151.868C104.521 151.448 103.688 150.234 103.572 149.092C103.51 148.436 103.701 147.905 104.104 147.629C104.459 147.386 104.91 147.373 105.395 147.583C106.344 148.003 107.178 149.223 107.294 150.359C107.362 151.015 107.164 151.546 106.761 151.822C106.597 151.933 106.413 151.999 106.215 152.012H106.208ZM104.705 148.095C104.63 148.095 104.562 148.121 104.5 148.16C104.309 148.292 104.214 148.613 104.255 149.02C104.343 149.912 105.026 150.936 105.75 151.258C105.928 151.336 106.174 151.402 106.351 151.277C106.542 151.146 106.638 150.825 106.597 150.418C106.508 149.525 105.825 148.502 105.101 148.18C104.985 148.128 104.842 148.082 104.698 148.095H104.705Z" fill="#E7E1FF"/>
<path style="mix-blend-mode:overlay" d="M34.388 88.1487L122.723 136.463C123.371 136.772 124.13 136.745 124.751 136.398L246.298 69.4542C246.783 69.1852 246.763 68.5027 246.264 68.2599L158.046 19.5255C157.458 19.2434 156.762 19.263 156.195 19.578L34.347 87.0529C33.9031 87.3023 33.9236 87.9322 34.388 88.1487Z" fill="url(#paint73_linear_1_879)"/>
<g style="mix-blend-mode:overlay">
<path d="M124.109 126.482C123.631 126.482 123.146 126.377 122.702 126.167L34.333 77.8391C33.8003 77.5701 33.4588 77.0517 33.4315 76.4677C33.411 75.8772 33.7252 75.3194 34.2647 75.0241L156.112 7.54923C156.98 7.06366 158.032 7.03742 158.933 7.47049L247.206 56.2312C247.725 56.4805 248.087 57.0317 248.108 57.642C248.128 58.2522 247.794 58.8231 247.24 59.1315L125.693 126.075C125.201 126.344 124.655 126.482 124.109 126.482ZM35.8628 76.4152L123.658 124.434C123.945 124.566 124.341 124.553 124.669 124.375L245.738 57.6944L157.963 9.20937C157.738 9.10438 157.41 9.11094 157.144 9.26186L35.8628 76.4218V76.4152Z" fill="url(#paint74_linear_1_879)"/>
</g>
<path d="M134.509 90.9513V87.3489L127.543 85.6166L112.101 77.0469C109.499 75.6033 105.565 75.4458 103.318 76.6991L87.5009 85.4722L80.118 87.152V90.7085C80.118 90.7873 80.118 90.866 80.118 90.9447V90.9972C80.1932 91.9093 80.9103 92.8542 82.2557 93.6023L102.519 104.843C105.121 106.286 109.055 106.444 111.302 105.19L132.993 93.1561C134.052 92.5655 134.544 91.7715 134.503 90.9447L134.509 90.9513Z" fill="url(#paint75_linear_1_879)"/>
<path d="M133 89.3765L111.309 101.411C109.055 102.658 105.122 102.5 102.526 101.063L82.2627 89.8227C79.6606 88.3791 79.3806 86.2006 81.6344 84.9473L103.325 72.9129C105.579 71.6662 109.513 71.8237 112.108 73.2607L132.372 84.5011C134.974 85.9447 135.254 88.1232 133 89.3765Z" fill="white"/>
<path d="M126.417 86.3976C123.33 85.538 118.324 84.5997 115.189 86.3386C114.588 86.6732 114.069 86.9619 113.612 87.2178L111.706 86.4107C111.74 85.7611 111.419 85.1049 110.743 84.5406L107.021 81.3188C106.932 81.24 106.843 81.1547 106.741 81.076L106.666 81.0104C106.441 80.8398 106.188 80.6692 105.908 80.5117C103.019 78.9106 98.3337 78.9106 95.4448 80.5117C92.5558 82.1128 92.5558 84.7112 95.4448 86.3189C95.718 86.4698 96.0116 86.601 96.3121 86.7257L96.4283 86.7716C96.599 86.8373 96.7697 86.8963 96.9473 86.9554L102.705 89.0026C103.722 89.3767 104.904 89.5538 106.079 89.5342L107.54 90.5906C107.082 90.8399 106.57 91.1287 105.976 91.4568C102.834 93.2022 104.521 95.9778 106.065 97.6905C106.775 98.4779 108.653 98.6485 109.773 98.0317L118.235 93.3334L118.604 93.13L127.039 88.4515C128.159 87.8281 127.845 86.7848 126.431 86.391L126.417 86.3976Z" fill="#C0F0FF"/>
<path d="M95.4298 82.4266C98.3187 80.8255 103.004 80.8255 105.893 82.4266C106.173 82.5841 106.426 82.7547 106.651 82.9253L106.726 82.9844C106.829 83.0631 106.917 83.1418 107.006 83.2271L110.728 86.449C111.404 87.0133 111.725 87.6695 111.691 88.3191L113.597 89.1262C114.054 88.8703 114.58 88.5816 115.174 88.2469C118.309 86.508 123.315 87.4464 126.402 88.306C126.594 88.3585 126.757 88.4241 126.908 88.4963L127.01 88.4438C128.13 87.8204 127.816 86.7771 126.402 86.3834C123.315 85.5238 118.309 84.5854 115.174 86.3243C114.573 86.659 114.054 86.9477 113.597 87.2036L111.691 86.3965C111.725 85.7469 111.404 85.0907 110.728 84.5264L107.006 81.3045C106.917 81.2258 106.829 81.1405 106.726 81.0618L106.651 80.9961C106.426 80.8255 106.173 80.6549 105.893 80.4974C103.004 78.8964 98.3187 78.8964 95.4298 80.4974C93.538 81.5473 92.896 83.0172 93.4765 84.3623C93.7839 83.6537 94.4327 82.9778 95.4298 82.42V82.4266Z" fill="url(#paint76_linear_1_879)"/>
<path d="M105.955 93.372C106.549 93.0439 107.062 92.7551 107.519 92.5058V90.5898C107.519 90.5898 106.003 91.4428 105.969 91.4428C105.969 91.4428 105.962 91.4428 105.955 91.4493C104.18 92.4336 103.947 93.7525 104.357 95.019C104.589 94.4218 105.081 93.8575 105.955 93.372Z" fill="url(#paint77_linear_1_879)"/>
<path d="M150.594 96.0694L149.699 96.3319C149.398 96.0431 149.023 95.761 148.565 95.5116C146.113 94.1337 142.398 93.9827 140.274 95.177L125.781 103.314L123.159 104.081V106.083C123.193 106.975 123.876 107.907 125.18 108.635C127.632 110.013 131.348 110.164 133.472 108.97L149.159 100.164C150.102 99.6324 150.573 98.9238 150.594 98.1823V96.0694Z" fill="url(#paint78_linear_1_879)"/>
<path d="M149.16 98.1616L133.472 106.968C131.348 108.162 127.632 108.011 125.181 106.633C122.729 105.255 122.462 103.175 124.586 101.981L140.274 93.1747C142.398 91.9804 146.114 92.1314 148.565 93.5093C151.017 94.8873 151.284 96.9674 149.16 98.1616Z" fill="url(#paint79_linear_1_879)"/>
<path d="M209.616 69.5196L208.721 69.7821C208.421 69.4934 208.045 69.2112 207.588 68.9619C205.136 67.5839 201.42 67.433 199.296 68.6272L190.63 73.4632L188.007 74.231V76.2323C188.041 77.1247 188.724 78.0565 190.029 78.7849C192.48 80.1628 196.196 80.3138 198.32 79.1195L208.175 73.6142C209.117 73.0827 209.589 72.374 209.609 71.6325V69.5196H209.616Z" fill="url(#paint80_linear_1_879)"/>
<path d="M208.181 71.6118L198.326 77.1172C196.202 78.3114 192.487 78.1605 190.035 76.7825C187.583 75.4046 187.317 73.3245 189.441 72.1302L199.296 66.6249C201.42 65.4306 205.135 65.5816 207.587 66.9595C210.039 68.3375 210.305 70.4176 208.181 71.6118Z" fill="url(#paint81_linear_1_879)"/>
<path d="M206.488 67.4976C208.441 68.5803 208.441 70.3388 206.488 71.4215C204.535 72.5042 201.366 72.5042 199.412 71.4215C197.459 70.3388 197.459 68.5803 199.412 67.4976C201.366 66.4149 204.535 66.4149 206.488 67.4976Z" fill="url(#paint82_linear_1_879)"/>
<path d="M160.285 29.658L167.183 25.8456L174.074 29.7433L167.183 33.5557L160.285 29.658Z" fill="url(#paint83_linear_1_879)"/>
<path d="M167.183 40.0052V33.5549L174.074 29.7425L174.081 36.1993L167.183 40.0052Z" fill="#A887F9"/>
<path d="M160.285 29.6584V36.1086L167.183 40.0063V33.5561L160.285 29.6584Z" fill="#C2AEFF"/>
<path d="M150.232 27.689L157.13 23.8766L164.021 27.7809L157.13 31.5933L150.232 27.689Z" fill="url(#paint84_linear_1_879)"/>
<path d="M157.13 45.5557V31.5922L164.021 27.7798V41.7433L157.13 45.5557Z" fill="#A887F9"/>
<path d="M150.232 27.6894V41.6529L157.13 45.5571V31.5936L150.232 27.6894Z" fill="#C2AEFF"/>
<path d="M139.885 21.1926L146.782 17.3802L153.68 21.2844L146.782 25.0903L139.885 21.1926Z" fill="url(#paint85_linear_1_879)"/>
<path d="M146.782 51.133V25.0892L153.68 21.2834V47.3206L146.782 51.133Z" fill="#A887F9"/>
<path d="M139.885 21.1929V47.2301L146.782 51.1344V25.0906L139.885 21.1929Z" fill="#C2AEFF"/>
<path d="M129.539 32.926L136.437 29.1136L143.335 33.0179L136.437 36.8303L129.539 32.926Z" fill="url(#paint86_linear_1_879)"/>
<path d="M136.436 56.6328V36.8293L143.334 33.0169V52.8204L136.436 56.6328Z" fill="#A887F9"/>
<path d="M129.539 32.9264V52.7299L136.437 56.6342V36.8307L129.539 32.9264Z" fill="#C2AEFF"/>
<path d="M119.199 46.3498L126.097 42.5374L132.988 46.4351L126.097 50.2475L119.199 46.3498Z" fill="url(#paint87_linear_1_879)"/>
<path d="M126.097 62.1367V50.2467L132.988 46.4343V58.3243L126.097 62.1367Z" fill="#A887F9"/>
<path d="M119.199 46.3502V58.2336L126.097 62.1378V50.2479L119.199 46.3502Z" fill="#C2AEFF"/>
<path d="M108.852 57.2894L115.75 53.4836L122.648 57.3813L115.75 61.1937L108.852 57.2894Z" fill="url(#paint88_linear_1_879)"/>
<path d="M115.75 67.6431V61.1929L122.647 57.3805V63.8307L115.75 67.6431Z" fill="#A887F9"/>
<path d="M108.852 57.2902V63.747L115.75 67.6447V61.1945L108.852 57.2902Z" fill="#C2AEFF"/>
<g style="mix-blend-mode:overlay">
<path d="M160.285 29.6768L167.183 25.871L174.074 29.7687L167.183 33.5811L160.285 29.6768Z" fill="url(#paint89_linear_1_879)"/>
<path d="M167.183 40.0305V33.5803L174.074 29.7679L174.081 36.2181L167.183 40.0305Z" fill="#A887F9"/>
<path d="M160.285 29.6776V36.1278L167.183 40.0321V33.5819L160.285 29.6776Z" fill="#C2AEFF"/>
<path d="M150.232 27.7143L157.13 23.9019L164.021 27.7996L157.13 31.612L150.232 27.7143Z" fill="url(#paint90_linear_1_879)"/>
<path d="M157.13 45.5813V31.6112L164.021 27.7988V41.7689L157.13 45.5813Z" fill="#A887F9"/>
<path d="M150.232 27.7147V41.6782L157.13 45.5824V31.6124L150.232 27.7147Z" fill="#C2AEFF"/>
<path d="M139.885 21.2114L146.782 17.4056L153.68 21.3033L146.782 25.1157L139.885 21.2114Z" fill="url(#paint91_linear_1_879)"/>
<path d="M146.782 51.1586V25.1148L153.68 21.3024V47.3461L146.782 51.1586Z" fill="#A887F9"/>
<path d="M139.885 21.2121V47.2559L146.782 51.1601V25.1164L139.885 21.2121Z" fill="#C2AEFF"/>
<path d="M129.539 32.9514L136.437 29.139L143.335 33.0433L136.437 36.8491L129.539 32.9514Z" fill="url(#paint92_linear_1_879)"/>
<path d="M136.436 56.6516V36.8481L143.334 33.0422V52.8457L136.436 56.6516Z" fill="#A887F9"/>
<path d="M129.539 32.9518V52.7552L136.437 56.6529V36.8495L129.539 32.9518Z" fill="#C2AEFF"/>
<path d="M119.199 46.3686L126.097 42.5627L132.988 46.4604L126.097 50.2728L119.199 46.3686Z" fill="url(#paint93_linear_1_879)"/>
<path d="M126.097 62.162V50.272L132.988 46.4596V58.3496L126.097 62.162Z" fill="#A887F9"/>
<path d="M119.199 46.3694V58.2593L126.097 62.1636V50.2736L119.199 46.3694Z" fill="#C2AEFF"/>
<path d="M108.852 57.315L115.75 53.5026L122.648 57.4069L115.75 61.2193L108.852 57.315Z" fill="url(#paint94_linear_1_879)"/>
<path d="M115.75 67.6685V61.2182L122.647 57.4058V63.8561L115.75 67.6685Z" fill="#A887F9"/>
<path d="M108.852 57.3154V63.7656L115.75 67.6699V61.2196L108.852 57.3154Z" fill="#C2AEFF"/>
</g>
<path d="M184.537 51.5989L171.725 58.7709L159.534 52.0713L172.346 44.8993L184.537 51.5989ZM171.875 55.5032L178.643 51.7104L172.203 48.1671L165.435 51.9598L171.875 55.5032Z" fill="url(#paint95_linear_1_879)"/>
<path d="M159.54 52.0706V55.4958L171.724 62.1954V58.7701L159.54 52.0706Z" fill="#C2AEFF"/>
<path d="M184.537 51.6001V55.0253L171.725 62.1974V58.7721L184.537 51.6001Z" fill="#9F84F4"/>
<path d="M172.203 48.1737V51.5924L175.563 53.4362L178.643 51.7105L172.203 48.1737Z" fill="#C2AEFF"/>
<path d="M165.435 51.9598L172.204 48.1737V51.5924L168.515 53.6528L165.435 51.9598Z" fill="#9F84F4"/>
<g style="mix-blend-mode:overlay">
<path d="M67.0471 42.3981L71.5547 39.9046L76.0623 42.4571L71.5547 44.9441L67.0471 42.3981Z" fill="url(#paint96_linear_1_879)"/>
<path d="M71.5551 83.5547V44.9451L76.0626 42.4582V81.0678L71.5551 83.5547Z" fill="url(#paint97_linear_1_879)"/>
<path d="M67.0471 42.398V81.0076L71.5547 83.5536V44.944L67.0471 42.398Z" fill="url(#paint98_linear_1_879)"/>
</g>
<g style="mix-blend-mode:overlay">
<path d="M67.0471 36.4733L71.5547 33.9864L76.0623 36.5323L71.5547 39.0258L67.0471 36.4733Z" fill="url(#paint99_linear_1_879)"/>
<path d="M71.5551 77.6367V39.0271L76.0626 36.5336V75.1432L71.5551 77.6367Z" fill="url(#paint100_linear_1_879)"/>
<path d="M67.0471 36.4734V75.083L71.5547 77.6355V39.026L67.0471 36.4734Z" fill="url(#paint101_linear_1_879)"/>
</g>
<g style="mix-blend-mode:overlay">
<path d="M57.4036 74.8727L61.0233 72.8713L64.643 74.9186L61.0233 76.9199L57.4036 74.8727Z" fill="url(#paint102_linear_1_879)"/>
<path d="M61.0233 94.5574V76.9193L64.643 74.918V92.5561L61.0233 94.5574Z" fill="url(#paint103_linear_1_879)"/>
<path d="M57.4036 74.8736V92.5117L61.0233 94.559V76.9209L57.4036 74.8736Z" fill="url(#paint104_linear_1_879)"/>
</g>
<g style="mix-blend-mode:overlay">
<path d="M57.4036 70.109L61.0233 68.1142L64.643 70.1615L61.0233 72.1629L57.4036 70.109Z" fill="url(#paint105_linear_1_879)"/>
<path d="M61.0233 89.8004V72.1623L64.643 70.1609V87.799L61.0233 89.8004Z" fill="url(#paint106_linear_1_879)"/>
<path d="M57.4036 70.1086V87.7467L61.0233 89.8006V72.1625L57.4036 70.1086Z" fill="url(#paint107_linear_1_879)"/>
</g>
<path d="M269.374 82.9124L278.683 77.768L287.998 83.0371L278.683 88.1815L269.374 82.9124Z" fill="url(#paint108_linear_1_879)"/>
<path d="M278.684 114.92V88.1812L287.999 83.0367V109.776L278.684 114.92Z" fill="#A887F9"/>
<path d="M269.374 82.9132V109.652L278.683 114.922V88.1823L269.374 82.9132Z" fill="#C2AEFF"/>
<path d="M255.407 101.036L264.716 95.8918L274.031 101.161L264.716 106.305L255.407 101.036Z" fill="url(#paint109_linear_1_879)"/>
<path d="M264.717 122.355V106.305L274.032 101.161V117.211L264.717 122.355Z" fill="#A887F9"/>
<path d="M255.407 101.037V117.094L264.716 122.356V106.306L255.407 101.037Z" fill="#C2AEFF"/>
<path d="M241.441 115.814L250.75 110.67L260.059 115.939L250.75 121.083L241.441 115.814Z" fill="url(#paint110_linear_1_879)"/>
<path d="M250.751 129.791V121.083L260.06 115.939V124.646L250.751 129.791Z" fill="#A887F9"/>
<path d="M241.441 115.815V124.529L250.75 129.792V121.084L241.441 115.815Z" fill="#C2AEFF"/>
<g style="mix-blend-mode:overlay">
<path d="M269.374 82.9458L278.683 77.8014L287.998 83.0705L278.683 88.215L269.374 82.9458Z" fill="url(#paint111_linear_1_879)"/>
<path d="M278.684 114.954V88.2145L287.999 83.07V109.809L278.684 114.954Z" fill="#A887F9"/>
<path d="M269.374 82.9465V109.686L278.683 114.955V88.2156L269.374 82.9465Z" fill="#C2AEFF"/>
<path d="M255.407 101.07L264.716 95.9251L274.031 101.194L264.716 106.339L255.407 101.07Z" fill="url(#paint112_linear_1_879)"/>
<path d="M264.717 122.388V106.338L274.032 101.194V117.244L264.717 122.388Z" fill="#A887F9"/>
<path d="M255.407 101.07V117.127L264.716 122.39V106.339L255.407 101.07Z" fill="#C2AEFF"/>
<path d="M241.441 115.848L250.75 110.703L260.059 115.972L250.75 121.117L241.441 115.848Z" fill="url(#paint113_linear_1_879)"/>
<path d="M250.751 129.83V121.116L260.06 115.972V124.679L250.751 129.83Z" fill="#A887F9"/>
<path d="M241.441 115.848V124.562L250.75 129.832V121.118L241.441 115.848Z" fill="#C2AEFF"/>
</g>
<defs>
<linearGradient id="paint0_linear_1_879" x1="160.983" y1="205.006" x2="148.827" y2="205.006" gradientUnits="userSpaceOnUse">
<stop stop-color="#A688FF"/>
<stop offset="1" stop-color="#C0ABFF"/>
</linearGradient>
<linearGradient id="paint1_linear_1_879" x1="192.612" y1="232.769" x2="190.626" y2="229.125" gradientUnits="userSpaceOnUse">
<stop stop-color="#3300BF"/>
<stop offset="1" stop-color="#C0ABFF"/>
</linearGradient>
<linearGradient id="paint2_linear_1_879" x1="138.226" y1="261.786" x2="141.479" y2="255.964" gradientUnits="userSpaceOnUse">
<stop stop-color="#3300BF"/>
<stop offset="1" stop-color="#C0ABFF"/>
</linearGradient>
<linearGradient id="paint3_linear_1_879" x1="381.646" y1="386.584" x2="178.025" y2="186.648" gradientUnits="userSpaceOnUse">
<stop stop-color="#9C74FF"/>
<stop offset="1" stop-color="#FFF6FF"/>
</linearGradient>
<linearGradient id="paint4_linear_1_879" x1="97.2698" y1="227.953" x2="117.218" y2="235.915" gradientUnits="userSpaceOnUse">
<stop stop-color="#3124FF"/>
<stop offset="1" stop-color="#00FFE2"/>
</linearGradient>
<linearGradient id="paint5_linear_1_879" x1="96.7516" y1="229.265" x2="116.693" y2="237.227" gradientUnits="userSpaceOnUse">
<stop stop-color="#3124FF"/>
<stop offset="1" stop-color="#00FFE2"/>
</linearGradient>
<linearGradient id="paint6_linear_1_879" x1="165.579" y1="244.035" x2="180.98" y2="237.344" gradientUnits="userSpaceOnUse">
<stop stop-color="#3818D6"/>
<stop offset="1" stop-color="#13FFE2"/>
</linearGradient>
<linearGradient id="paint7_linear_1_879" x1="176.375" y1="248.746" x2="168.922" y2="241.433" gradientUnits="userSpaceOnUse">
<stop stop-color="#9C74FF"/>
<stop offset="1" stop-color="#FFF6FF"/>
</linearGradient>
<linearGradient id="paint8_linear_1_879" x1="175.113" y1="238.825" x2="190.508" y2="232.141" gradientUnits="userSpaceOnUse">
<stop stop-color="#3818D6"/>
<stop offset="1" stop-color="#13FFE2"/>
</linearGradient>
<linearGradient id="paint9_linear_1_879" x1="185.904" y1="243.54" x2="178.452" y2="236.22" gradientUnits="userSpaceOnUse">
<stop stop-color="#9C74FF"/>
<stop offset="1" stop-color="#FFF6FF"/>
</linearGradient>
<linearGradient id="paint10_linear_1_879" x1="160.545" y1="247.185" x2="166.988" y2="244.384" gradientUnits="userSpaceOnUse">
<stop stop-color="#3818D6"/>
<stop offset="1" stop-color="#13FFE2"/>
</linearGradient>
<linearGradient id="paint11_linear_1_879" x1="166.805" y1="250.63" x2="162.096" y2="246.005" gradientUnits="userSpaceOnUse">
<stop stop-color="#9C74FF"/>
<stop offset="1" stop-color="#FFF6FF"/>
</linearGradient>
<linearGradient id="paint12_linear_1_879" x1="117.054" y1="222.526" x2="614.77" y2="-1.16904" gradientUnits="userSpaceOnUse">
<stop stop-color="#0E9CFF"/>
<stop offset="1" stop-color="#FFF6FF"/>
</linearGradient>
<linearGradient id="paint13_linear_1_879" x1="89.5106" y1="223.707" x2="430.018" y2="70.6689" gradientUnits="userSpaceOnUse">
<stop stop-color="#0E9CFF"/>
<stop offset="1" stop-color="#FFF6FF"/>
</linearGradient>
<linearGradient id="paint14_linear_1_879" x1="107.951" y1="216.056" x2="448.451" y2="63.0179" gradientUnits="userSpaceOnUse">
<stop stop-color="#0E9CFF"/>
<stop offset="1" stop-color="#FFF6FF"/>
</linearGradient>
<linearGradient id="paint15_linear_1_879" x1="87.4677" y1="215.971" x2="259.643" y2="138.585" gradientUnits="userSpaceOnUse">
<stop stop-color="#0E9CFF"/>
<stop offset="1" stop-color="#FFF6FF"/>
</linearGradient>
<linearGradient id="paint16_linear_1_879" x1="87.4677" y1="215.971" x2="259.643" y2="138.585" gradientUnits="userSpaceOnUse">
<stop stop-color="#0E9CFF"/>
<stop offset="1" stop-color="#FFF6FF"/>
</linearGradient>
<linearGradient id="paint17_linear_1_879" x1="87.3322" y1="215.971" x2="259.507" y2="138.585" gradientUnits="userSpaceOnUse">
<stop stop-color="#0E9CFF"/>
<stop offset="1" stop-color="#FFF6FF"/>
</linearGradient>
<linearGradient id="paint18_linear_1_879" x1="87.3322" y1="215.971" x2="259.507" y2="138.585" gradientUnits="userSpaceOnUse">
<stop stop-color="#0E9CFF"/>
<stop offset="1" stop-color="#FFF6FF"/>
</linearGradient>
<linearGradient id="paint19_linear_1_879" x1="203.816" y1="168.747" x2="211.903" y2="168.875" gradientUnits="userSpaceOnUse">
<stop stop-color="#0E7AFF"/>
<stop offset="1" stop-color="#0096FF"/>
</linearGradient>
<linearGradient id="paint20_linear_1_879" x1="199.891" y1="171.784" x2="215.711" y2="156.619" gradientUnits="userSpaceOnUse">
<stop stop-color="#0E9CFF"/>
<stop offset="1" stop-color="#A7E5FF"/>
</linearGradient>
<linearGradient id="paint21_linear_1_879" x1="56.6585" y1="168.839" x2="63.8295" y2="168.96" gradientUnits="userSpaceOnUse">
<stop stop-color="#0E7AFF"/>
<stop offset="1" stop-color="#0096FF"/>
</linearGradient>
<linearGradient id="paint22_linear_1_879" x1="36.5312" y1="186.962" x2="68.1327" y2="156.673" gradientUnits="userSpaceOnUse">
<stop stop-color="#0E9CFF"/>
<stop offset="1" stop-color="#A7E5FF"/>
</linearGradient>
<linearGradient id="paint23_linear_1_879" x1="58.8441" y1="166.725" x2="63.0936" y2="162.652" gradientUnits="userSpaceOnUse">
<stop stop-color="#0E9CFF"/>
<stop offset="1" stop-color="#A7E5FF"/>
</linearGradient>
<linearGradient id="paint24_linear_1_879" x1="116.993" y1="203.742" x2="123.693" y2="203.514" gradientUnits="userSpaceOnUse">
<stop stop-color="#0E7AFF"/>
<stop offset="1" stop-color="#0096FF"/>
</linearGradient>
<linearGradient id="paint25_linear_1_879" x1="115.06" y1="185.643" x2="124.913" y2="203.926" gradientUnits="userSpaceOnUse">
<stop stop-color="#A7E5FF"/>
<stop offset="1" stop-color="white"/>
</linearGradient>
<linearGradient id="paint26_linear_1_879" x1="130.837" y1="200.709" x2="126.982" y2="197.886" gradientUnits="userSpaceOnUse">
<stop stop-color="#0E7AFF"/>
<stop offset="1" stop-color="#0096FF"/>
</linearGradient>
<linearGradient id="paint27_linear_1_879" x1="83.1586" y1="172.474" x2="91.8619" y2="173.184" gradientUnits="userSpaceOnUse">
<stop stop-color="#0E7AFF"/>
<stop offset="1" stop-color="#0096FF"/>
</linearGradient>
<linearGradient id="paint28_linear_1_879" x1="87.5844" y1="161.915" x2="94.431" y2="174.616" gradientUnits="userSpaceOnUse">
<stop stop-color="#A7E5FF"/>
<stop offset="1" stop-color="white"/>
</linearGradient>
<linearGradient id="paint29_linear_1_879" x1="195.02" y1="207.061" x2="178.086" y2="191.341" gradientUnits="userSpaceOnUse">
<stop stop-color="#CAB9FF"/>
<stop offset="1" stop-color="white"/>
</linearGradient>
<linearGradient id="paint30_linear_1_879" x1="183.697" y1="204.844" x2="166.763" y2="189.131" gradientUnits="userSpaceOnUse">
<stop stop-color="#CAB9FF"/>
<stop offset="1" stop-color="white"/>
</linearGradient>
<linearGradient id="paint31_linear_1_879" x1="172.047" y1="197.527" x2="155.113" y2="181.808" gradientUnits="userSpaceOnUse">
<stop stop-color="#CAB9FF"/>
<stop offset="1" stop-color="white"/>
</linearGradient>
<linearGradient id="paint32_linear_1_879" x1="160.395" y1="210.743" x2="143.46" y2="195.031" gradientUnits="userSpaceOnUse">
<stop stop-color="#CAB9FF"/>
<stop offset="1" stop-color="white"/>
</linearGradient>
<linearGradient id="paint33_linear_1_879" x1="195.02" y1="207.086" x2="178.086" y2="191.366" gradientUnits="userSpaceOnUse">
<stop stop-color="#CAB9FF"/>
<stop offset="1" stop-color="white"/>
</linearGradient>
<linearGradient id="paint34_linear_1_879" x1="183.697" y1="204.87" x2="166.763" y2="189.157" gradientUnits="userSpaceOnUse">
<stop stop-color="#CAB9FF"/>
<stop offset="1" stop-color="white"/>
</linearGradient>
<linearGradient id="paint35_linear_1_879" x1="172.047" y1="197.553" x2="155.113" y2="181.833" gradientUnits="userSpaceOnUse">
<stop stop-color="#CAB9FF"/>
<stop offset="1" stop-color="white"/>
</linearGradient>
<linearGradient id="paint36_linear_1_879" x1="160.395" y1="210.769" x2="143.46" y2="195.056" gradientUnits="userSpaceOnUse">
<stop stop-color="#CAB9FF"/>
<stop offset="1" stop-color="white"/>
</linearGradient>
<linearGradient id="paint37_linear_1_879" x1="40.1935" y1="148.563" x2="24.985" y2="134.448" gradientUnits="userSpaceOnUse">
<stop stop-color="#CAB9FF"/>
<stop offset="1" stop-color="white"/>
</linearGradient>
<linearGradient id="paint38_linear_1_879" x1="29.73" y1="162.139" x2="14.5215" y2="148.024" gradientUnits="userSpaceOnUse">
<stop stop-color="#CAB9FF"/>
<stop offset="1" stop-color="white"/>
</linearGradient>
<linearGradient id="paint39_linear_1_879" x1="19.2664" y1="173.21" x2="4.05796" y2="159.095" gradientUnits="userSpaceOnUse">
<stop stop-color="#CAB9FF"/>
<stop offset="1" stop-color="white"/>
</linearGradient>
<linearGradient id="paint40_linear_1_879" x1="40.1935" y1="148.589" x2="24.985" y2="134.473" gradientUnits="userSpaceOnUse">
<stop stop-color="#CAB9FF"/>
<stop offset="1" stop-color="white"/>
</linearGradient>
<linearGradient id="paint41_linear_1_879" x1="29.73" y1="162.158" x2="14.5212" y2="148.049" gradientUnits="userSpaceOnUse">
<stop stop-color="#CAB9FF"/>
<stop offset="1" stop-color="white"/>
</linearGradient>
<linearGradient id="paint42_linear_1_879" x1="19.2664" y1="173.229" x2="4.05767" y2="159.12" gradientUnits="userSpaceOnUse">
<stop stop-color="#CAB9FF"/>
<stop offset="1" stop-color="white"/>
</linearGradient>
<linearGradient id="paint43_linear_1_879" x1="272.681" y1="210.702" x2="189.469" y2="184.192" gradientUnits="userSpaceOnUse">
<stop stop-color="#CAB9FF"/>
<stop offset="1" stop-color="white"/>
</linearGradient>
<linearGradient id="paint44_linear_1_879" x1="252.739" y1="194.543" x2="268.483" y2="197.153" gradientUnits="userSpaceOnUse">
<stop stop-color="#6318FF"/>
<stop offset="1" stop-color="#13FFE2"/>
</linearGradient>
<linearGradient id="paint45_linear_1_879" x1="270.988" y1="198.414" x2="275.194" y2="215.647" gradientUnits="userSpaceOnUse">
<stop stop-color="#6318FF"/>
<stop offset="1" stop-color="#13FFE2"/>
</linearGradient>
<linearGradient id="paint46_linear_1_879" x1="258.367" y1="195.77" x2="269.757" y2="207.925" gradientUnits="userSpaceOnUse">
<stop stop-color="#6318FF"/>
<stop offset="1" stop-color="#13FFE2"/>
</linearGradient>
<linearGradient id="paint47_linear_1_879" x1="252.739" y1="189.909" x2="268.483" y2="192.52" gradientUnits="userSpaceOnUse">
<stop stop-color="#6318FF"/>
<stop offset="1" stop-color="#13FFE2"/>
</linearGradient>
<linearGradient id="paint48_linear_1_879" x1="270.988" y1="193.781" x2="275.194" y2="211.013" gradientUnits="userSpaceOnUse">
<stop stop-color="#6318FF"/>
<stop offset="1" stop-color="#13FFE2"/>
</linearGradient>
<linearGradient id="paint49_linear_1_879" x1="258.367" y1="191.138" x2="269.757" y2="203.293" gradientUnits="userSpaceOnUse">
<stop stop-color="#6318FF"/>
<stop offset="1" stop-color="#13FFE2"/>
</linearGradient>
<linearGradient id="paint50_linear_1_879" x1="257.37" y1="152.008" x2="278.675" y2="155.541" gradientUnits="userSpaceOnUse">
<stop stop-color="#6318FF"/>
<stop offset="1" stop-color="#13FFE2"/>
</linearGradient>
<linearGradient id="paint51_linear_1_879" x1="279.88" y1="157.782" x2="289.622" y2="197.732" gradientUnits="userSpaceOnUse">
<stop stop-color="#6318FF"/>
<stop offset="1" stop-color="#13FFE2"/>
</linearGradient>
<linearGradient id="paint52_linear_1_879" x1="256.065" y1="153.694" x2="280.418" y2="179.689" gradientUnits="userSpaceOnUse">
<stop stop-color="#6318FF"/>
<stop offset="1" stop-color="#13FFE2"/>
</linearGradient>
<linearGradient id="paint53_linear_1_879" x1="257.37" y1="145.742" x2="278.675" y2="149.274" gradientUnits="userSpaceOnUse">
<stop stop-color="#6318FF"/>
<stop offset="1" stop-color="#13FFE2"/>
</linearGradient>
<linearGradient id="paint54_linear_1_879" x1="279.88" y1="151.515" x2="289.622" y2="191.466" gradientUnits="userSpaceOnUse">
<stop stop-color="#6318FF"/>
<stop offset="1" stop-color="#13FFE2"/>
</linearGradient>
<linearGradient id="paint55_linear_1_879" x1="256.065" y1="147.428" x2="280.418" y2="173.422" gradientUnits="userSpaceOnUse">
<stop stop-color="#6318FF"/>
<stop offset="1" stop-color="#13FFE2"/>
</linearGradient>
<linearGradient id="paint56_linear_1_879" x1="125.16" y1="94.218" x2="111.119" y2="94.218" gradientUnits="userSpaceOnUse">
<stop stop-color="#A688FF"/>
<stop offset="1" stop-color="#C0ABFF"/>
</linearGradient>
<linearGradient id="paint57_linear_1_879" x1="165.51" y1="133.287" x2="162.78" y2="128.272" gradientUnits="userSpaceOnUse">
<stop stop-color="#3300BF"/>
<stop offset="1" stop-color="#C0ABFF"/>
</linearGradient>
<linearGradient id="paint58_linear_1_879" x1="103.654" y1="152.382" x2="106.991" y2="146.406" gradientUnits="userSpaceOnUse">
<stop stop-color="#3300BF"/>
<stop offset="1" stop-color="#C0ABFF"/>
</linearGradient>
<linearGradient id="paint59_linear_1_879" x1="403.49" y1="326.23" x2="144.984" y2="72.4084" gradientUnits="userSpaceOnUse">
<stop stop-color="#9C74FF"/>
<stop offset="1" stop-color="#FFF6FF"/>
</linearGradient>
<linearGradient id="paint60_linear_1_879" x1="100.984" y1="122.8" x2="727.437" y2="-477.636" gradientUnits="userSpaceOnUse">
<stop stop-color="#0E9CFF"/>
<stop offset="1" stop-color="#FFF6FF"/>
</linearGradient>
<linearGradient id="paint61_linear_1_879" x1="60.915" y1="62.9556" x2="422.827" y2="67.8888" gradientUnits="userSpaceOnUse">
<stop stop-color="#4F47FF"/>
<stop offset="1" stop-color="#13FFE2"/>
</linearGradient>
<linearGradient id="paint62_linear_1_879" x1="68.8513" y1="119.838" x2="77.6681" y2="135.154" gradientUnits="userSpaceOnUse">
<stop stop-color="#4F47FF"/>
<stop offset="1" stop-color="#13FFE2"/>
</linearGradient>
<linearGradient id="paint63_linear_1_879" x1="72.0924" y1="117.97" x2="89.0186" y2="147.369" gradientUnits="userSpaceOnUse">
<stop stop-color="#4F47FF"/>
<stop offset="1" stop-color="#13FFE2"/>
</linearGradient>
<linearGradient id="paint64_linear_1_879" x1="198.995" y1="46.8473" x2="213.049" y2="55.206" gradientUnits="userSpaceOnUse">
<stop stop-color="#FF4AFF"/>
<stop offset="1" stop-color="#13FFE2"/>
</linearGradient>
<linearGradient id="paint65_linear_1_879" x1="202.444" y1="46.8463" x2="215.855" y2="61.0774" gradientUnits="userSpaceOnUse">
<stop stop-color="#4F47FF"/>
<stop offset="1" stop-color="#13FFE2"/>
</linearGradient>
<linearGradient id="paint66_linear_1_879" x1="141.73" y1="143.003" x2="154.73" y2="137.358" gradientUnits="userSpaceOnUse">
<stop stop-color="#3818D6"/>
<stop offset="1" stop-color="#13FFE2"/>
</linearGradient>
<linearGradient id="paint67_linear_1_879" x1="150.838" y1="146.983" x2="144.547" y2="140.802" gradientUnits="userSpaceOnUse">
<stop stop-color="#9C74FF"/>
<stop offset="1" stop-color="#FFF6FF"/>
</linearGradient>
<linearGradient id="paint68_linear_1_879" x1="149.776" y1="138.607" x2="162.783" y2="132.962" gradientUnits="userSpaceOnUse">
<stop stop-color="#3818D6"/>
<stop offset="1" stop-color="#13FFE2"/>
</linearGradient>
<linearGradient id="paint69_linear_1_879" x1="158.888" y1="142.585" x2="152.597" y2="136.404" gradientUnits="userSpaceOnUse">
<stop stop-color="#9C74FF"/>
<stop offset="1" stop-color="#FFF6FF"/>
</linearGradient>
<linearGradient id="paint70_linear_1_879" x1="137.482" y1="145.661" x2="142.92" y2="143.302" gradientUnits="userSpaceOnUse">
<stop stop-color="#3818D6"/>
<stop offset="1" stop-color="#13FFE2"/>
</linearGradient>
<linearGradient id="paint71_linear_1_879" x1="142.754" y1="148.573" x2="138.778" y2="144.67" gradientUnits="userSpaceOnUse">
<stop stop-color="#9C74FF"/>
<stop offset="1" stop-color="#FFF6FF"/>
</linearGradient>
<linearGradient id="paint72_linear_1_879" x1="15.2585" y1="108.051" x2="15.6429" y2="112.242" gradientUnits="userSpaceOnUse">
<stop stop-color="#4F47FF"/>
<stop offset="1" stop-color="#13FFE2"/>
</linearGradient>
<linearGradient id="paint73_linear_1_879" x1="47.0638" y1="116.738" x2="231.063" y2="34.0411" gradientUnits="userSpaceOnUse">
<stop stop-color="#0E9CFF"/>
<stop offset="1" stop-color="#FFF6FF"/>
</linearGradient>
<linearGradient id="paint74_linear_1_879" x1="46.5649" y1="105.956" x2="232.418" y2="22.4241" gradientUnits="userSpaceOnUse">
<stop stop-color="#0E9CFF"/>
<stop offset="1" stop-color="#FFF6FF"/>
</linearGradient>
<linearGradient id="paint75_linear_1_879" x1="102.656" y1="90.8857" x2="111.855" y2="91.035" gradientUnits="userSpaceOnUse">
<stop stop-color="#0E7AFF"/>
<stop offset="1" stop-color="#0096FF"/>
</linearGradient>
<linearGradient id="paint76_linear_1_879" x1="101.645" y1="92.8861" x2="118.051" y2="77.1593" gradientUnits="userSpaceOnUse">
<stop stop-color="#0E9CFF"/>
<stop offset="1" stop-color="#A7E5FF"/>
</linearGradient>
<linearGradient id="paint77_linear_1_879" x1="103.831" y1="94.4743" x2="107.693" y2="90.7704" gradientUnits="userSpaceOnUse">
<stop stop-color="#0E9CFF"/>
<stop offset="1" stop-color="#A7E5FF"/>
</linearGradient>
<linearGradient id="paint78_linear_1_879" x1="127.018" y1="101.325" x2="135.721" y2="102.036" gradientUnits="userSpaceOnUse">
<stop stop-color="#0E7AFF"/>
<stop offset="1" stop-color="#0096FF"/>
</linearGradient>
<linearGradient id="paint79_linear_1_879" x1="131.443" y1="90.7665" x2="138.29" y2="103.468" gradientUnits="userSpaceOnUse">
<stop stop-color="#A7E5FF"/>
<stop offset="1" stop-color="white"/>
</linearGradient>
<linearGradient id="paint80_linear_1_879" x1="191.483" y1="74.0997" x2="198.176" y2="73.8723" gradientUnits="userSpaceOnUse">
<stop stop-color="#0E7AFF"/>
<stop offset="1" stop-color="#0096FF"/>
</linearGradient>
<linearGradient id="paint81_linear_1_879" x1="189.543" y1="56.0013" x2="199.396" y2="74.2843" gradientUnits="userSpaceOnUse">
<stop stop-color="#A7E5FF"/>
<stop offset="1" stop-color="white"/>
</linearGradient>
<linearGradient id="paint82_linear_1_879" x1="205.32" y1="71.0672" x2="201.472" y2="68.245" gradientUnits="userSpaceOnUse">
<stop stop-color="#0E7AFF"/>
<stop offset="1" stop-color="#0096FF"/>
</linearGradient>
<linearGradient id="paint83_linear_1_879" x1="179.333" y1="40.111" x2="164.303" y2="26.1601" gradientUnits="userSpaceOnUse">
<stop stop-color="#CAB9FF"/>
<stop offset="1" stop-color="white"/>
</linearGradient>
<linearGradient id="paint84_linear_1_879" x1="169.28" y1="38.1485" x2="154.25" y2="24.191" gradientUnits="userSpaceOnUse">
<stop stop-color="#CAB9FF"/>
<stop offset="1" stop-color="white"/>
</linearGradient>
<linearGradient id="paint85_linear_1_879" x1="158.932" y1="31.6521" x2="143.902" y2="17.6946" gradientUnits="userSpaceOnUse">
<stop stop-color="#CAB9FF"/>
<stop offset="1" stop-color="white"/>
</linearGradient>
<linearGradient id="paint86_linear_1_879" x1="148.593" y1="43.3855" x2="133.556" y2="29.4279" gradientUnits="userSpaceOnUse">
<stop stop-color="#CAB9FF"/>
<stop offset="1" stop-color="white"/>
</linearGradient>
<linearGradient id="paint87_linear_1_879" x1="138.247" y1="56.8027" x2="123.216" y2="42.8519" gradientUnits="userSpaceOnUse">
<stop stop-color="#CAB9FF"/>
<stop offset="1" stop-color="white"/>
</linearGradient>
<linearGradient id="paint88_linear_1_879" x1="127.9" y1="67.7489" x2="112.869" y2="53.7981" gradientUnits="userSpaceOnUse">
<stop stop-color="#CAB9FF"/>
<stop offset="1" stop-color="white"/>
</linearGradient>
<linearGradient id="paint89_linear_1_879" x1="179.333" y1="40.1363" x2="164.303" y2="26.1855" gradientUnits="userSpaceOnUse">
<stop stop-color="#CAB9FF"/>
<stop offset="1" stop-color="white"/>
</linearGradient>
<linearGradient id="paint90_linear_1_879" x1="169.28" y1="38.1673" x2="154.249" y2="24.2164" gradientUnits="userSpaceOnUse">
<stop stop-color="#CAB9FF"/>
<stop offset="1" stop-color="white"/>
</linearGradient>
<linearGradient id="paint91_linear_1_879" x1="158.932" y1="31.6709" x2="143.902" y2="17.7201" gradientUnits="userSpaceOnUse">
<stop stop-color="#CAB9FF"/>
<stop offset="1" stop-color="white"/>
</linearGradient>
<linearGradient id="paint92_linear_1_879" x1="148.593" y1="43.4109" x2="133.556" y2="29.4532" gradientUnits="userSpaceOnUse">
<stop stop-color="#CAB9FF"/>
<stop offset="1" stop-color="white"/>
</linearGradient>
<linearGradient id="paint93_linear_1_879" x1="138.247" y1="56.8281" x2="123.216" y2="42.8772" gradientUnits="userSpaceOnUse">
<stop stop-color="#CAB9FF"/>
<stop offset="1" stop-color="white"/>
</linearGradient>
<linearGradient id="paint94_linear_1_879" x1="127.9" y1="67.7745" x2="112.869" y2="53.8236" gradientUnits="userSpaceOnUse">
<stop stop-color="#CAB9FF"/>
<stop offset="1" stop-color="white"/>
</linearGradient>
<linearGradient id="paint95_linear_1_879" x1="271.656" y1="81.127" x2="160.03" y2="45.5683" gradientUnits="userSpaceOnUse">
<stop stop-color="#CAB9FF"/>
<stop offset="1" stop-color="white"/>
</linearGradient>
<linearGradient id="paint96_linear_1_879" x1="47.5689" y1="38.7629" x2="67.7023" y2="42.097" gradientUnits="userSpaceOnUse">
<stop stop-color="#6318FF"/>
<stop offset="1" stop-color="#13FFE2"/>
</linearGradient>
<linearGradient id="paint97_linear_1_879" x1="68.8437" y1="44.2168" x2="78.0532" y2="81.9719" gradientUnits="userSpaceOnUse">
<stop stop-color="#6318FF"/>
<stop offset="1" stop-color="#13FFE2"/>
</linearGradient>
<linearGradient id="paint98_linear_1_879" x1="46.3328" y1="40.3507" x2="69.3494" y2="64.9137" gradientUnits="userSpaceOnUse">
<stop stop-color="#6318FF"/>
<stop offset="1" stop-color="#13FFE2"/>
</linearGradient>
<linearGradient id="paint99_linear_1_879" x1="47.5689" y1="32.838" x2="67.7023" y2="36.1722" gradientUnits="userSpaceOnUse">
<stop stop-color="#6318FF"/>
<stop offset="1" stop-color="#13FFE2"/>
</linearGradient>
<linearGradient id="paint100_linear_1_879" x1="68.8437" y1="38.2987" x2="78.0532" y2="76.0474" gradientUnits="userSpaceOnUse">
<stop stop-color="#6318FF"/>
<stop offset="1" stop-color="#13FFE2"/>
</linearGradient>
<linearGradient id="paint101_linear_1_879" x1="46.3328" y1="34.4261" x2="69.3492" y2="58.9957" gradientUnits="userSpaceOnUse">
<stop stop-color="#6318FF"/>
<stop offset="1" stop-color="#13FFE2"/>
</linearGradient>
<linearGradient id="paint102_linear_1_879" x1="41.75" y1="71.9461" x2="57.9303" y2="74.6276" gradientUnits="userSpaceOnUse">
<stop stop-color="#6318FF"/>
<stop offset="1" stop-color="#13FFE2"/>
</linearGradient>
<linearGradient id="paint103_linear_1_879" x1="60.5043" y1="75.9285" x2="64.824" y2="93.6294" gradientUnits="userSpaceOnUse">
<stop stop-color="#6318FF"/>
<stop offset="1" stop-color="#13FFE2"/>
</linearGradient>
<linearGradient id="paint104_linear_1_879" x1="47.5347" y1="73.2069" x2="59.2394" y2="85.7029" gradientUnits="userSpaceOnUse">
<stop stop-color="#6318FF"/>
<stop offset="1" stop-color="#13FFE2"/>
</linearGradient>
<linearGradient id="paint105_linear_1_879" x1="41.75" y1="67.189" x2="57.9303" y2="69.8705" gradientUnits="userSpaceOnUse">
<stop stop-color="#6318FF"/>
<stop offset="1" stop-color="#13FFE2"/>
</linearGradient>
<linearGradient id="paint106_linear_1_879" x1="60.5043" y1="71.1714" x2="64.824" y2="88.8724" gradientUnits="userSpaceOnUse">
<stop stop-color="#6318FF"/>
<stop offset="1" stop-color="#13FFE2"/>
</linearGradient>
<linearGradient id="paint107_linear_1_879" x1="47.5347" y1="68.4485" x2="59.2397" y2="80.938" gradientUnits="userSpaceOnUse">
<stop stop-color="#6318FF"/>
<stop offset="1" stop-color="#13FFE2"/>
</linearGradient>
<linearGradient id="paint108_linear_1_879" x1="295.094" y1="97.0334" x2="274.794" y2="78.1945" gradientUnits="userSpaceOnUse">
<stop stop-color="#CAB9FF"/>
<stop offset="1" stop-color="white"/>
</linearGradient>
<linearGradient id="paint109_linear_1_879" x1="281.127" y1="115.157" x2="260.827" y2="96.3183" gradientUnits="userSpaceOnUse">
<stop stop-color="#CAB9FF"/>
<stop offset="1" stop-color="white"/>
</linearGradient>
<linearGradient id="paint110_linear_1_879" x1="267.162" y1="129.935" x2="246.862" y2="111.096" gradientUnits="userSpaceOnUse">
<stop stop-color="#CAB9FF"/>
<stop offset="1" stop-color="white"/>
</linearGradient>
<linearGradient id="paint111_linear_1_879" x1="295.094" y1="97.0668" x2="274.794" y2="78.2279" gradientUnits="userSpaceOnUse">
<stop stop-color="#CAB9FF"/>
<stop offset="1" stop-color="white"/>
</linearGradient>
<linearGradient id="paint112_linear_1_879" x1="281.127" y1="115.19" x2="260.827" y2="96.3516" gradientUnits="userSpaceOnUse">
<stop stop-color="#CAB9FF"/>
<stop offset="1" stop-color="white"/>
</linearGradient>
<linearGradient id="paint113_linear_1_879" x1="267.162" y1="129.969" x2="246.862" y2="111.13" gradientUnits="userSpaceOnUse">
<stop stop-color="#CAB9FF"/>
<stop offset="1" stop-color="white"/>
</linearGradient>
</defs>
</svg>
