<svg width="288" height="261" viewBox="0 0 288 261" fill="none" xmlns="http://www.w3.org/2000/svg">
<path d="M258.888 154.069C253.853 148.951 253.698 153.527 254.705 159.033L162.681 105.676C158.575 103.659 153.773 103.814 149.822 106.063L14.8062 183.928C9.30637 181.446 4.34882 180.593 2.10243 184.316C-2.00305 190.985 0.785586 194.63 3.03198 196.879C3.57421 197.5 4.27135 198.043 5.12343 198.508H5.2009L99.6269 253.261C103.655 255.278 108.38 255.123 112.253 252.874L257.339 169.115C257.339 169.115 268.339 163.764 258.733 153.992L258.888 154.069Z" fill="url(#paint0_linear_1_6250)"/>
<path style="mix-blend-mode:multiply" opacity="0.8" d="M258.888 154.07C253.853 148.952 253.698 153.527 254.705 159.034L162.681 105.676C158.575 103.66 153.773 103.815 149.822 106.064L14.8062 183.929C9.30637 181.447 4.34882 180.594 2.10243 184.316C-2.00305 190.986 0.785586 194.631 3.03198 196.88C3.57421 197.501 4.27135 198.044 5.12343 198.509H5.2009L99.6269 253.262C103.655 255.279 108.38 255.123 112.253 252.874L257.339 169.116C257.339 169.116 268.339 163.765 258.733 153.993L258.888 154.07Z" fill="url(#paint1_linear_1_6250)"/>
<path style="mix-blend-mode:multiply" opacity="0.8" d="M258.888 154.07C253.853 148.952 253.698 153.527 254.705 159.034L162.681 105.676C158.575 103.66 153.773 103.815 149.822 106.064L14.8062 183.929C9.30637 181.447 4.34882 180.594 2.10243 184.316C-2.00305 190.986 0.785586 194.631 3.03198 196.88C3.57421 197.501 4.27135 198.044 5.12343 198.509H5.2009L99.6269 253.262C103.655 255.279 108.38 255.123 112.253 252.874L257.339 169.116C257.339 169.116 268.339 163.765 258.733 153.993L258.888 154.07Z" fill="url(#paint2_linear_1_6250)"/>
<path d="M4.19334 182.143L149.822 98.152C153.772 95.8254 158.575 95.6703 162.68 97.7643L257.184 152.595C260.979 154.534 261.212 159.885 257.493 162.057L112.407 245.815C108.534 248.064 103.809 248.22 99.7812 246.203L5.35526 191.45C0.707554 188.658 1.01738 184.315 4.27078 182.143H4.19334Z" fill="url(#paint3_linear_1_6250)"/>
<path d="M10.7014 183.773L110.859 240.853C111.557 241.241 112.486 241.164 113.183 240.853L251.065 161.748C251.608 161.438 251.608 160.585 251.065 160.352L150.985 102.729C150.288 102.419 149.513 102.419 148.893 102.729L10.7014 182.455C10.1591 182.765 10.2366 183.463 10.7014 183.773Z" fill="url(#paint4_linear_1_6250)"/>
<path d="M10.5463 183.541L148.738 103.815C149.358 103.427 150.132 103.427 150.83 103.815L250.91 161.438C250.988 161.438 251.065 161.515 251.143 161.593C251.53 161.205 251.453 160.585 250.91 160.352L150.83 102.729C150.132 102.419 149.358 102.419 148.738 102.729L10.5463 182.455C10.0815 182.688 10.0815 183.308 10.3914 183.618C10.3914 183.618 10.3913 183.618 10.4688 183.541H10.5463Z" fill="url(#paint5_linear_1_6250)"/>
<path d="M50.5944 212.468C50.2845 212.235 50.2845 211.925 50.6718 211.692C51.0591 211.46 51.6014 211.46 51.9887 211.692C52.2985 211.925 52.2985 212.235 51.9112 212.468C51.5239 212.701 50.9817 212.701 50.5944 212.468Z" fill="url(#paint6_linear_1_6250)"/>
<path d="M63.839 220.067L52.4521 213.553C52.1423 213.398 52.1423 213.01 52.5296 212.777C52.9169 212.545 53.4591 212.545 53.8464 212.777L65.2333 219.292C65.5432 219.447 65.5432 219.835 65.1559 220.067C64.7686 220.3 64.2263 220.3 63.839 220.067Z" fill="url(#paint7_linear_1_6250)"/>
<path d="M206.601 132.043L199.552 128.088C198.158 127.235 198.313 125.839 199.94 124.908C201.566 123.977 203.968 123.9 205.362 124.675L212.411 128.631C213.805 129.484 213.65 130.88 212.024 131.81C210.397 132.741 207.996 132.818 206.601 132.043Z" fill="url(#paint8_linear_1_6250)"/>
<path d="M199.707 126.071C201.334 125.141 203.735 125.063 205.129 125.838L212.178 129.794C212.643 130.104 212.953 130.414 213.031 130.88C213.573 130.104 213.34 129.251 212.411 128.63L205.362 124.675C203.968 123.822 201.566 123.977 199.94 124.908C198.933 125.528 198.468 126.304 198.623 127.002C198.855 126.692 199.165 126.381 199.707 126.071Z" fill="url(#paint9_linear_1_6250)"/>
<path d="M139.362 232.708C139.207 232.708 138.975 232.708 138.82 232.708L132.933 236.121C132.623 236.276 132.391 236.586 132.313 236.974C132.158 237.672 132.313 238.292 132.855 238.447C133.01 238.447 133.243 238.447 133.398 238.447L139.207 235.035C139.517 234.88 139.749 234.57 139.904 234.182C140.059 233.484 139.904 232.863 139.362 232.708Z" fill="url(#paint10_linear_1_6250)"/>
<path d="M139.905 233.173C139.75 233.173 139.517 233.173 139.362 233.173L133.475 236.585C133.165 236.74 132.933 237.05 132.856 237.438C132.701 238.136 132.856 238.757 133.398 238.912C133.553 238.912 133.785 238.912 133.94 238.912L139.75 235.499C140.06 235.344 140.292 235.034 140.447 234.646C140.602 233.948 140.447 233.328 139.905 233.173Z" fill="url(#paint11_linear_1_6250)"/>
<path d="M148.429 227.511C148.274 227.511 148.042 227.511 147.887 227.511L142 230.924C141.69 231.079 141.457 231.389 141.38 231.777C141.225 232.475 141.38 233.095 141.922 233.25C142.077 233.25 142.31 233.25 142.464 233.25L148.274 229.838C148.584 229.683 148.816 229.373 148.971 228.985C149.126 228.287 148.971 227.667 148.429 227.511Z" fill="url(#paint12_linear_1_6250)"/>
<path d="M149.048 227.976C148.893 227.976 148.66 227.976 148.505 227.976L142.618 231.388C142.308 231.543 142.076 231.854 141.998 232.241C141.844 232.939 141.998 233.56 142.541 233.715C142.696 233.715 142.928 233.715 143.083 233.715L148.893 230.303C149.202 230.147 149.435 229.837 149.59 229.449C149.745 228.751 149.59 228.131 149.048 227.976Z" fill="url(#paint13_linear_1_6250)"/>
<path d="M130.224 238.06C130.069 238.06 129.836 238.06 129.681 238.06L128.21 238.835C127.9 238.99 127.667 239.301 127.59 239.688C127.435 240.386 127.59 241.007 128.132 241.162C128.287 241.162 128.52 241.162 128.674 241.162L129.991 240.464C130.301 240.309 130.534 239.999 130.688 239.611C130.843 238.913 130.688 238.292 130.146 238.137L130.224 238.06Z" fill="url(#paint14_linear_1_6250)"/>
<path d="M130.766 238.448C130.611 238.448 130.379 238.448 130.224 238.448L128.752 239.224C128.442 239.379 128.21 239.689 128.132 240.077C127.978 240.775 128.133 241.395 128.675 241.55C128.83 241.55 129.062 241.55 129.217 241.55L130.534 240.852C130.844 240.697 131.076 240.387 131.231 239.999C131.386 239.301 131.231 238.681 130.689 238.526L130.766 238.448Z" fill="url(#paint15_linear_1_6250)"/>
<path d="M93.0413 245.815C93.1188 246.978 92.4991 247.599 91.4921 247.211C90.5625 246.746 89.7104 245.427 89.5555 244.264C89.4781 243.101 90.0978 242.48 91.1048 242.868C92.0343 243.333 92.8864 244.652 93.0413 245.815Z" fill="url(#paint16_linear_1_6250)"/>
<path d="M92.19 247.753C91.9577 247.753 91.6478 247.753 91.338 247.598C90.2535 247.133 89.324 245.659 89.1691 244.341C89.1691 243.565 89.324 242.945 89.7888 242.635C90.1761 242.325 90.7183 242.325 91.2605 242.635C92.345 243.1 93.2745 244.574 93.4295 245.892C93.4295 246.668 93.2745 247.288 92.8097 247.598C92.6548 247.753 92.4224 247.831 92.19 247.831V247.753ZM90.4859 243.1C90.4084 243.1 90.331 243.1 90.2535 243.178C90.0211 243.333 89.9437 243.721 89.9437 244.186C90.0211 245.272 90.7957 246.435 91.6478 246.823C91.8802 246.9 92.1126 246.978 92.345 246.823C92.5774 246.668 92.6548 246.28 92.6548 245.815C92.5774 244.729 91.8028 243.565 90.9507 243.178C90.7958 243.178 90.6408 243.1 90.4859 243.1Z" fill="#E7E1FF"/>
<path d="M242.621 159.108L233.945 164.149L225.657 159.418L234.333 154.377L242.621 159.108ZM234.023 161.822L238.593 159.185L234.255 156.704L229.685 159.341L234.023 161.822Z" fill="url(#paint17_linear_1_6250)"/>
<path d="M225.657 159.418V161.823L233.945 166.553V164.149L225.657 159.418Z" fill="#C2AEFF"/>
<path d="M242.621 159.108V161.512L233.945 166.553V164.149L242.621 159.108Z" fill="#9F84F4"/>
<path d="M234.255 156.704V159.108L236.502 160.426L238.593 159.185L234.255 156.704Z" fill="#C2AEFF"/>
<path d="M229.685 159.34L234.255 156.704V159.108L231.776 160.581L229.685 159.34Z" fill="#9F84F4"/>
<path d="M194.209 194.317L173.991 182.684L188.089 174.308L188.864 175.626L177.09 182.684L195.835 193.386L194.209 194.317Z" fill="url(#paint18_linear_1_6250)"/>
<path d="M218.918 137.392C215.432 135.53 207.918 139.253 204.665 147.551C200.792 157.478 189.327 163.838 189.327 163.838L176.159 171.128L191.496 179.891L204.665 172.601C204.665 172.601 216.129 166.242 220.002 156.315C222.946 148.792 229.375 145.07 233.171 145.768L225.734 141.269L219.073 137.469C219.073 137.469 219.073 137.469 218.995 137.469L218.918 137.392Z" fill="url(#paint19_linear_1_6250)"/>
<path d="M234.643 137.47C232.087 138.866 228.601 140.727 225.657 141.27L233.094 145.768C233.403 145.768 233.636 145.923 233.868 146.001C234.643 146.388 235.263 147.009 235.65 147.939C237.509 152.903 245.255 148.715 249.903 146.233L254.551 143.751L239.213 134.988C239.213 134.988 237.896 135.686 234.565 137.47H234.643Z" fill="url(#paint20_linear_1_6250)"/>
<g style="mix-blend-mode:overlay">
<path d="M153.002 22.3026L164.389 15.7104L175.854 22.4577L164.389 29.0498L153.002 22.3026Z" fill="url(#paint21_linear_1_6250)"/>
<path d="M164.389 130.956V29.0496L175.854 22.4575V124.364L164.389 130.956Z" fill="url(#paint22_linear_1_6250)"/>
<path d="M153.002 22.3034V124.21L164.389 130.957V29.0506L153.002 22.3034Z" fill="url(#paint23_linear_1_6250)"/>
</g>
<g style="mix-blend-mode:overlay">
<path d="M153.002 6.63559L164.389 0.121033L175.854 6.7907L164.389 13.3828L153.002 6.63559Z" fill="url(#paint24_linear_1_6250)"/>
<path d="M164.389 115.366V13.3821L175.854 6.78998V108.774L164.389 115.366Z" fill="url(#paint25_linear_1_6250)"/>
<path d="M153.002 6.63586V108.62L164.389 115.367V13.3831L153.002 6.63586Z" fill="url(#paint26_linear_1_6250)"/>
</g>
<g style="mix-blend-mode:overlay">
<path d="M254.864 75.5823C258.286 75.5823 261.061 73.8809 261.061 71.7822C261.061 69.6834 258.286 67.982 254.864 67.982C251.441 67.982 248.667 69.6834 248.667 71.7822C248.667 73.8809 251.441 75.5823 254.864 75.5823Z" fill="#25F4EE"/>
</g>
<path style="mix-blend-mode:overlay" d="M254.864 75.5826C251.455 75.5826 248.744 73.954 248.667 71.86V128.087C248.667 128.087 248.667 128.087 248.667 128.164C248.667 128.94 249.209 129.715 250.139 130.413C252.385 131.965 256.335 132.197 258.892 130.956C260.363 130.258 261.061 129.25 261.061 128.242V71.9375C260.906 73.9539 258.195 75.5826 254.864 75.5826Z" fill="url(#paint27_linear_1_6250)"/>
<g style="mix-blend-mode:overlay">
<path d="M254.864 75.5823C258.286 75.5823 261.061 73.8809 261.061 71.7822C261.061 69.6834 258.286 67.982 254.864 67.982C251.441 67.982 248.667 69.6834 248.667 71.7822C248.667 73.8809 251.441 75.5823 254.864 75.5823Z" fill="#25F4EE"/>
</g>
<path style="mix-blend-mode:overlay" d="M254.864 75.5826C251.455 75.5826 248.744 73.954 248.667 71.86V128.087C248.667 128.087 248.667 128.087 248.667 128.164C248.667 128.94 249.209 129.715 250.139 130.413C252.385 131.965 256.335 132.197 258.892 130.956C260.363 130.258 261.061 129.25 261.061 128.242V71.9375C260.906 73.9539 258.195 75.5826 254.864 75.5826Z" fill="url(#paint28_linear_1_6250)"/>
<g style="mix-blend-mode:overlay">
<path d="M245.492 101.407C245.492 102.958 243.478 104.199 240.922 104.199C238.366 104.199 236.352 102.958 236.352 101.407C236.352 99.8555 238.366 98.6146 240.922 98.6146C243.478 98.6146 245.492 99.8555 245.492 101.407Z" fill="#25F4EE"/>
</g>
<path style="mix-blend-mode:overlay" d="M241 104.197C238.521 104.197 236.507 102.956 236.43 101.483V142.432C236.43 142.974 236.817 143.595 237.514 144.06C239.141 145.224 242.007 145.379 243.944 144.448C245.028 143.905 245.57 143.207 245.493 142.432V101.405C245.338 102.879 243.401 104.042 241 104.042V104.197Z" fill="url(#paint29_linear_1_6250)"/>
<g style="mix-blend-mode:overlay">
<path d="M245.492 101.407C245.492 102.958 243.478 104.199 240.922 104.199C238.366 104.199 236.352 102.958 236.352 101.407C236.352 99.8555 238.366 98.6146 240.922 98.6146C243.478 98.6146 245.492 99.8555 245.492 101.407Z" fill="#25F4EE"/>
</g>
<path style="mix-blend-mode:overlay" d="M241 104.197C238.521 104.197 236.507 102.956 236.43 101.483V142.432C236.43 142.974 236.817 143.595 237.514 144.06C239.141 145.224 242.007 145.379 243.944 144.448C245.028 143.905 245.57 143.207 245.493 142.432V101.405C245.338 102.879 243.401 104.042 241 104.042V104.197Z" fill="url(#paint30_linear_1_6250)"/>
<g style="mix-blend-mode:overlay">
<path d="M274.541 92.7211C274.541 94.5048 272.217 95.9008 269.351 95.9008C266.485 95.9008 264.161 94.5048 264.161 92.7211C264.161 90.9373 266.485 89.5413 269.351 89.5413C272.217 89.5413 274.541 90.9373 274.541 92.7211Z" fill="#25F4EE"/>
</g>
<path style="mix-blend-mode:overlay" d="M269.351 95.9003C266.562 95.9003 264.238 94.5043 264.161 92.7981V139.718C264.161 140.416 264.626 141.037 265.4 141.58C267.259 142.898 270.59 143.053 272.759 142.045C273.998 141.502 274.618 140.649 274.541 139.718V92.7206C274.386 94.4268 272.139 95.7452 269.351 95.7452V95.9003Z" fill="url(#paint31_linear_1_6250)"/>
<g style="mix-blend-mode:overlay">
<path d="M274.541 92.7211C274.541 94.5048 272.217 95.9008 269.351 95.9008C266.485 95.9008 264.161 94.5048 264.161 92.7211C264.161 90.9373 266.485 89.5413 269.351 89.5413C272.217 89.5413 274.541 90.9373 274.541 92.7211Z" fill="#25F4EE"/>
</g>
<path style="mix-blend-mode:overlay" d="M269.351 95.9003C266.562 95.9003 264.238 94.5043 264.161 92.7981V139.718C264.161 140.416 264.626 141.037 265.4 141.58C267.259 142.898 270.59 143.053 272.759 142.045C273.998 141.502 274.618 140.649 274.541 139.718V92.7206C274.386 94.4268 272.139 95.7452 269.351 95.7452V95.9003Z" fill="url(#paint32_linear_1_6250)"/>
<g style="mix-blend-mode:overlay">
<path d="M182.124 81.165L193.511 74.5729L204.975 81.3201L193.511 87.9122L182.124 81.165Z" fill="url(#paint33_linear_1_6250)"/>
<path d="M193.511 145.845V87.9121L204.975 81.3199V139.253L193.511 145.845Z" fill="url(#paint34_linear_1_6250)"/>
<path d="M182.124 81.1658V139.099L193.511 145.846V87.9131L182.124 81.1658Z" fill="url(#paint35_linear_1_6250)"/>
</g>
<g style="mix-blend-mode:overlay">
<path d="M182.124 65.499L193.511 58.9845L204.975 65.6542L193.511 72.2463L182.124 65.499Z" fill="url(#paint36_linear_1_6250)"/>
<path d="M193.511 130.256V72.2455L204.975 65.6534V123.664L193.511 130.256Z" fill="url(#paint37_linear_1_6250)"/>
<path d="M182.124 65.4993V123.51L193.511 130.257V72.2465L182.124 65.4993Z" fill="url(#paint38_linear_1_6250)"/>
</g>
<g style="mix-blend-mode:overlay">
<path d="M17.9691 213.827C19.6366 213.827 20.9883 212.993 20.9883 211.963C20.9883 210.934 19.6366 210.1 17.9691 210.1C16.3016 210.1 14.9498 210.934 14.9498 211.963C14.9498 212.993 16.3016 213.827 17.9691 213.827Z" fill="#25F4EE"/>
</g>
<path style="mix-blend-mode:overlay" d="M17.9688 213.827C16.3144 213.827 14.9909 213.04 14.9495 212.005V231.964C14.9081 231.964 14.9081 231.964 14.9081 232.006C14.9081 232.378 15.1563 232.792 15.6526 233.124C16.728 233.869 18.6719 233.993 19.9127 233.413C20.6158 233.082 20.988 232.585 20.9466 232.088V212.046C20.988 212.046 20.988 212.046 20.988 212.046C20.9053 213.04 19.5818 213.827 17.9688 213.827Z" fill="url(#paint39_linear_1_6250)"/>
<g style="mix-blend-mode:overlay">
<path d="M17.9691 213.827C19.6366 213.827 20.9883 212.993 20.9883 211.963C20.9883 210.934 19.6366 210.1 17.9691 210.1C16.3016 210.1 14.9498 210.934 14.9498 211.963C14.9498 212.993 16.3016 213.827 17.9691 213.827Z" fill="#25F4EE"/>
</g>
<path style="mix-blend-mode:overlay" d="M17.9688 213.827C16.3144 213.827 14.9909 213.04 14.9495 212.005V231.964C14.9081 231.964 14.9081 231.964 14.9081 232.006C14.9081 232.378 15.1563 232.792 15.6526 233.124C16.728 233.869 18.6719 233.993 19.9127 233.413C20.6158 233.082 20.988 232.585 20.9466 232.088V212.046C20.988 212.046 20.988 212.046 20.988 212.046C20.9053 213.04 19.5818 213.827 17.9688 213.827Z" fill="url(#paint40_linear_1_6250)"/>
<g style="mix-blend-mode:overlay">
<path d="M11.2274 229.356C12.438 229.356 13.4195 228.744 13.4195 227.99C13.4195 227.235 12.438 226.623 11.2274 226.623C10.0168 226.623 9.03534 227.235 9.03534 227.99C9.03534 228.744 10.0168 229.356 11.2274 229.356Z" fill="#25F4EE"/>
</g>
<path style="mix-blend-mode:overlay" d="M11.2271 229.314C10.0276 229.314 9.03501 228.734 9.03501 227.989V240.536C8.99365 240.536 8.99365 240.536 8.99365 240.536C8.99365 240.826 9.20046 241.116 9.53134 241.323C10.3172 241.861 11.7234 241.985 12.6333 241.53C13.171 241.281 13.4191 240.909 13.4191 240.536V227.948C13.4605 227.948 13.4605 227.948 13.4605 227.948C13.4191 228.651 12.4265 229.231 11.2684 229.231L11.2271 229.314Z" fill="url(#paint41_linear_1_6250)"/>
<g style="mix-blend-mode:overlay">
<path d="M11.2274 229.356C12.438 229.356 13.4195 228.744 13.4195 227.99C13.4195 227.235 12.438 226.623 11.2274 226.623C10.0168 226.623 9.03534 227.235 9.03534 227.99C9.03534 228.744 10.0168 229.356 11.2274 229.356Z" fill="#25F4EE"/>
</g>
<path style="mix-blend-mode:overlay" d="M11.2271 229.314C10.0276 229.314 9.03501 228.734 9.03501 227.989V240.536C8.99365 240.536 8.99365 240.536 8.99365 240.536C8.99365 240.826 9.20046 241.116 9.53134 241.323C10.3172 241.861 11.7234 241.985 12.6333 241.53C13.171 241.281 13.4191 240.909 13.4191 240.536V227.948C13.4605 227.948 13.4605 227.948 13.4605 227.948C13.4191 228.651 12.4265 229.231 11.2684 229.231L11.2271 229.314Z" fill="url(#paint42_linear_1_6250)"/>
<g style="mix-blend-mode:overlay">
<path d="M24.5455 226.624L30.6254 223.145L36.7053 226.707L30.6254 230.226L24.5455 226.624Z" fill="url(#paint43_linear_1_6250)"/>
<path d="M30.6255 252.835V230.226L36.7054 226.706V249.316L30.6255 252.835Z" fill="url(#paint44_linear_1_6250)"/>
<path d="M24.5455 226.624V249.233L30.6254 252.836V230.226L24.5455 226.624Z" fill="url(#paint45_linear_1_6250)"/>
</g>
<g style="mix-blend-mode:overlay">
<path d="M24.5455 218.302L30.6254 214.783L36.7053 218.385L30.6254 221.905L24.5455 218.302Z" fill="url(#paint46_linear_1_6250)"/>
<path d="M30.6255 252.837V221.905L36.7054 218.385V249.318L30.6255 252.837Z" fill="url(#paint47_linear_1_6250)"/>
<path d="M24.5455 218.303V249.235L30.6254 252.838V221.905L24.5455 218.303Z" fill="url(#paint48_linear_1_6250)"/>
</g>
<path d="M64.1467 199.82L176.079 135.062C176.079 135.062 175.459 118.621 168.255 115.131C161.051 111.641 153.305 137.001 143.622 132.968C133.94 128.935 133.707 85.4275 120.849 92.1747C107.99 98.9219 102.49 128.625 92.0329 134.519C79.4841 141.577 71.8154 75.8883 71.8154 75.8883L64.0692 80.3089V199.898L64.1467 199.82Z" fill="url(#paint49_linear_1_6250)"/>
<path d="M70.9634 204.008L182.896 139.251C182.896 139.251 182.276 122.809 175.072 119.319C167.868 115.829 160.122 141.189 150.439 137.157C140.756 133.124 140.524 89.6158 127.665 96.3631C114.807 103.11 109.307 132.814 98.8497 138.708C86.3009 145.765 78.6321 80.0767 78.6321 80.0767L70.8859 84.4973V204.086L70.9634 204.008Z" fill="url(#paint50_linear_1_6250)"/>
<path style="mix-blend-mode:overlay" d="M70.9634 204.008L182.896 139.251C182.896 139.251 182.276 122.809 175.072 119.319C167.868 115.829 160.122 141.189 150.439 137.157C140.756 133.124 140.524 89.6158 127.665 96.3631C114.807 103.11 109.307 132.814 98.8497 138.708C86.3009 145.765 78.6321 80.0767 78.6321 80.0767L70.8859 84.4973V204.086L70.9634 204.008Z" fill="url(#paint51_linear_1_6250)"/>
<path opacity="0.3" d="M84.9831 212.151L196.915 147.393C196.915 147.393 196.296 130.952 189.092 127.462C181.888 123.972 174.142 149.332 164.459 145.299C154.776 141.266 154.544 97.7583 141.685 104.506C128.826 111.253 123.327 140.956 112.869 146.85C100.321 153.908 92.6518 88.2191 92.6518 88.2191L84.9056 92.6397V212.228L84.9831 212.151Z" fill="url(#paint52_linear_1_6250)"/>
<path style="mix-blend-mode:overlay" d="M84.9831 212.151L196.915 147.393C196.915 147.393 196.296 130.952 189.092 127.462C181.888 123.972 174.142 149.332 164.459 145.299C154.776 141.266 154.544 97.7583 141.685 104.506C128.826 111.253 123.327 140.956 112.869 146.85C100.321 153.908 92.6518 88.2191 92.6518 88.2191L84.9056 92.6397V212.228L84.9831 212.151Z" fill="url(#paint53_linear_1_6250)"/>
<g style="mix-blend-mode:overlay">
<path d="M84.906 212.151V98.3791L94.5113 92.9503L94.7437 94.9667C97.0675 114.588 102.8 144.989 109.461 148.324C110.159 148.634 110.778 148.634 111.475 148.246C115.658 145.92 119.067 138.63 122.707 131.029C127.045 121.956 131.461 112.571 138.2 109.082C139.981 108.151 141.686 107.996 143.312 108.694C148.037 110.788 150.361 119.551 152.763 128.935C154.777 136.691 157.1 145.377 160.354 146.773C164.149 148.324 167.945 143.205 171.663 138.164C175.459 133.046 179.022 128.237 183.128 130.254C190.409 133.821 191.106 149.177 191.106 149.875V150.651L84.8286 212.151H84.906ZM87.6172 99.9301V207.498L188.472 149.177C188.163 144.679 186.613 134.907 182.043 132.658C179.952 131.65 176.853 135.76 173.91 139.715C169.804 145.299 165.079 151.581 159.347 149.177C154.854 147.316 152.53 138.707 150.206 129.556C148.115 121.645 145.791 112.649 142.228 111.098C141.686 110.865 140.833 110.633 139.439 111.408C133.552 114.51 129.292 123.429 125.186 132.115C121.391 140.181 117.75 147.781 112.87 150.573C111.398 151.426 109.771 151.504 108.299 150.728C99.0815 146.075 93.6592 107.53 92.4198 97.2933L87.6946 99.9301H87.6172Z" fill="url(#paint54_linear_1_6250)"/>
</g>
<path d="M36.5224 182.327L35.7525 183.673L64.186 199.976L64.9559 198.631L36.5224 182.327Z" fill="url(#paint55_linear_1_6250)"/>
<path d="M37.0409 184.548C39.3083 184.548 41.1464 183.159 41.1464 181.446C41.1464 179.733 39.3083 178.344 37.0409 178.344C34.7735 178.344 32.9354 179.733 32.9354 181.446C32.9354 183.159 34.7735 184.548 37.0409 184.548Z" fill="url(#paint56_linear_1_6250)"/>
<path d="M37.0437 182.302C41.1079 182.302 44.4026 180.392 44.4026 178.037C44.4026 175.681 41.1079 173.771 37.0437 173.771C32.9795 173.771 29.6848 175.681 29.6848 178.037C29.6848 180.392 32.9795 182.302 37.0437 182.302Z" fill="url(#paint57_linear_1_6250)"/>
<path d="M37.0437 179.509C41.1079 179.509 44.4026 177.599 44.4026 175.244C44.4026 172.888 41.1079 170.978 37.0437 170.978C32.9795 170.978 29.6848 172.888 29.6848 175.244C29.6848 177.599 32.9795 179.509 37.0437 179.509Z" fill="url(#paint58_linear_1_6250)"/>
<path d="M37.0437 176.562C41.1079 176.562 44.4026 174.652 44.4026 172.297C44.4026 169.941 41.1079 168.031 37.0437 168.031C32.9795 168.031 29.6848 169.941 29.6848 172.297C29.6848 174.652 32.9795 176.562 37.0437 176.562Z" fill="url(#paint59_linear_1_6250)"/>
<path d="M37.0437 173.771C41.1079 173.771 44.4026 171.862 44.4026 169.506C44.4026 167.15 41.1079 165.24 37.0437 165.24C32.9795 165.24 29.6848 167.15 29.6848 169.506C29.6848 171.862 32.9795 173.771 37.0437 173.771Z" fill="url(#paint60_linear_1_6250)"/>
<path d="M37.0437 170.824C41.1079 170.824 44.4026 168.915 44.4026 166.559C44.4026 164.203 41.1079 162.293 37.0437 162.293C32.9795 162.293 29.6848 164.203 29.6848 166.559C29.6848 168.915 32.9795 170.824 37.0437 170.824Z" fill="url(#paint61_linear_1_6250)"/>
<path style="mix-blend-mode:overlay" d="M57.2588 140.419C57.2588 129.251 48.1958 120.177 37.0413 120.177C25.8868 120.177 16.8237 129.251 16.8237 140.419C16.8237 151.587 18.6054 149.88 21.5489 153.448C21.5489 153.525 21.7038 153.603 21.7813 153.681C21.7813 153.681 21.8588 153.836 21.9362 153.836C22.0137 153.913 22.0911 154.068 22.1686 154.146C24.8798 157.17 26.3515 160.04 27.0487 161.824C27.2036 162.367 27.436 162.987 27.6684 163.53C27.6684 163.53 27.6684 163.607 27.6684 163.685C29.2951 167.175 32.8583 169.579 36.9638 169.579C41.0693 169.579 45.717 166.322 46.8789 161.901C47.4986 160.35 48.738 157.791 50.9844 154.999C54.78 151.354 57.1813 146.158 57.1813 140.419H57.2588Z" fill="url(#paint62_linear_1_6250)"/>
<path d="M38.4345 152.749L37.0402 151.896C41.9203 144.218 42.54 141.892 42.54 141.194C42.3076 141.194 42.0752 141.349 41.7654 141.504C40.6809 141.969 39.1317 142.667 36.9627 142.59C34.8713 142.59 33.322 141.814 32.315 141.349C32.0052 141.194 31.6953 141.039 31.5404 141.039C31.3855 141.504 31.308 143.676 36.6529 151.741L35.2586 152.672C29.0616 143.21 29.3715 140.806 30.4559 139.72C31.1531 139.022 32.0826 139.41 33.0122 139.875C33.9417 140.341 35.2586 140.884 36.9627 140.961C38.7443 140.961 40.1386 140.418 41.1457 140.031C42.0752 139.643 42.9273 139.255 43.6244 139.875C44.554 140.729 44.9413 142.357 38.357 152.827L38.4345 152.749Z" fill="url(#paint63_linear_1_6250)"/>
<path d="M37.0403 167.484C35.8784 167.484 34.8713 166.475 34.8713 165.312V151.585C34.8713 150.422 35.8784 149.413 37.0403 149.413C38.2022 149.413 39.2092 150.422 39.2092 151.585V165.312C39.2092 166.475 38.2022 167.484 37.0403 167.484Z" fill="url(#paint64_linear_1_6250)"/>
<path style="mix-blend-mode:overlay" d="M57.2588 140.419C57.2588 129.251 48.1958 120.177 37.0413 120.177C25.8868 120.177 16.8237 129.251 16.8237 140.419C16.8237 151.587 18.6054 149.88 21.5489 153.448C21.5489 153.525 21.7038 153.603 21.7813 153.681C21.7813 153.681 21.8588 153.836 21.9362 153.836C22.0137 153.913 22.0911 154.068 22.1686 154.146C24.8798 157.17 26.3515 160.04 27.0487 161.824C27.2036 162.367 27.436 162.987 27.6684 163.53C27.6684 163.53 27.6684 163.607 27.6684 163.685C29.2951 167.175 32.8583 169.579 36.9638 169.579C41.0693 169.579 45.717 166.322 46.8789 161.901C47.4986 160.35 48.738 157.791 50.9844 154.999C54.78 151.354 57.1813 146.158 57.1813 140.419H57.2588Z" fill="url(#paint65_linear_1_6250)"/>
<path d="M153.465 184.238L160.746 179.972L168.027 184.315L160.746 188.503L153.465 184.238Z" fill="url(#paint66_linear_1_6250)"/>
<path d="M160.746 195.638V188.503L168.027 184.315V191.45L160.746 195.638Z" fill="#A887F9"/>
<path d="M153.465 184.239V191.296L160.746 195.639V188.504L153.465 184.239Z" fill="#C2AEFF"/>
<path d="M142.851 182.067L150.132 177.801L157.414 182.144L150.132 186.332L142.851 182.067Z" fill="url(#paint67_linear_1_6250)"/>
<path d="M150.132 201.765V186.332L157.414 182.144V197.5L150.132 201.765Z" fill="#A887F9"/>
<path d="M142.851 182.068V197.423L150.132 201.767V186.333L142.851 182.068Z" fill="#C2AEFF"/>
<path d="M131.852 174.856L139.134 170.668L146.493 174.934L139.134 179.199L131.852 174.856Z" fill="url(#paint68_linear_1_6250)"/>
<path d="M139.133 207.895V179.2L146.492 174.935V203.708L139.133 207.895Z" fill="#A887F9"/>
<path d="M131.852 174.857V203.552L139.134 207.895V179.2L131.852 174.857Z" fill="#C2AEFF"/>
<path d="M120.928 187.804L128.21 183.616L135.491 187.882L128.21 192.147L120.928 187.804Z" fill="url(#paint69_linear_1_6250)"/>
<path d="M128.209 213.941V192.148L135.491 187.883V209.753L128.209 213.941Z" fill="#A887F9"/>
<path d="M120.928 187.805V209.675L128.21 213.941V192.148L120.928 187.805Z" fill="#C2AEFF"/>
<path d="M110.008 202.621L117.29 198.433L124.571 202.699L117.29 206.887L110.008 202.621Z" fill="url(#paint70_linear_1_6250)"/>
<path d="M117.29 219.994V206.888L124.571 202.7V215.807L117.29 219.994Z" fill="#A887F9"/>
<path d="M110.008 202.622V215.728L117.29 219.994V206.887L110.008 202.622Z" fill="#C2AEFF"/>
<path d="M99.007 214.716L106.288 210.45L113.647 214.793L106.288 218.981L99.007 214.716Z" fill="url(#paint71_linear_1_6250)"/>
<path d="M106.288 226.116V218.981L113.647 214.793V221.928L106.288 226.116Z" fill="#A887F9"/>
<path d="M99.007 214.717V221.774L106.288 226.117V218.982L99.007 214.717Z" fill="#C2AEFF"/>
<g style="mix-blend-mode:overlay">
<path d="M153.465 184.24L160.746 180.052L168.027 184.318L160.746 188.506L153.465 184.24Z" fill="url(#paint72_linear_1_6250)"/>
<path d="M160.746 195.642V188.507L168.027 184.319V191.454L160.746 195.642Z" fill="#A887F9"/>
<path d="M153.465 184.24V191.375L160.746 195.641V188.506L153.465 184.24Z" fill="#C2AEFF"/>
<path d="M142.851 182.068L150.132 177.88L157.414 182.146L150.132 186.334L142.851 182.068Z" fill="url(#paint73_linear_1_6250)"/>
<path d="M150.132 201.768V186.335L157.414 182.147V197.58L150.132 201.768Z" fill="#A887F9"/>
<path d="M142.851 182.069V197.424L150.132 201.767V186.334L142.851 182.069Z" fill="#C2AEFF"/>
<path d="M131.852 174.934L139.134 170.668L146.493 175.011L139.134 179.199L131.852 174.934Z" fill="url(#paint74_linear_1_6250)"/>
<path d="M139.133 207.894V179.199L146.492 175.011V203.706L139.133 207.894Z" fill="#A887F9"/>
<path d="M131.852 174.935V203.63L139.134 207.895V179.2L131.852 174.935Z" fill="#C2AEFF"/>
<path d="M120.928 187.804L128.21 183.616L135.491 187.959L128.21 192.147L120.928 187.804Z" fill="url(#paint75_linear_1_6250)"/>
<path d="M128.209 213.94V192.147L135.491 187.959V209.752L128.209 213.94Z" fill="#A887F9"/>
<path d="M120.928 187.805V209.675L128.21 213.941V192.148L120.928 187.805Z" fill="#C2AEFF"/>
<path d="M110.008 202.621L117.29 198.433L124.571 202.777L117.29 206.964L110.008 202.621Z" fill="url(#paint76_linear_1_6250)"/>
<path d="M117.29 220.071V206.964L124.571 202.776V215.883L117.29 220.071Z" fill="#A887F9"/>
<path d="M110.008 202.622V215.728L117.29 220.071V206.965L110.008 202.622Z" fill="#C2AEFF"/>
<path d="M99.007 214.72L106.288 210.532L113.647 214.797L106.288 218.985L99.007 214.72Z" fill="url(#paint77_linear_1_6250)"/>
<path d="M106.288 226.121V218.986L113.647 214.798V221.933L106.288 226.121Z" fill="#A887F9"/>
<path d="M99.007 214.72V221.855L106.288 226.12V218.985L99.007 214.72Z" fill="#C2AEFF"/>
</g>
<defs>
<linearGradient id="paint0_linear_1_6250" x1="113.647" y1="179.43" x2="97.7678" y2="179.43" gradientUnits="userSpaceOnUse">
<stop stop-color="#A688FF"/>
<stop offset="1" stop-color="#C0ABFF"/>
</linearGradient>
<linearGradient id="paint1_linear_1_6250" x1="159.427" y1="225.653" x2="156.168" y2="219.84" gradientUnits="userSpaceOnUse">
<stop stop-color="#3300BF"/>
<stop offset="1" stop-color="#C0ABFF"/>
</linearGradient>
<linearGradient id="paint2_linear_1_6250" x1="89.3244" y1="248.221" x2="93.2821" y2="241.245" gradientUnits="userSpaceOnUse">
<stop stop-color="#3300BF"/>
<stop offset="1" stop-color="#C0ABFF"/>
</linearGradient>
<linearGradient id="paint3_linear_1_6250" x1="429.434" y1="453.538" x2="124.312" y2="166.152" gradientUnits="userSpaceOnUse">
<stop stop-color="#9C74FF"/>
<stop offset="1" stop-color="#FFF6FF"/>
</linearGradient>
<linearGradient id="paint4_linear_1_6250" x1="27.9753" y1="266.989" x2="325.056" y2="-6.26919" gradientUnits="userSpaceOnUse">
<stop stop-color="#0E9CFF"/>
<stop offset="1" stop-color="#FFF6FF"/>
</linearGradient>
<linearGradient id="paint5_linear_1_6250" x1="40.8338" y1="142.515" x2="451.304" y2="147.853" gradientUnits="userSpaceOnUse">
<stop stop-color="#4F47FF"/>
<stop offset="1" stop-color="#13FFE2"/>
</linearGradient>
<linearGradient id="paint6_linear_1_6250" x1="49.7931" y1="209.718" x2="60.4714" y2="227.456" gradientUnits="userSpaceOnUse">
<stop stop-color="#4F47FF"/>
<stop offset="1" stop-color="#13FFE2"/>
</linearGradient>
<linearGradient id="paint7_linear_1_6250" x1="53.4754" y1="207.488" x2="73.8779" y2="241.507" gradientUnits="userSpaceOnUse">
<stop stop-color="#4F47FF"/>
<stop offset="1" stop-color="#13FFE2"/>
</linearGradient>
<linearGradient id="paint8_linear_1_6250" x1="197.461" y1="123.434" x2="213.737" y2="132.724" gradientUnits="userSpaceOnUse">
<stop stop-color="#FF4AFF"/>
<stop offset="1" stop-color="#13FFE2"/>
</linearGradient>
<linearGradient id="paint9_linear_1_6250" x1="201.334" y1="123.434" x2="217.233" y2="139.624" gradientUnits="userSpaceOnUse">
<stop stop-color="#4F47FF"/>
<stop offset="1" stop-color="#13FFE2"/>
</linearGradient>
<linearGradient id="paint10_linear_1_6250" x1="132.468" y1="237.129" x2="147.424" y2="230.86" gradientUnits="userSpaceOnUse">
<stop stop-color="#3818D6"/>
<stop offset="1" stop-color="#13FFE2"/>
</linearGradient>
<linearGradient id="paint11_linear_1_6250" x1="142.805" y1="241.742" x2="135.38" y2="234.744" gradientUnits="userSpaceOnUse">
<stop stop-color="#9C74FF"/>
<stop offset="1" stop-color="#FFF6FF"/>
</linearGradient>
<linearGradient id="paint12_linear_1_6250" x1="141.612" y1="231.932" x2="156.568" y2="225.663" gradientUnits="userSpaceOnUse">
<stop stop-color="#3818D6"/>
<stop offset="1" stop-color="#13FFE2"/>
</linearGradient>
<linearGradient id="paint13_linear_1_6250" x1="151.945" y1="236.517" x2="144.519" y2="229.519" gradientUnits="userSpaceOnUse">
<stop stop-color="#9C74FF"/>
<stop offset="1" stop-color="#FFF6FF"/>
</linearGradient>
<linearGradient id="paint14_linear_1_6250" x1="127.667" y1="240.231" x2="133.867" y2="237.677" gradientUnits="userSpaceOnUse">
<stop stop-color="#3818D6"/>
<stop offset="1" stop-color="#13FFE2"/>
</linearGradient>
<linearGradient id="paint15_linear_1_6250" x1="133.64" y1="243.632" x2="128.97" y2="239.229" gradientUnits="userSpaceOnUse">
<stop stop-color="#9C74FF"/>
<stop offset="1" stop-color="#FFF6FF"/>
</linearGradient>
<linearGradient id="paint16_linear_1_6250" x1="-44.6869" y1="180.408" x2="-44.1672" y2="185.422" gradientUnits="userSpaceOnUse">
<stop stop-color="#4F47FF"/>
<stop offset="1" stop-color="#13FFE2"/>
</linearGradient>
<linearGradient id="paint17_linear_1_6250" x1="301.57" y1="179.97" x2="225.486" y2="156.677" gradientUnits="userSpaceOnUse">
<stop stop-color="#CAB9FF"/>
<stop offset="1" stop-color="white"/>
</linearGradient>
<linearGradient id="paint18_linear_1_6250" x1="177.554" y1="176.48" x2="198.559" y2="188.556" gradientUnits="userSpaceOnUse">
<stop stop-color="#6318FF"/>
<stop offset="1" stop-color="#13FFE2"/>
</linearGradient>
<linearGradient id="paint19_linear_1_6250" x1="187.933" y1="175.393" x2="235.862" y2="126.746" gradientUnits="userSpaceOnUse">
<stop stop-color="#6318FF"/>
<stop offset="1" stop-color="#13FFE2"/>
</linearGradient>
<linearGradient id="paint20_linear_1_6250" x1="236.579" y1="146.854" x2="250.542" y2="130.118" gradientUnits="userSpaceOnUse">
<stop stop-color="#6318FF"/>
<stop offset="1" stop-color="#13FFE2"/>
</linearGradient>
<linearGradient id="paint21_linear_1_6250" x1="103.659" y1="12.6858" x2="154.787" y2="20.8101" gradientUnits="userSpaceOnUse">
<stop stop-color="#6318FF"/>
<stop offset="1" stop-color="#13FFE2"/>
</linearGradient>
<linearGradient id="paint22_linear_1_6250" x1="157.495" y1="27.1108" x2="182.727" y2="126.288" gradientUnits="userSpaceOnUse">
<stop stop-color="#6318FF"/>
<stop offset="1" stop-color="#13FFE2"/>
</linearGradient>
<linearGradient id="paint23_linear_1_6250" x1="100.483" y1="16.8746" x2="161.365" y2="79.2332" gradientUnits="userSpaceOnUse">
<stop stop-color="#6318FF"/>
<stop offset="1" stop-color="#13FFE2"/>
</linearGradient>
<linearGradient id="paint24_linear_1_6250" x1="103.659" y1="-2.90358" x2="154.787" y2="5.22069" gradientUnits="userSpaceOnUse">
<stop stop-color="#6318FF"/>
<stop offset="1" stop-color="#13FFE2"/>
</linearGradient>
<linearGradient id="paint25_linear_1_6250" x1="157.495" y1="11.4432" x2="182.727" y2="110.698" gradientUnits="userSpaceOnUse">
<stop stop-color="#6318FF"/>
<stop offset="1" stop-color="#13FFE2"/>
</linearGradient>
<linearGradient id="paint26_linear_1_6250" x1="100.483" y1="1.28462" x2="161.365" y2="63.6433" gradientUnits="userSpaceOnUse">
<stop stop-color="#6318FF"/>
<stop offset="1" stop-color="#13FFE2"/>
</linearGradient>
<linearGradient id="paint27_linear_1_6250" x1="261.138" y1="101.873" x2="249.364" y2="101.873" gradientUnits="userSpaceOnUse">
<stop stop-color="#6318FF"/>
<stop offset="1" stop-color="#13FFE2"/>
</linearGradient>
<linearGradient id="paint28_linear_1_6250" x1="261.138" y1="101.873" x2="249.364" y2="101.873" gradientUnits="userSpaceOnUse">
<stop stop-color="#6318FF"/>
<stop offset="1" stop-color="#13FFE2"/>
</linearGradient>
<linearGradient id="paint29_linear_1_6250" x1="245.493" y1="123.276" x2="236.895" y2="123.276" gradientUnits="userSpaceOnUse">
<stop stop-color="#6318FF"/>
<stop offset="1" stop-color="#13FFE2"/>
</linearGradient>
<linearGradient id="paint30_linear_1_6250" x1="245.493" y1="123.276" x2="236.895" y2="123.276" gradientUnits="userSpaceOnUse">
<stop stop-color="#6318FF"/>
<stop offset="1" stop-color="#13FFE2"/>
</linearGradient>
<linearGradient id="paint31_linear_1_6250" x1="274.541" y1="117.848" x2="264.703" y2="117.848" gradientUnits="userSpaceOnUse">
<stop stop-color="#6318FF"/>
<stop offset="1" stop-color="#13FFE2"/>
</linearGradient>
<linearGradient id="paint32_linear_1_6250" x1="274.541" y1="117.848" x2="264.703" y2="117.848" gradientUnits="userSpaceOnUse">
<stop stop-color="#6318FF"/>
<stop offset="1" stop-color="#13FFE2"/>
</linearGradient>
<linearGradient id="paint33_linear_1_6250" x1="132.781" y1="71.5483" x2="183.909" y2="79.6725" gradientUnits="userSpaceOnUse">
<stop stop-color="#6318FF"/>
<stop offset="1" stop-color="#13FFE2"/>
</linearGradient>
<linearGradient id="paint34_linear_1_6250" x1="191.884" y1="84.6548" x2="206.635" y2="142.502" gradientUnits="userSpaceOnUse">
<stop stop-color="#6318FF"/>
<stop offset="1" stop-color="#13FFE2"/>
</linearGradient>
<linearGradient id="paint35_linear_1_6250" x1="150.984" y1="75.737" x2="189.53" y2="115.166" gradientUnits="userSpaceOnUse">
<stop stop-color="#6318FF"/>
<stop offset="1" stop-color="#13FFE2"/>
</linearGradient>
<linearGradient id="paint36_linear_1_6250" x1="132.781" y1="55.9599" x2="183.909" y2="64.0842" gradientUnits="userSpaceOnUse">
<stop stop-color="#6318FF"/>
<stop offset="1" stop-color="#13FFE2"/>
</linearGradient>
<linearGradient id="paint37_linear_1_6250" x1="191.884" y1="68.9882" x2="206.635" y2="126.913" gradientUnits="userSpaceOnUse">
<stop stop-color="#6318FF"/>
<stop offset="1" stop-color="#13FFE2"/>
</linearGradient>
<linearGradient id="paint38_linear_1_6250" x1="150.984" y1="60.0705" x2="189.53" y2="99.4995" gradientUnits="userSpaceOnUse">
<stop stop-color="#6318FF"/>
<stop offset="1" stop-color="#13FFE2"/>
</linearGradient>
<linearGradient id="paint39_linear_1_6250" x1="20.988" y1="222.896" x2="15.1977" y2="222.896" gradientUnits="userSpaceOnUse">
<stop stop-color="#6318FF"/>
<stop offset="1" stop-color="#13FFE2"/>
</linearGradient>
<linearGradient id="paint40_linear_1_6250" x1="20.988" y1="222.896" x2="15.1977" y2="222.896" gradientUnits="userSpaceOnUse">
<stop stop-color="#6318FF"/>
<stop offset="1" stop-color="#13FFE2"/>
</linearGradient>
<linearGradient id="paint41_linear_1_6250" x1="13.4605" y1="234.946" x2="9.20045" y2="234.946" gradientUnits="userSpaceOnUse">
<stop stop-color="#6318FF"/>
<stop offset="1" stop-color="#13FFE2"/>
</linearGradient>
<linearGradient id="paint42_linear_1_6250" x1="13.4605" y1="234.946" x2="9.20045" y2="234.946" gradientUnits="userSpaceOnUse">
<stop stop-color="#6318FF"/>
<stop offset="1" stop-color="#13FFE2"/>
</linearGradient>
<linearGradient id="paint43_linear_1_6250" x1="-1.84195" y1="221.53" x2="25.4571" y2="225.868" gradientUnits="userSpaceOnUse">
<stop stop-color="#6318FF"/>
<stop offset="1" stop-color="#13FFE2"/>
</linearGradient>
<linearGradient id="paint44_linear_1_6250" x1="30.7496" y1="228.238" x2="36.5944" y2="251.3" gradientUnits="userSpaceOnUse">
<stop stop-color="#6318FF"/>
<stop offset="1" stop-color="#13FFE2"/>
</linearGradient>
<linearGradient id="paint45_linear_1_6250" x1="11.9722" y1="223.725" x2="28.2878" y2="240.435" gradientUnits="userSpaceOnUse">
<stop stop-color="#6318FF"/>
<stop offset="1" stop-color="#13FFE2"/>
</linearGradient>
<linearGradient id="paint46_linear_1_6250" x1="-1.84195" y1="213.168" x2="25.457" y2="217.505" gradientUnits="userSpaceOnUse">
<stop stop-color="#6318FF"/>
<stop offset="1" stop-color="#13FFE2"/>
</linearGradient>
<linearGradient id="paint47_linear_1_6250" x1="29.7569" y1="220.166" x2="37.6329" y2="251.052" gradientUnits="userSpaceOnUse">
<stop stop-color="#6318FF"/>
<stop offset="1" stop-color="#13FFE2"/>
</linearGradient>
<linearGradient id="paint48_linear_1_6250" x1="20.8232" y1="217.185" x2="30.9776" y2="244.714" gradientUnits="userSpaceOnUse">
<stop stop-color="#6318FF"/>
<stop offset="1" stop-color="#13FFE2"/>
</linearGradient>
<linearGradient id="paint49_linear_1_6250" x1="250.365" y1="277.142" x2="69.533" y2="116.043" gradientUnits="userSpaceOnUse">
<stop stop-color="#CAB9FF"/>
<stop offset="1" stop-color="white"/>
</linearGradient>
<linearGradient id="paint50_linear_1_6250" x1="136.614" y1="-43.727" x2="282.513" y2="94.5008" gradientUnits="userSpaceOnUse">
<stop stop-color="#6318FF"/>
<stop offset="1" stop-color="#13FFE2"/>
</linearGradient>
<linearGradient id="paint51_linear_1_6250" x1="155.261" y1="-26.0726" x2="301.094" y2="112.194" gradientUnits="userSpaceOnUse">
<stop stop-color="#6318FF"/>
<stop offset="1" stop-color="#13FFE2"/>
</linearGradient>
<linearGradient id="paint52_linear_1_6250" x1="157.703" y1="-39.7188" x2="303.536" y2="98.5481" gradientUnits="userSpaceOnUse">
<stop stop-color="#6318FF"/>
<stop offset="1" stop-color="#13FFE2"/>
</linearGradient>
<linearGradient id="paint53_linear_1_6250" x1="178.36" y1="-20.006" x2="324.153" y2="118.194" gradientUnits="userSpaceOnUse">
<stop stop-color="#6318FF"/>
<stop offset="1" stop-color="#13FFE2"/>
</linearGradient>
<linearGradient id="paint54_linear_1_6250" x1="-41.5891" y1="114.278" x2="70.9838" y2="147.011" gradientUnits="userSpaceOnUse">
<stop stop-color="#6318FF"/>
<stop offset="1" stop-color="#13FFE2"/>
</linearGradient>
<linearGradient id="paint55_linear_1_6250" x1="35.57" y1="182.484" x2="65.2554" y2="199.515" gradientUnits="userSpaceOnUse">
<stop stop-color="#6318FF"/>
<stop offset="1" stop-color="#13FFE2"/>
</linearGradient>
<linearGradient id="paint56_linear_1_6250" x1="45.2519" y1="182.609" x2="29.9911" y2="180.365" gradientUnits="userSpaceOnUse">
<stop stop-color="#0000FF"/>
<stop offset="1" stop-color="#13FFE2"/>
</linearGradient>
<linearGradient id="paint57_linear_1_6250" x1="53.1557" y1="192.462" x2="34.5453" y2="175.887" gradientUnits="userSpaceOnUse">
<stop offset="0.4" stop-color="#0000FF"/>
<stop offset="1" stop-color="#13FFE2"/>
</linearGradient>
<linearGradient id="paint58_linear_1_6250" x1="53.1557" y1="189.669" x2="34.5452" y2="173.094" gradientUnits="userSpaceOnUse">
<stop offset="0.4" stop-color="#0000FF"/>
<stop offset="1" stop-color="#13FFE2"/>
</linearGradient>
<linearGradient id="paint59_linear_1_6250" x1="-315.485" y1="186.722" x2="-314.709" y2="170.125" gradientUnits="userSpaceOnUse">
<stop offset="0.4" stop-color="#0000FF"/>
<stop offset="1" stop-color="#13FFE2"/>
</linearGradient>
<linearGradient id="paint60_linear_1_6250" x1="-315.485" y1="183.931" x2="-314.709" y2="167.334" gradientUnits="userSpaceOnUse">
<stop offset="0.4" stop-color="#0000FF"/>
<stop offset="1" stop-color="#13FFE2"/>
</linearGradient>
<linearGradient id="paint61_linear_1_6250" x1="53.1557" y1="180.984" x2="34.5453" y2="164.409" gradientUnits="userSpaceOnUse">
<stop offset="0.4" stop-color="#0000FF"/>
<stop offset="1" stop-color="#13FFE2"/>
</linearGradient>
<linearGradient id="paint62_linear_1_6250" x1="92.8138" y1="192.923" x2="27.9873" y2="135.222" gradientUnits="userSpaceOnUse">
<stop stop-color="#6318FF"/>
<stop offset="1" stop-color="#13FFE2"/>
</linearGradient>
<linearGradient id="paint63_linear_1_6250" x1="37.1951" y1="156.317" x2="37.1175" y2="145.614" gradientUnits="userSpaceOnUse">
<stop stop-color="#6318FF"/>
<stop offset="1" stop-color="#9CFFFF"/>
</linearGradient>
<linearGradient id="paint64_linear_1_6250" x1="37.0403" y1="172.214" x2="37.0403" y2="150.887" gradientUnits="userSpaceOnUse">
<stop stop-color="#6318FF"/>
<stop offset="1" stop-color="#13FFE2"/>
</linearGradient>
<linearGradient id="paint65_linear_1_6250" x1="64.9275" y1="169.036" x2="14.7543" y2="122.408" gradientUnits="userSpaceOnUse">
<stop stop-color="#6318FF"/>
<stop offset="1" stop-color="#13FFE2"/>
</linearGradient>
<linearGradient id="paint66_linear_1_6250" x1="173.605" y1="195.716" x2="157.088" y2="181" gradientUnits="userSpaceOnUse">
<stop stop-color="#CAB9FF"/>
<stop offset="1" stop-color="white"/>
</linearGradient>
<linearGradient id="paint67_linear_1_6250" x1="162.991" y1="193.545" x2="146.474" y2="178.829" gradientUnits="userSpaceOnUse">
<stop stop-color="#CAB9FF"/>
<stop offset="1" stop-color="white"/>
</linearGradient>
<linearGradient id="paint68_linear_1_6250" x1="151.992" y1="186.412" x2="135.476" y2="171.696" gradientUnits="userSpaceOnUse">
<stop stop-color="#CAB9FF"/>
<stop offset="1" stop-color="white"/>
</linearGradient>
<linearGradient id="paint69_linear_1_6250" x1="141.068" y1="199.36" x2="124.551" y2="184.644" gradientUnits="userSpaceOnUse">
<stop stop-color="#CAB9FF"/>
<stop offset="1" stop-color="white"/>
</linearGradient>
<linearGradient id="paint70_linear_1_6250" x1="130.148" y1="214.177" x2="113.632" y2="199.461" gradientUnits="userSpaceOnUse">
<stop stop-color="#CAB9FF"/>
<stop offset="1" stop-color="white"/>
</linearGradient>
<linearGradient id="paint71_linear_1_6250" x1="119.147" y1="226.194" x2="102.708" y2="211.478" gradientUnits="userSpaceOnUse">
<stop stop-color="#CAB9FF"/>
<stop offset="1" stop-color="white"/>
</linearGradient>
<linearGradient id="paint72_linear_1_6250" x1="173.605" y1="195.796" x2="157.088" y2="181.08" gradientUnits="userSpaceOnUse">
<stop stop-color="#CAB9FF"/>
<stop offset="1" stop-color="white"/>
</linearGradient>
<linearGradient id="paint73_linear_1_6250" x1="162.991" y1="193.624" x2="146.474" y2="178.908" gradientUnits="userSpaceOnUse">
<stop stop-color="#CAB9FF"/>
<stop offset="1" stop-color="white"/>
</linearGradient>
<linearGradient id="paint74_linear_1_6250" x1="151.992" y1="186.412" x2="135.476" y2="171.696" gradientUnits="userSpaceOnUse">
<stop stop-color="#CAB9FF"/>
<stop offset="1" stop-color="white"/>
</linearGradient>
<linearGradient id="paint75_linear_1_6250" x1="141.068" y1="199.36" x2="124.551" y2="184.644" gradientUnits="userSpaceOnUse">
<stop stop-color="#CAB9FF"/>
<stop offset="1" stop-color="white"/>
</linearGradient>
<linearGradient id="paint76_linear_1_6250" x1="130.148" y1="214.177" x2="113.632" y2="199.461" gradientUnits="userSpaceOnUse">
<stop stop-color="#CAB9FF"/>
<stop offset="1" stop-color="white"/>
</linearGradient>
<linearGradient id="paint77_linear_1_6250" x1="119.147" y1="226.275" x2="102.708" y2="211.559" gradientUnits="userSpaceOnUse">
<stop stop-color="#CAB9FF"/>
<stop offset="1" stop-color="white"/>
</linearGradient>
</defs>
</svg>
